<svg width="48" height="48" viewBox="0 0 48 48" fill="none" xmlns="http://www.w3.org/2000/svg">
<g clip-path="url(#clip0_15031_14226)">
<path d="M24 24C30.6274 24 36 18.6274 36 12C36 5.37258 30.6274 0 24 0C17.3726 0 12 5.37258 12 12C12 18.6274 17.3726 24 24 24Z" fill="#D9D9D9"/>
<path d="M0 24.4397C5.99579 24.5424 11.9604 26.881 16.5356 31.4561C21.1108 36.0313 23.4491 41.9958 23.5517 47.9915C17.5562 47.8888 11.5916 45.5504 7.01646 40.9753C2.44129 36.4001 0.102734 30.4355 0 24.4397Z" fill="#00916E"/>
<path d="M48.0324 24.4397C42.0364 24.5424 36.0718 26.881 31.4966 31.4561C26.9215 36.0313 24.5831 41.9958 24.4805 47.9915C30.4761 47.8888 36.4406 45.5504 41.0157 40.9753C45.5911 36.4001 47.9297 30.4355 48.0324 24.4397Z" fill="#09BB90"/>
</g>
<defs>
<clipPath id="clip0_15031_14226">
<rect width="48" height="48" fill="white"/>
</clipPath>
</defs>
</svg>
