<svg width="48" height="48" viewBox="0 0 48 48" fill="none" xmlns="http://www.w3.org/2000/svg">
<g clip-path="url(#clip0_15031_14195)">
<path d="M24.3887 23.8628C30.3845 23.9645 36.3491 26.2799 40.9243 30.8098C45.4994 35.3396 47.838 41.2451 47.9402 47.1812C41.9448 47.0795 35.9803 44.7646 31.4051 40.2347C26.83 35.7048 24.4914 29.7992 24.3887 23.8628Z" fill="#00916E"/>
<path d="M24.6309 23.2785C24.7336 17.3421 27.0722 11.4365 31.6474 6.90662C36.2225 2.3768 42.187 0.0616306 48.1827 -0.0400391C48.08 5.8962 45.7414 11.8017 41.1665 16.3315C36.5913 20.8614 30.6267 23.1768 24.6309 23.2785Z" fill="#D9D9D9"/>
<path d="M-0.0410156 -0.00854492C5.95477 0.0931438 11.9194 2.4086 16.4946 6.93847C21.0697 11.4683 23.4081 17.3738 23.5107 23.31C17.5151 23.2084 11.5506 20.8932 6.97545 16.3633C2.40028 11.8335 0.0617188 5.9279 -0.0410156 -0.00854492Z" fill="#00482F"/>
<path d="M0.0410156 47.9914C0.143736 42.055 2.4823 36.1494 7.05751 31.6195C11.6326 27.0897 17.5972 24.7745 23.5928 24.6729C23.4901 30.6091 21.1518 36.5146 16.5766 41.0444C12.0015 45.5743 6.03684 47.8897 0.0410156 47.9914Z" fill="#09BB90"/>
</g>
<defs>
<clipPath id="clip0_15031_14195">
<rect width="48" height="48" fill="white"/>
</clipPath>
</defs>
</svg>
