<svg width="48" height="48" viewBox="0 0 48 48" fill="none" xmlns="http://www.w3.org/2000/svg">
<path d="M23.9696 24.0002L23.9696 48.0001V48.0001C37.2076 48.0001 47.9391 37.2383 47.9391 24.0002V24.0002L23.9696 24.0002Z" fill="#00482F"/>
<path d="M23.9696 24.0002L23.9696 0.000366211V0.000366211C10.7315 0.000365632 -1.32943e-06 10.7622 -1.90735e-06 24.0002V24.0002L23.9696 24.0002Z" fill="#D9D9D9"/>
<path d="M47.9989 24L47.9989 0.00012207V0.00012207C34.7608 0.00012265 24.0293 10.762 24.0293 24V24L47.9989 24Z" fill="#09BB90"/>
<path d="M0.0613632 23.8091L0.0613622 47.809V47.809C13.2994 47.809 24.0309 37.0471 24.0309 23.8091V23.8091L0.0613632 23.8091Z" fill="#00916E"/>
</svg>
