<svg width="150" height="100" viewBox="0 0 150 100" fill="none" xmlns="http://www.w3.org/2000/svg">
<path fill-rule="evenodd" clip-rule="evenodd" d="M86.8783 56.1894C85.9466 57.1889 84.75 57.6966 83.3225 57.6966C81.8944 57.6966 80.6978 57.1889 79.7666 56.1894C78.8773 55.2374 78.3662 53.715 78.3662 52.0141C78.3662 50.3539 78.8829 48.8524 79.7819 47.8936C80.7227 46.8941 81.9136 46.3842 83.3214 46.3802C84.7314 46.3842 85.9223 46.8941 86.8625 47.8936C87.7626 48.8524 88.2782 50.3539 88.2782 52.0141C88.2782 53.715 87.7677 55.2374 86.8783 56.1894ZM74.3761 52.0141C74.3761 52.0909 74.3795 52.1666 74.3818 52.2423C72.9531 50.9418 70.8875 50.4578 69.6254 50.2054C67.2904 49.713 65.5066 49.2624 65.5066 47.5999C65.5066 46.4271 66.5569 45.5738 68.5745 45.7201C70.4182 45.8539 71.1947 46.9811 71.4076 48.0686C71.438 48.2471 71.5205 48.377 71.7238 48.3787L75.0396 48.4069C75.0554 48.4069 75.069 48.4052 75.0831 48.4041C74.6155 49.4945 74.3761 50.7086 74.3761 52.0141ZM68.7366 58.1139C67.1329 58.1139 65.3659 57.5441 64.9588 55.3396C64.9244 55.1289 64.825 55.042 64.6635 55.0375L61.4577 54.9945V49.3279C61.879 50.9886 63.2743 52.1383 66.292 52.8177C68.3119 53.301 71.8158 53.6082 71.8158 55.6818C71.8158 57.1274 70.7514 58.1478 68.7366 58.1139ZM52.7694 57.6988C50.1832 57.6988 47.8137 55.6631 47.8137 52.0164C47.8137 49.1551 49.5902 46.3825 52.7864 46.3825C54.171 46.3825 57.6817 46.8568 57.6817 52.0164C57.6817 57.1895 54.0163 57.6988 52.7689 57.6988H52.7694ZM92.1728 50.6244C92.9086 51.6058 94.2368 52.3326 96.3945 52.8182C98.4138 53.3016 101.918 53.6088 101.918 55.6823C101.918 57.1279 100.853 58.1483 98.839 58.1144C97.2358 58.1144 95.4678 57.5447 95.0612 55.3401C95.0273 55.1295 94.928 55.0425 94.7659 55.038L91.7956 54.9985C92.109 54.0741 92.2688 53.0729 92.2688 52.0147C92.2687 51.5496 92.2366 51.0851 92.1728 50.6244ZM98.6199 61C102.177 61 106.369 59.6758 106.041 55.3808C105.679 51.568 101.711 50.6024 99.7278 50.206C97.3923 49.7136 95.6084 49.263 95.6084 47.6005C95.6084 46.4277 96.6587 45.5744 98.6769 45.7207C100.521 45.8545 101.297 46.9816 101.51 48.0692C101.54 48.2476 101.623 48.3775 101.826 48.3792L105.142 48.4075C105.394 48.4091 105.473 48.2781 105.441 48.0986C104.792 44.1243 101.472 43 98.416 43C95.365 43 91.6889 43.8572 91.428 47.6525C91.419 47.7993 91.4156 47.9438 91.4156 48.0856C90.93 47.0759 90.2298 46.1487 89.3274 45.3276C87.6615 43.8256 85.5846 43.0209 83.3197 43.0011H83.2446C82.1626 43.0011 81.1038 43.2005 80.097 43.5957C79.0736 44.0005 78.1319 44.5873 77.3176 45.3276C76.4632 46.1047 75.7884 46.9765 75.3062 47.9235C74.5879 44.0932 71.3228 43 68.3131 43C65.5122 43 62.1839 43.7245 61.4577 46.7834V43.7471C61.4576 43.6693 61.4266 43.5948 61.3715 43.5398C61.3165 43.4849 61.2419 43.454 61.1641 43.454H58.0414C57.9636 43.4542 57.8891 43.4852 57.8341 43.5402C57.7792 43.5953 57.7483 43.6699 57.7483 43.7476V44.5664C57.7483 44.7042 57.6563 44.7522 57.5439 44.672C56.4331 43.8662 54.7899 43.0017 52.8124 43.0017C51.7011 43.0017 50.64 43.1971 49.658 43.5822C48.6754 43.9684 47.7415 44.5563 46.8843 45.3299C45.9085 46.2176 45.1653 47.2295 44.678 48.3374C44.1907 49.4454 43.9434 50.6831 43.9434 52.0158C43.9434 53.2598 44.1625 54.4265 44.5939 55.4807C45.0253 56.535 45.682 57.5102 46.5466 58.3798C47.4105 59.2495 48.3773 59.9102 49.418 60.345C50.4587 60.7781 51.6056 60.9977 52.8287 60.9977C54.9305 60.9977 56.5077 60.1027 57.5411 59.289C57.6551 59.202 57.7483 59.2489 57.7483 59.3912V60.2512C57.7483 60.4127 57.8804 60.5449 58.0419 60.5449H61.1647C61.2424 60.5446 61.3169 60.5135 61.3718 60.4585C61.4267 60.4035 61.4576 60.329 61.4577 60.2512V57.3544C62.9299 60.8159 66.6811 60.9994 68.5175 60.9994C71.5871 60.9994 75.1272 60.0112 75.8296 56.98C76.1673 57.4817 76.5525 57.9497 76.9799 58.3776C78.6536 60.0621 80.8469 60.9678 83.3253 60.9949H83.4269C84.6038 60.9949 85.7393 60.769 86.8021 60.3224C87.875 59.8687 88.8479 59.2078 89.6651 58.3776C90.2763 57.7682 90.7984 57.0754 91.2157 56.3199C92.3287 60.7826 96.6158 60.9994 98.6199 60.9994V61Z" fill="#0B0B0A"/>
</svg>
