<svg width="150" height="100" viewBox="0 0 150 100" fill="none" xmlns="http://www.w3.org/2000/svg">
<path fill-rule="evenodd" clip-rule="evenodd" d="M75.5112 57.1085C77.527 57.1085 78.6048 56.2043 79.2598 55.1738L79.2244 55.3297C79.0337 56.2963 79.8287 56.8887 80.5728 56.8887H81.2217L83.0237 46.5043H80.7942L80.496 48.0882C80.0931 47.2697 78.9569 46.2892 77.1226 46.2892C73.8799 46.2892 71.958 48.9971 71.6366 51.8812C71.2691 55.1785 73.3679 57.1085 75.5112 57.1085ZM77.4439 47.9822C81.1801 48.1927 79.9624 55.431 76.1647 55.2159C72.7298 55.0241 73.7969 47.7764 77.4439 47.9822ZM46.7084 45.8027C46.7084 43.4533 45.2201 42.362 42.6078 42.362C41.001 42.362 38.4718 42.3558 37.5492 42.3558L35 56.8886C35.3137 56.8886 38.072 56.887 39.6311 56.887C40.6889 56.887 41.696 56.8512 42.2634 56.7311C44.8618 56.1746 45.915 54.2586 46.1257 52.854C46.4147 50.9084 45.2047 49.6222 43.827 49.312C44.8603 49.0843 46.7084 48.0055 46.7084 45.8027ZM41.2748 55.1036C40.9857 55.1769 40.5214 55.2159 39.5512 55.2159H37.8676L38.7178 50.3425H41.2163C44.5144 50.3425 44.2145 54.3647 41.2748 55.1036ZM42.2557 48.4794C41.9374 48.587 41.5161 48.6166 40.7458 48.6166H39.0207L39.831 43.9646H42.0881C44.7957 43.9646 44.5836 47.7031 42.2557 48.4794ZM56.5487 46.5152H55.8829C55.8829 46.5152 54.9004 52.2196 54.7897 52.8712C54.5529 54.2681 53.8887 55.2253 52.0221 55.2253C50.9612 55.2253 49.9249 54.5752 50.1679 53.1175C50.2632 52.5547 50.9674 48.4063 51.0274 48.0742C51.2242 46.9518 50.2816 46.5152 49.5036 46.5152H48.9148C48.7702 47.3805 48.1245 51.0301 47.8785 52.4596C47.777 53.0349 47.7416 53.618 47.7847 53.9952C48.0061 55.9331 49.6835 57.1148 51.7592 57.1148C55.3432 57.1148 56.6901 55.2159 57.1191 52.9616C57.259 52.218 57.9386 48.4531 57.9909 48.0742C58.1477 46.9518 57.2344 46.5152 56.5487 46.5152ZM60.2357 60.9872L61.2751 55.258C61.6795 56.0764 62.8311 57.1147 64.6685 57.1147C67.9742 57.1147 70.0207 54.4972 70.2267 51.4338C70.445 48.1771 68.5585 46.3016 66.369 46.3016C64.4701 46.3016 63.1771 47.237 62.5159 48.2129L62.5451 48.0742C62.7542 47.0718 61.9101 46.5152 61.1967 46.5152H60.4879C60.4879 46.5152 58.5613 57.69 58.2969 59.0369C57.9848 60.6193 59.2502 60.9872 59.6515 60.9872H60.2357ZM65.6264 48.1646C69.0612 48.3594 67.9911 55.6259 64.3456 55.4201C60.6124 55.2127 61.8271 47.951 65.6264 48.1646ZM113.661 61.26C112.703 61.26 111.401 61.2039 110.624 60.9357C109.706 60.6177 108.897 59.9848 108.04 59.316C107.611 58.9823 107.168 58.6347 106.688 58.3104C106.102 57.9191 105.618 57.7351 105.152 57.7351C104.528 57.7351 103.92 58.0781 103.181 58.8529C102.181 59.8943 100.589 62.264 99.952 63.2321C99.909 63.2929 99.8567 63.36 99.7752 63.36C99.6184 63.36 99.6153 63.1526 99.6153 63.084C99.583 60.3745 99.1648 45.5829 98.8727 41.1663C98.742 39.2129 98.1454 38 97.3105 38C96.6386 38 95.6362 38.9042 95.0073 41.4516C93.4067 47.9401 89.9934 62.3591 88.5266 69.6847C88.4835 69.8858 88.2606 69.8843 88.219 69.6847C88.0545 68.9349 87.9085 68.0868 87.7716 67.3712C87.3319 65.1122 86.9536 63.1588 86.2064 62.0863C85.3515 60.8687 84.0907 60.7908 82.5624 61.8181C82.2257 62.0457 81.8997 62.3295 81.5569 62.6303C80.5744 63.4847 79.4658 64.4575 77.6223 64.4575H59.6099L59.1671 66.8801H78.122C80.0593 66.8801 81.8582 65.7483 82.9314 64.9673C83.4772 64.5713 83.854 64.3406 84.1553 64.3406C84.572 64.3406 84.758 64.7693 84.9118 65.4147C84.9887 65.7296 85.0809 66.1661 85.187 66.6712C85.5452 68.344 86.0849 70.9803 86.7691 72.7325C87.0889 73.5495 87.561 74 88.1022 74C88.9325 74 89.7766 73.0054 90.2532 71.4698C90.8928 69.4213 94.7244 52.5827 96.3419 45.5314C96.4095 45.2415 96.4449 45.0778 96.448 45.0653C96.4772 44.9421 96.5571 44.8595 96.654 44.8595C96.7401 44.8595 96.8339 44.9312 96.837 45.0918L96.8385 45.1183C96.9615 52.2538 97.3105 64.7864 97.8364 66.0726C98.1239 66.785 98.5683 67.1623 99.1187 67.1623C99.7583 67.1623 100.526 66.64 101.068 65.8341C101.345 65.4287 101.694 64.8987 102.065 64.3406C102.979 62.9609 104.017 61.4003 104.322 61.0667C104.778 60.5756 105.304 60.5756 106.05 61.0901C106.158 61.1649 106.288 61.26 106.437 61.3691C107.234 61.9538 108.564 62.7597 110.058 63.1776C111.049 63.4519 112.325 63.5112 113.216 63.5112C113.795 63.5112 114.41 63.4878 114.588 63.4753L115 61.2319C114.783 61.2429 114.2 61.26 113.661 61.26Z" fill="#00B0F0"/>
</svg>
