<?xml version="1.0" encoding="utf-8"?>
<svg width="150" height="100" viewBox="0 0 150 100" fill="none" xmlns="http://www.w3.org/2000/svg" xmlns:bx="https://boxy-svg.com"><defs><bx:export><bx:file format="svg"/></bx:export></defs><g fill="none" fill-rule="evenodd" transform="matrix(0.612107, 0, 0, 0.612107, 18.686159, 40.243015)" style=""><g><g><g><path fill="#5BBF21" d="M137.338 3.502c.237 0 .356.081.473.203.067.102.105.232.094.414l-.014.115-.197 1.018c-.04.204-.158.367-.316.489-.127.098-.278.17-.435.194l-.118.01h-1.46c-.948 0-1.698.244-2.21.773-.504.481-.843 1.164-1.05 2.05l-.057.27-.1.489h3.259c.08 0 .158 0 .237-.012l.118-.028c.04 0 .08-.041.12-.041.078-.04.157-.04.236-.082.079-.04.119-.04.157-.08.08 0 .12-.042.198-.082.079 0 .119-.041.158-.082.027-.027.07-.054.108-.081l.05-.041-.395 1.954c-.148.687-.747 1.231-1.407 1.297l-.132.006h-3.269l-2.93 14.25c-.294 1.596-.933 2.838-1.82 3.758l-.194.192c-.962.878-2.167 1.362-3.68 1.42l-.306.005h-1.935c-.236 0-.355-.082-.473-.204-.063-.13-.101-.26-.094-.411l.015-.118.197-1.018c.04-.204.157-.366.316-.489.126-.097.277-.169.434-.194l.118-.01h1.46c.948 0 1.7-.243 2.212-.773.502-.48.841-1.164 1.048-2.049l.057-.271 2.896-14.088h-1.87c-.413 0-.858.156-1.228.413l-.153.117.395-1.955c.148-.687.747-1.23 1.407-1.296l.133-.007h1.877l.135-.651c.295-1.596.934-2.837 1.82-3.757l.194-.192c.962-.878 2.168-1.363 3.68-1.42l.306-.005h1.935zm13.7 5.74c1.895 0 3.394.53 4.421 1.547 1.027 1.018 1.54 2.403 1.54 4.113 0 .529-.04 1.018-.119 1.465-.198 1.018-.394 1.914-.592 2.688-.513 2.198-1.5 3.908-2.921 5.211-1.422 1.303-3.238 1.914-5.487 1.914-1.895 0-3.357-.53-4.383-1.507-1.065-1.018-1.578-2.361-1.578-4.071 0-.448.039-.937.158-1.547.118-.855.276-1.751.552-2.688.514-2.198 1.5-3.908 2.922-5.211 1.42-1.303 3.236-1.914 5.487-1.914zM184 8.998l-.395 1.954c-.148.687-.747 1.231-1.407 1.297l-.133.006h-1.067l-6.393 12.866c-.158.285-.316.489-.474.61-.157.123-.395.204-.67.204h-1.186c-.513 0-.828-.244-.868-.773l-1.302-11.4-5.843 11.4c-.276.53-.671.773-1.184.773h-1.145c-.316-.08-.514-.122-.631-.244-.12-.122-.198-.326-.238-.61l-1.162-12.826h-1.246c-.414 0-.859.156-1.228.413l-.154.117.396-1.955c.148-.687.746-1.23 1.406-1.296l.133-.007h4.42c.12 0 .238 0 .356-.04.04 0 .079-.041.119-.041.079-.04.158-.04.237-.082.078-.04.118-.04.157-.08.08 0 .12-.042.198-.082.079 0 .119-.041.158-.082.026-.027.07-.054.108-.081l.05-.041-.395 1.954c-.148.687-.747 1.231-1.407 1.297l-.132.006h-.607l.804 9.772 6.08-11.848c.237-.448.552-.652.947-.652h1.105c.434 0 .672.204.71.652l1.265 11.848 4.816-9.772h-.555c-.414 0-.858.156-1.228.413l-.153.117.395-1.955c.148-.687.747-1.23 1.407-1.296l.133-.007h4.421c.118 0 .237 0 .356-.04.039 0 .079-.041.117-.041.08-.04.158-.04.237-.082.08-.04.119-.04.159-.08.079 0 .118-.042.196-.082.08 0 .12-.041.16-.082.038-.04.117-.081.157-.122zm-41.963-5.496c.197 0 .355.081.474.203.118.122.158.326.118.53l-4.342 20.886c-.04.204-.119.367-.277.53-.157.122-.315.203-.513.203h-1.342c-.197 0-.355-.04-.474-.204-.119-.122-.158-.325-.119-.529l4.343-20.887c.04-.203.158-.366.277-.529.157-.122.315-.203.513-.203h1.342zm8.843 8.061c-1.303 0-2.487.448-3.474 1.303-.988.855-1.659 2.076-2.014 3.664-.237.774-.394 1.588-.513 2.402-.079.489-.118.978-.118 1.466 0 2.321 1.105 3.461 3.277 3.461 1.303-.04 2.447-.448 3.434-1.303.986-.855 1.658-2.076 2.053-3.664.078-.326.236-1.14.474-2.402.118-.57.158-1.1.158-1.466 0-1.14-.277-1.995-.83-2.565-.552-.57-1.382-.896-2.447-.896zm-59.018-8.02c.198 0 .355.04.474.203.118.122.158.285.118.529L92.1 5.904c-.04.203-.118.407-.276.529-.158.122-.356.203-.553.203h-1.816c-.197 0-.355-.081-.474-.203-.118-.163-.158-.326-.118-.53l.355-1.628c.04-.204.119-.366.276-.53.158-.121.356-.203.553-.203z" transform="translate(-140 -100) translate(100 80) translate(40 20)"/><path fill="#003F87" d="M79.427 9.242c1.816 0 3.158.53 4.027 1.588.868 1.059 1.342 2.484 1.342 4.194 0 .488-.04 1.1-.158 1.75-.08.53-.198 1.14-.395 1.873-.513 2.2-1.46 3.99-2.724 5.416-1.303 1.425-3.04 2.117-5.171 2.117-2.25 0-3.75-.815-4.58-2.403l-1.54 7.248c-.039.203-.157.366-.275.53-.158.121-.316.203-.514.203h-1.381c-.237.04-.395-.041-.513-.163-.119-.122-.119-.326-.08-.53l4.343-20.805c.04-.203.118-.366.276-.53.158-.121.316-.203.553-.203H73.9c.237 0 .395.082.474.204.118.122.118.326.079.53l-.276 1.383c.71-.814 1.46-1.384 2.25-1.79.79-.408 1.776-.612 3-.612zm31.818-.081c1.224 0 2.171.203 2.842.61.672.408 1.224.978 1.62 1.71l.276-1.302c.039-.204.118-.367.275-.53.16-.122.317-.203.513-.203h1.303c.198 0 .356.081.475.203.117.123.117.326.078.53l-3.04 14.901c-.038.204-.118.367-.276.53-.158.122-.316.203-.552.203h-1.303c-.198 0-.355-.081-.474-.203-.118-.122-.158-.326-.118-.53l.316-1.343c-.75.814-1.5 1.384-2.211 1.791-.75.407-1.698.611-2.882.611-1.776.04-3.119-.489-3.948-1.547-.829-1.059-1.263-2.402-1.263-4.112 0-.53.04-1.181.158-1.873.079-.53.197-1.14.395-1.873.552-2.24 1.46-4.03 2.684-5.456 1.263-1.384 2.96-2.117 5.132-2.117zm-49.623 0c1.224 0 2.172.203 2.843.61.67.408 1.223.978 1.618 1.71l.277-1.302c.039-.204.157-.367.276-.53.158-.122.316-.203.553-.203h1.302c.198 0 .356.081.474.203.118.123.118.326.079.53l-3.04 14.901c-.04.204-.118.367-.276.53-.158.122-.316.203-.553.203h-1.302c-.198 0-.356-.081-.474-.203-.119-.122-.158-.326-.119-.53l.316-1.343c-.75.814-1.5 1.384-2.21 1.791-.75.407-1.698.611-2.882.611-1.816.04-3.158-.489-3.987-1.547-.83-1.059-1.264-2.402-1.264-4.112 0-.53.04-1.181.158-1.873.08-.53.198-1.14.395-1.873.553-2.24 1.46-4.03 2.684-5.456 1.264-1.384 2.961-2.117 5.132-2.117zM46.07 3.5c1.619 0 3 .245 4.106.774 1.105.53 1.934 1.222 2.487 2.117.553.896.829 1.873.829 2.972 0 .367-.04.774-.08 1.14-.078.408-.275.611-.591.611H51.2c-.473 0-.71-.244-.71-.692.04-.163.04-.326.04-.61 0-2.525-1.5-3.787-4.54-3.787-1.738 0-3.198.488-4.383 1.506-1.184.977-2.052 2.525-2.526 4.601-.434 1.75-.79 3.502-1.105 5.293-.119.692-.198 1.344-.198 1.914 0 2.768 1.421 4.153 4.303 4.153 1.54 0 2.842-.326 3.948-.978 1.105-.651 1.974-1.791 2.645-3.379.118-.244.237-.448.355-.53.118-.121.316-.162.513-.162h1.619c.197 0 .316.04.434.163.118.122.118.285.079.448-.553 1.995-1.619 3.664-3.158 5.008-1.54 1.343-3.71 1.995-6.474 1.995-2.448.122-4.224-.448-5.448-1.629-1.224-1.18-1.816-2.769-1.816-4.804 0-.611.079-1.303.197-1.995.237-1.507.632-3.38 1.145-5.578.632-2.647 1.777-4.764 3.435-6.27 1.618-1.507 3.79-2.28 6.513-2.28zm44.372 6.026c.197 0 .355.041.474.204.078.163.118.326.078.53l-3.079 14.9c-.04.204-.118.408-.276.53-.158.122-.355.204-.553.204h-1.342c-.197 0-.355-.082-.474-.204-.118-.163-.157-.326-.118-.53l3.08-14.9c.039-.204.157-.408.315-.53.158-.122.355-.204.553-.204zm9-6.025c.237 0 .395.081.474.203.119.122.119.326.08.53l-1.106 5.252h3.79c.197 0 .355.081.473.203.119.122.119.285.08.53l-.198 1.017c-.04.204-.119.367-.277.489-.157.122-.315.203-.552.203h-3.79l-1.697 8.225c-.198.855-.277 1.466-.277 1.873 0 .448.119.814.395 1.018.237.244.71.325 1.342.325h2.014c.197 0 .355.082.434.204.079.122.118.326.079.53l-.198 1.017c-.04.204-.118.367-.276.53-.158.122-.316.203-.553.203h-1.776c-1.46 0-2.527-.285-3.158-.855-.632-.57-.948-1.425-.948-2.524 0-.611.08-1.303.237-2.118l1.737-8.428h-2.368c-.198 0-.356-.08-.474-.203-.119-.122-.158-.285-.119-.489l.198-1.018c.04-.203.158-.366.316-.529.158-.122.355-.203.552-.203h2.369l1.105-5.253c.04-.203.119-.366.277-.529.157-.122.315-.203.513-.203h1.302zm25.423 0c.198 0 .355.081.474.203.118.122.158.326.118.53l-4.342 20.886c-.04.204-.119.367-.276.53-.158.122-.316.203-.553.203h-1.342c-.237 0-.394-.04-.473-.204-.12-.122-.16-.325-.12-.529l4.344-20.887c.039-.203.117-.366.275-.529.158-.122.317-.203.553-.203h1.342zm-13.382 8.183c-1.342 0-2.487.489-3.355 1.425-.869.937-1.5 2.199-1.935 3.705-.197.652-.316 1.262-.355 1.832-.119.693-.158 1.303-.158 1.792 0 2.24.987 3.338 2.96 3.338 1.461-.04 2.646-.529 3.633-1.547.947-.977 1.618-2.158 1.894-3.46.276-1.1.435-1.914.514-2.403.079-.529.118-.936.118-1.18 0-1.018-.277-1.873-.79-2.525-.513-.651-1.381-.977-2.526-.977zm-49.623 0c-1.342 0-2.487.489-3.355 1.425-.869.937-1.5 2.199-1.935 3.705-.197.652-.315 1.262-.355 1.832-.118.693-.158 1.303-.158 1.792 0 2.24.987 3.338 2.96 3.338 1.462-.04 2.685-.529 3.633-1.547.947-.977 1.618-2.158 1.895-3.46.276-1.1.434-1.914.513-2.403.079-.529.118-.936.118-1.18 0-1.018-.276-1.873-.79-2.525-.512-.651-1.381-.977-2.526-.977zm16.976-.04c-.987 0-1.856.244-2.645.692-.79.488-1.421 1.099-1.934 1.832-.514.773-.83 1.547-1.066 2.361-.158.652-.316 1.466-.514 2.443-.079.489-.118.896-.118 1.14 0 1.018.276 1.873.83 2.565.552.692 1.42 1.018 2.604 1.018 1.461.04 2.606-.448 3.474-1.425.908-.977 1.54-2.199 1.974-3.664.158-.448.277-1.059.356-1.832.079-.489.118-1.018.118-1.588 0-2.362-1.026-3.543-3.08-3.543z" transform="translate(-140 -100) translate(100 80) translate(40 20)"/><g><path fill="#008C82" d="M5.764 17.06l7.855-4.683 7.856-4.682c1.737-1.018 3.83-1.344 5.803-1.018-.908-1.873-2.25-3.501-3.947-4.641-1.066.163-2.132.488-3.08 1.058l-7.816 4.642-7.895 4.682c-1.382.855-2.96 1.18-4.54 1.14V18.078c1.974.325 4.027 0 5.764-1.018z" transform="translate(-140 -100) translate(100 80) translate(40 20)"/><path fill="#3D8E33" d="M4.54 12.418l7.856-4.682 7.895-4.682c.947-.57 1.974-.896 3.08-1.059C21.514.733 19.343 0 16.974 0H16.5l-5.29 3.135-7.856 4.682c-.907.53-1.934.896-3 1.059C.118 9.812 0 10.789 0 11.807v1.751c1.58.04 3.158-.285 4.54-1.14z" transform="translate(-140 -100) translate(100 80) translate(40 20)"/><path fill="#5BBF21" d="M11.21 3.135L16.5 0h-5.052C6.118 0 1.618 3.786.355 8.876c1.066-.163 2.053-.489 3-1.059l7.856-4.682z" transform="translate(-140 -100) translate(100 80) translate(40 20)"/><path fill="#005BBF" d="M22.7 12.296l-7.857 4.682-7.895 4.682c-1.737 1.018-3.83 1.344-5.803 1.018.908 1.873 2.25 3.502 3.948 4.642 1.066-.163 2.131-.489 3.079-1.059l7.856-4.682 7.856-4.682c1.381-.815 2.96-1.181 4.54-1.14v-3.95-.57c-1.935-.285-4.027.041-5.725 1.059z" transform="translate(-140 -100) translate(100 80) translate(40 20)"/><path fill="#008ED6" d="M21.475 7.654l-7.856 4.723-7.855 4.682C4.027 18.077 1.974 18.403 0 18.077c.079 1.629.474 3.217 1.145 4.601 1.974.326 4.066.04 5.803-1.018l7.856-4.682 7.856-4.682c1.736-1.018 3.79-1.344 5.724-1.018-.08-1.629-.474-3.217-1.145-4.6-1.935-.327-4.027-.042-5.764.976z" transform="translate(-140 -100) translate(100 80) translate(40 20)"/><path fill="#002649" d="M27.988 20.48c-1.026.163-2.013.488-2.92 1.017L17.21 26.18l-5.25 3.135h5.013c5.33 0 9.83-3.787 11.093-8.876 0 .04-.04.04-.079.04.04 0 .04 0 0 0z" transform="translate(-140 -100) translate(100 80) translate(40 20)"/><path fill="#003F87" d="M23.883 16.897l-7.856 4.682-7.895 4.682c-.948.57-1.974.896-3.08 1.059 1.856 1.262 4.067 1.995 6.396 1.995h.473l5.25-3.135 7.857-4.683c.908-.529 1.894-.854 2.92-1.017h.04c.237-.937.356-1.955.356-2.973v-1.75c-1.5-.041-3.08.325-4.461 1.14z" transform="translate(-140 -100) translate(100 80) translate(40 20)"/><path fill="#FFF" fill-rule="nonzero" d="M14.133 3.868c.197 0 .434.04.631.04h.277c.079.042.197.042.276.042h.04c.079 0 .197.04.315.04.08.041.119.041.158.041.08 0 .158.04.237.04.08 0 .119.041.158.041.08 0 .158.041.237.041h.079c.079.04.197.04.276.082.04.04.04.04.08.04.078.041.197.041.276.082.039.04.039.04.079.04.078 0 .197.041.276.082.04.04.04.04.079.04.079.041.197.082.276.123.04 0 .04.04.08.04.117.041.196.082.275.123.04 0 .04.04.08.04.078.041.197.082.276.122.04 0 .04.041.079.041.118.04.197.082.276.122l.04.041c.078.04.197.122.276.163h.04c.078.04.197.122.276.163.118.081.197.122.315.203.119.082.237.122.316.204.592.448 1.185.977 1.698 1.547.71.814 1.302 1.71 1.776 2.728.04.081.04.122.08.163.078.122.118.285.197.448l.236.61h-2.17c-.356 0-.672-.162-.948-.407l-.023-.023-.017-.017c0-.041-.04-.041-.04-.082l-.078-.081c-.04-.041-.04-.082-.08-.122 0-.041-.039-.041-.039-.082-.079-.122-.197-.285-.276-.407v-.04c-.079-.082-.158-.204-.237-.286 0-.04-.04-.04-.04-.081-.078-.082-.157-.204-.236-.285 0-.04 0-.04-.04-.082-.079-.122-.158-.203-.236-.285l-.08-.081-.236-.244-.08-.082c-.118-.04-.197-.122-.276-.203l-.079-.082c-.118-.081-.197-.122-.276-.203-.04-.041-.079-.041-.118-.082-.119-.04-.198-.122-.277-.163-.04-.04-.079-.04-.118-.081-.079-.081-.197-.122-.276-.163-.04-.04-.08-.04-.119-.081-.079-.041-.197-.082-.276-.122-.08-.041-.119-.041-.158-.082-.079-.04-.197-.081-.276-.122-.08-.04-.119-.082-.158-.082-.08-.04-.198-.08-.277-.122-.079 0-.118-.04-.158-.04-.078-.041-.197-.041-.276-.082-.04 0-.118-.04-.158-.04-.079 0-.158-.041-.237-.041-.079 0-.118-.04-.197-.04-.118 0-.197-.042-.276-.042-.04 0-.119-.04-.198-.04-.118-.041-.197-.041-.316-.041h-.631c-4.264 0-7.698 3.583-7.698 7.94 0 4.397 3.434 7.939 7.698 7.939h.631c.119 0 .198-.041.316-.041.04 0 .119-.04.198-.04.118 0 .197-.041.276-.041.079 0 .118-.041.197-.041.08 0 .158 0 .237-.04.04 0 .119-.042.158-.042.08-.04.198-.04.276-.081.08 0 .119-.04.158-.04.08-.041.198-.082.277-.123.079-.04.118-.04.158-.081.079-.041.197-.082.276-.122.079-.041.118-.041.158-.082.118-.04.197-.081.276-.122.04-.04.08-.04.119-.081.118-.041.197-.123.276-.163.04-.041.079-.041.118-.082.119-.04.198-.081.277-.163.04-.04.079-.04.118-.081.119-.081.197-.122.276-.204 0-.04.04-.04.08-.081.118-.04.197-.122.276-.204l.079-.081.237-.244.079-.082c.078-.122.157-.203.236-.285 0-.04.04-.04.04-.081.079-.082.158-.204.237-.285 0-.04.04-.04.04-.082.078-.081.157-.162.236-.285v-.04c.119-.122.197-.245.276-.407 0-.041.04-.041.04-.082 0-.04.04-.081.079-.122v-.04l.079-.082s0-.04.04-.04l.034-.036.005-.006c.276-.244.592-.407.947-.407h1.263l.908-.04-.236.61c-.08.163-.119.285-.198.448-.04.082-.04.122-.079.163-.434.977-1.066 1.914-1.776 2.728-.513.57-1.066 1.1-1.698 1.547-.118.081-.197.122-.316.204-.118.081-.197.122-.315.203-.08.04-.198.122-.277.163h-.04c-.078.081-.197.122-.276.163l-.039.04c-.079.041-.197.082-.276.123-.04 0-.04.04-.08.04-.078.041-.197.082-.276.123-.04 0-.04.04-.079.04-.118.041-.197.082-.276.122-.04 0-.04.041-.079.041-.079.04-.197.082-.276.122-.04.041-.04.041-.08.041-.078 0-.197.04-.275.082-.04.04-.04.04-.08.04-.078.04-.197.04-.276.082-.04.04-.04.04-.079.04-.079.041-.197.041-.276.082-.04.04-.04.04-.08.04-.078 0-.157.041-.236.041-.079.04-.118.04-.158.04-.079 0-.158.042-.237.042-.079.04-.118.04-.158.04-.079 0-.197.041-.315.041h-.04c-.079.04-.197.04-.276.04h-.277c-.197.041-.434.041-.631.041-.553 0-1.105-.04-1.619-.122-5.053-.773-8.921-5.293-8.921-10.708S7.46 4.805 12.514 3.99c.553-.081 1.066-.122 1.619-.122zM12.12 16.775l-.276 1.302c-.119.652-.79 1.181-1.421 1.181h-.08c-.434 0-.907.204-1.263.489l.395-1.792c.119-.651.79-1.18 1.421-1.18h1.224zm7.264-7.085l-.395 1.792c-.158.651-.79 1.18-1.42 1.18h-4.225c-.197 0-.395.163-.473.367l-.08.448h3.12l-.277 1.303c-.158.651-.79 1.18-1.421 1.18h-3.119c-.118 0-.237 0-.355.04-.04 0-.08.042-.119.042-.079 0-.118 0-.197.04-.04.041-.119.041-.158.082l-.05.03c-.038.015-.082.024-.108.051-.079 0-.118.04-.158.082-.079 0-.118.04-.158.081l.237-1.18.434-2.159.158-.773.198-.937v-.081c.118-.651.79-1.18 1.42-1.18h5.843c.474 0 .908-.204 1.303-.408z" transform="translate(-140 -100) translate(100 80) translate(40 20)"/></g></g></g></g></g></svg>