<?xml version="1.0" encoding="utf-8"?>
<svg xmlns="http://www.w3.org/2000/svg" viewBox="0 0 150 100" xmlns:bx="https://boxy-svg.com" width="150px" height="100px"><defs><bx:export><bx:file format="svg"/></bx:export></defs><path d="M 68.49 54.768 L 62.225 54.768 L 62.225 51.756 L 68.639 51.756 C 69.444 51.83 70.048 52.479 70.048 53.247 C 70.056 54.082 69.37 54.768 68.49 54.768 Z M 62.233 44.918 L 68.877 44.918 C 69.601 45.03 70.175 45.641 70.175 46.372 C 70.175 47.103 69.601 47.78 68.84 47.863 L 62.309 47.863 L 62.233 44.918 Z M 71.546 49.69 C 73.955 48.93 74.374 47.021 74.374 45.455 C 74.374 43.047 72.613 40.988 67.387 40.988 L 57.61 40.988 L 57.61 58.929 L 67.349 58.929 C 72.621 58.929 74.566 56.334 74.566 53.776 C 74.559 50.682 71.546 49.69 71.546 49.69 Z" style=""/><path d="M 96.437 41.025 L 112.932 41.025 L 112.932 44.918 L 101.024 44.918 L 101.024 47.818 L 111.753 47.818 L 111.753 51.748 L 101.024 51.748 L 101.024 54.881 L 112.932 54.881 L 112.932 59.003 L 96.437 59.003 L 96.437 41.025 Z" style=""/><path d="M 89.338 46.596 C 89.264 47.169 88.653 47.818 87.848 47.818 L 81.398 47.818 L 81.398 44.955 L 87.848 44.955 C 88.608 44.955 89.219 45.492 89.338 46.215 L 89.338 46.596 Z M 86.819 41.025 L 76.857 41.025 L 76.857 59.011 L 81.435 59.011 L 81.435 51.756 L 86.475 51.756 C 87.929 51.793 89.033 52.903 89.033 54.313 L 89.033 59.011 L 93.537 59.011 L 93.537 53.209 C 93.537 50.54 90.823 49.734 90.823 49.734 C 90.823 49.734 93.612 48.93 93.612 45.768 C 93.575 41.823 90.1 41.025 86.819 41.025 Z" style=""/><path d="M 54.635 54.65 C 54.561 54.65 48.371 54.761 46.238 54.574 C 42.801 54.269 41.579 51.822 41.579 49.839 C 41.579 47.356 43.338 45.522 46.082 45.179 C 47.38 45.03 54.523 45.104 54.597 45.104 L 54.747 45.104 L 54.747 41.025 L 46.499 41.025 C 45.583 41.062 44.091 41.174 42.57 41.749 C 41.161 42.397 39.856 43.389 38.902 44.612 C 37.716 46.178 37.067 48.012 37.067 49.958 C 37.067 50.57 37.104 51.182 37.217 51.756 C 37.79 54.47 39.662 56.721 42.332 57.937 C 43.248 58.317 44.621 58.779 47.447 58.929 L 48.975 58.967 L 54.777 58.967 L 54.777 54.65 L 54.635 54.65 Z" style=""/></svg>