<?xml version="1.0" encoding="utf-8"?>
<svg xmlns="http://www.w3.org/2000/svg" viewBox="0 0 150 100" xmlns:bx="https://boxy-svg.com" width="150px" height="100px"><defs><bx:export><bx:file format="svg" excluded="true"/><bx:file format="svg" path="Untitled 2.svg" excluded="true"/><bx:file format="svg" path="Untitled 3.svg" excluded="true"/><bx:file format="svg" path="Untitled 4.svg"/></bx:export></defs><path d="M 48.903 53.744 C 49.184 53.858 49.603 53.93 50.155 53.965 L 50.155 54.201 L 43.91 54.201 L 43.91 53.965 C 44.462 53.93 44.881 53.858 45.163 53.744 C 45.445 53.632 45.64 53.452 45.746 53.202 C 45.853 52.954 45.907 52.587 45.907 52.102 L 45.907 44.552 L 45.856 44.552 L 41.574 54.422 L 41.524 54.422 L 36.935 44.587 L 36.885 44.587 L 36.885 52.102 C 36.885 52.587 36.941 52.954 37.055 53.202 C 37.167 53.451 37.362 53.631 37.639 53.744 C 37.914 53.858 38.33 53.93 38.882 53.965 L 38.882 54.201 L 34.117 54.201 L 34.117 53.965 C 34.669 53.93 35.085 53.858 35.361 53.744 C 35.636 53.632 35.832 53.452 35.945 53.202 C 36.057 52.954 36.114 52.587 36.114 52.102 L 36.114 44.536 C 36.114 44.05 36.058 43.684 35.945 43.436 C 35.831 43.187 35.636 43.006 35.361 42.893 C 35.084 42.781 34.669 42.707 34.117 42.672 L 34.117 42.436 L 38.392 42.436 L 42.296 50.96 L 46.082 42.436 L 50.155 42.436 L 50.155 42.672 C 49.603 42.707 49.184 42.781 48.903 42.893 C 48.621 43.006 48.424 43.189 48.31 43.442 C 48.196 43.697 48.141 44.061 48.141 44.536 L 48.141 52.102 C 48.141 52.587 48.196 52.954 48.31 53.202 C 48.424 53.452 48.621 53.631 48.903 53.744 Z M 57.389 48.04 C 57.739 48.683 57.913 49.411 57.913 50.223 C 57.913 51.036 57.739 51.764 57.389 52.407 C 57.039 53.05 56.552 53.547 55.926 53.896 C 55.299 54.246 54.585 54.422 53.784 54.422 C 52.982 54.422 52.272 54.246 51.651 53.896 C 51.03 53.547 50.542 53.05 50.187 52.407 C 49.831 51.764 49.654 51.036 49.654 50.223 C 49.654 49.411 49.831 48.683 50.187 48.04 C 50.543 47.397 51.03 46.9 51.651 46.551 C 52.272 46.2 52.982 46.025 53.784 46.025 C 54.585 46.025 55.299 46.2 55.926 46.551 C 56.552 46.9 57.039 47.397 57.389 48.04 Z M 55.696 50.223 C 55.696 49.422 55.62 48.734 55.468 48.158 C 55.315 47.582 55.094 47.146 54.808 46.845 C 54.52 46.547 54.177 46.397 53.784 46.397 C 53.389 46.397 53.047 46.546 52.759 46.845 C 52.473 47.146 52.253 47.582 52.099 48.158 C 51.947 48.734 51.871 49.422 51.871 50.223 C 51.871 51.025 51.947 51.712 52.099 52.289 C 52.253 52.864 52.473 53.301 52.759 53.6 C 53.047 53.901 53.389 54.049 53.784 54.049 C 54.179 54.049 54.52 53.901 54.808 53.6 C 55.094 53.302 55.315 52.864 55.468 52.289 C 55.62 51.712 55.696 51.025 55.696 50.223 Z M 63.653 47.837 C 63.946 47.837 64.212 47.887 64.449 47.99 L 64.449 46.127 C 64.302 46.059 64.128 46.026 63.925 46.026 C 63.405 46.026 62.946 46.255 62.545 46.712 C 62.144 47.168 61.832 47.694 61.542 48.74 L 61.505 48.74 L 61.505 46.094 L 61.437 46.094 L 58.085 47.059 L 58.085 47.279 C 58.469 47.279 58.765 47.316 58.975 47.389 C 59.184 47.462 59.332 47.581 59.423 47.744 C 59.514 47.908 59.559 48.13 59.559 48.413 L 59.559 52.612 C 59.559 52.962 59.525 53.221 59.458 53.391 C 59.39 53.561 59.266 53.687 59.085 53.772 C 58.905 53.855 58.617 53.92 58.222 53.966 L 58.222 54.203 L 62.928 54.203 L 62.928 53.966 C 62.533 53.932 62.237 53.872 62.039 53.788 C 61.841 53.704 61.703 53.574 61.625 53.398 C 61.546 53.223 61.506 52.961 61.506 52.612 L 61.506 49.285 C 61.86 48.451 62.641 47.837 63.653 47.837 Z M 88.354 53.381 C 88.286 53.205 88.253 52.944 88.253 52.594 L 88.253 48.734 C 88.253 46.92 87.249 46.025 85.935 46.025 C 84.619 46.025 83.773 46.956 83.411 47.453 L 83.378 47.453 L 83.378 46.094 L 83.311 46.094 L 79.959 47.059 L 79.959 47.279 C 80.332 47.279 80.624 47.316 80.839 47.389 C 81.054 47.462 81.206 47.577 81.296 47.735 C 81.385 47.894 81.432 48.114 81.432 48.395 L 81.432 52.593 C 81.432 52.942 81.398 53.205 81.33 53.38 C 81.263 53.554 81.138 53.684 80.958 53.769 C 80.777 53.853 80.49 53.918 80.094 53.963 L 80.094 54.2 L 84.496 54.2 L 84.496 53.963 C 84.192 53.918 83.957 53.853 83.793 53.769 C 83.63 53.685 83.52 53.554 83.463 53.38 C 83.407 53.204 83.379 52.942 83.379 52.593 L 83.379 48.067 C 83.769 47.595 84.227 47.142 84.971 47.142 C 85.994 47.142 86.308 47.913 86.308 48.784 L 86.308 52.593 C 86.308 52.942 86.276 53.205 86.215 53.38 C 86.153 53.554 86.045 53.684 85.892 53.769 C 85.74 53.853 85.507 53.918 85.19 53.963 L 85.19 54.2 L 89.541 54.2 L 89.541 53.963 C 89.168 53.918 88.894 53.853 88.721 53.769 C 88.542 53.685 88.423 53.556 88.354 53.381 Z M 131.126 51.865 C 130.752 52.681 129.71 54.422 127.587 54.422 C 125.572 54.422 123.898 52.773 123.898 50.291 C 123.898 49.512 124.068 48.796 124.405 48.142 C 124.744 47.487 125.203 46.971 125.785 46.593 C 126.366 46.215 127.006 46.026 127.707 46.026 C 129.739 46.026 130.753 47.459 130.753 48.952 L 130.753 49.288 L 125.71 49.288 C 125.71 49.318 125.709 49.348 125.709 49.378 C 125.709 51.174 126.508 52.899 128.518 52.899 C 130.047 52.899 130.687 52.053 130.938 51.749 L 131.126 51.865 Z M 125.745 48.717 L 128.908 48.717 C 128.886 47.489 128.52 46.419 127.52 46.415 C 126.582 46.411 125.901 47.286 125.745 48.717 Z M 108.674 53.381 C 108.607 53.205 108.574 52.944 108.574 52.594 L 108.574 48.734 C 108.574 48.146 108.474 47.651 108.277 47.244 C 108.079 46.837 107.805 46.533 107.457 46.33 C 107.106 46.127 106.705 46.026 106.254 46.026 C 105.734 46.026 105.275 46.159 104.874 46.424 C 104.474 46.689 104.093 47.07 103.732 47.566 L 103.699 47.566 L 103.699 42.041 L 103.631 42.041 L 100.279 43.006 L 100.279 43.227 C 100.651 43.227 100.944 43.263 101.159 43.336 C 101.373 43.409 101.526 43.525 101.616 43.684 C 101.706 43.841 101.751 44.062 101.751 44.344 L 101.751 52.593 C 101.751 52.942 101.718 53.205 101.65 53.38 C 101.583 53.554 101.459 53.684 101.278 53.769 C 101.098 53.853 100.81 53.918 100.415 53.963 L 100.415 54.2 L 104.815 54.2 L 104.815 53.963 C 104.512 53.918 104.278 53.853 104.113 53.769 C 103.95 53.685 103.839 53.554 103.783 53.38 C 103.727 53.204 103.7 52.942 103.7 52.593 L 103.7 48.067 C 104.089 47.595 104.547 47.142 105.291 47.142 C 105.709 47.142 106.036 47.28 106.273 47.556 C 106.509 47.832 106.629 48.242 106.629 48.783 L 106.629 52.593 C 106.629 52.942 106.598 53.205 106.536 53.38 C 106.474 53.554 106.367 53.684 106.214 53.769 C 106.061 53.853 105.828 53.918 105.511 53.963 L 105.511 54.2 L 109.862 54.2 L 109.862 53.963 C 109.489 53.918 109.216 53.853 109.041 53.769 C 108.862 53.685 108.743 53.556 108.674 53.381 Z M 96.379 53.47 C 93.882 53.487 91.903 51.48 91.903 48.224 C 91.903 44.783 93.746 42.776 95.856 42.776 C 97.965 42.776 98.87 44.676 99.332 46.542 L 99.669 46.537 L 99.669 43.102 C 98.877 42.663 97.577 42.168 95.688 42.168 C 92.045 42.168 89.294 44.834 89.294 48.393 C 89.294 51.784 91.589 54.466 95.536 54.449 C 97.713 54.433 99.23 53.134 99.955 52.138 L 99.72 51.886 C 99.23 52.442 98.251 53.454 96.379 53.47 Z M 121.512 49.495 L 120.344 48.937 C 119.569 48.59 119.125 48.13 119.125 47.566 C 119.125 46.926 119.71 46.489 120.53 46.489 C 121.724 46.489 122.342 47.149 122.598 48.615 L 122.951 48.615 L 122.951 46.483 C 122.6 46.347 121.675 46.026 120.734 46.026 C 118.871 46.026 117.738 47.197 117.738 48.548 C 117.738 49.068 117.876 49.521 118.152 49.911 C 118.428 50.301 118.844 50.636 119.395 50.918 L 120.615 51.527 C 121.449 51.907 121.783 52.283 121.783 52.847 C 121.783 53.471 121.28 53.96 120.327 53.96 C 118.934 53.96 118.272 52.639 118.09 51.577 L 117.738 51.577 L 117.738 53.761 C 118.269 54.105 119.267 54.422 120.192 54.422 C 121.978 54.422 123.223 53.329 123.223 51.781 C 123.221 50.666 122.626 49.969 121.512 49.495 Z M 28.979 49.073 L 28.979 52.102 C 28.979 52.576 29.047 52.94 29.183 53.195 C 29.318 53.448 29.544 53.632 29.859 53.744 C 30.175 53.858 30.655 53.93 31.298 53.965 L 31.298 54.201 L 24.748 54.201 L 24.748 53.965 C 25.299 53.93 25.715 53.858 25.991 53.744 C 26.267 53.632 26.462 53.452 26.575 53.202 C 26.687 52.954 26.744 52.587 26.744 52.102 L 26.744 44.587 C 26.744 43.039 26.045 42.724 24.983 42.724 C 23.818 42.724 23.105 43.038 23.105 44.537 L 23.105 52.945 C 23.105 54.846 21.87 56.653 19.432 56.653 C 19.243 56.653 19.057 56.642 18.873 56.621 L 18.873 56.417 C 19.452 56.383 19.922 56.186 20.278 55.823 C 20.673 55.422 20.871 54.766 20.871 53.851 L 20.871 44.536 C 20.871 44.062 20.815 43.697 20.702 43.442 C 20.588 43.189 20.391 43.006 20.109 42.893 C 19.827 42.781 19.416 42.707 18.873 42.672 L 18.873 42.436 L 30.441 42.436 C 33.072 42.436 34.701 43.752 34.701 45.738 C 34.701 48.011 32.468 49.073 30.473 49.073 L 28.979 49.073 Z M 28.979 48.618 L 29.786 48.618 C 31.159 48.618 32.313 47.814 32.313 45.755 C 32.313 43.237 30.651 42.891 29.828 42.891 L 28.979 42.891 L 28.979 48.618 Z M 79.276 53.526 C 79.556 53.526 79.802 53.403 79.957 53.298 L 79.957 53.7 C 79.646 53.991 79.066 54.416 78.195 54.416 C 77.462 54.416 76.844 53.95 76.681 53.239 L 76.637 53.239 C 76.351 53.781 75.476 54.464 74.522 54.464 C 73.377 54.464 72.534 53.701 72.534 52.54 C 72.534 51.634 73.155 51.029 74.188 50.664 L 76.637 49.781 L 76.637 48.644 C 76.637 47.609 75.89 47.133 75.079 47.133 C 74.252 47.133 73.489 47.483 72.694 48.294 L 72.456 48.071 C 73.155 46.942 74.269 46.02 75.875 46.02 C 77.402 46.02 78.627 47.021 78.611 48.644 L 78.58 52.699 C 78.578 53.27 78.816 53.526 79.276 53.526 Z M 76.637 50.311 L 75.652 50.711 C 74.888 51.012 74.396 51.363 74.396 52.172 C 74.396 52.857 74.872 53.333 75.54 53.333 C 75.891 53.333 76.399 53.064 76.638 52.761 L 76.638 50.311 L 76.637 50.311 Z M 116.647 53.526 C 116.927 53.526 117.172 53.402 117.329 53.298 L 117.329 53.7 C 117.017 53.991 116.438 54.417 115.565 54.417 C 114.831 54.417 114.215 53.951 114.05 53.24 L 114.007 53.24 C 113.721 53.782 112.847 54.465 111.893 54.465 C 110.747 54.465 109.905 53.702 109.905 52.542 C 109.905 51.635 110.525 51.03 111.558 50.664 L 114.007 49.782 L 114.007 48.644 C 114.007 47.609 113.26 47.133 112.449 47.133 C 111.622 47.133 110.859 47.483 110.064 48.294 L 109.825 48.071 C 110.524 46.942 111.638 46.02 113.244 46.02 C 114.77 46.02 115.996 47.021 115.98 48.644 L 115.948 52.699 C 115.947 53.27 116.185 53.526 116.647 53.526 Z M 114.006 50.311 L 113.02 50.711 C 112.257 51.012 111.765 51.363 111.765 52.172 C 111.765 52.857 112.242 53.333 112.909 53.333 C 113.26 53.333 113.768 53.064 114.007 52.761 L 114.007 50.311 L 114.006 50.311 Z M 70.523 46.582 C 71.248 47.147 71.568 47.959 71.568 48.653 C 71.568 50.474 70.011 51.419 68.238 51.419 C 67.772 51.419 67.321 51.353 66.908 51.222 C 66.679 51.398 66.482 51.629 66.482 51.899 C 66.482 52.478 67.427 52.594 67.99 52.626 L 69.912 52.759 C 71.452 52.859 72.429 53.404 72.429 54.779 C 72.429 56.519 70.373 57.959 67.378 57.959 C 65.638 57.959 64.395 57.364 64.395 56.303 C 64.395 55.381 64.904 54.853 66.208 54.227 C 65.355 53.979 65.157 53.47 65.157 52.973 C 65.157 52.293 65.764 51.683 66.587 51.103 C 65.601 50.688 64.909 49.865 64.909 48.65 C 64.909 46.828 66.466 45.884 68.238 45.884 C 69.053 45.884 69.703 46.07 70.202 46.361 C 70.575 45.612 71.309 44.741 72.627 44.741 L 72.627 46.296 C 71.924 46.078 71.065 46.191 70.523 46.582 Z M 65.787 55.576 C 65.787 56.537 66.88 56.968 68.304 56.968 C 69.663 56.968 71.5 56.354 71.5 55.377 C 71.5 54.813 71.186 54.681 70.358 54.615 L 67.029 54.368 C 66.834 54.353 66.658 54.331 66.5 54.301 C 66.021 54.674 65.787 55.058 65.787 55.576 Z M 69.514 48.654 C 69.514 47.096 69.001 46.352 68.238 46.352 C 67.476 46.352 66.963 47.096 66.963 48.654 C 66.963 50.21 67.476 50.956 68.238 50.956 C 69.001 50.956 69.514 50.21 69.514 48.654 Z" style=""/></svg>