<svg width="150" height="100" viewBox="0 0 150 100" fill="none" xmlns="http://www.w3.org/2000/svg">
<path fill-rule="evenodd" clip-rule="evenodd" d="M74.0978 41.2745H70.4793V58.9699H74.0978V41.2745ZM77.4156 41.3036V44.6214H80.4621V54.6045C80.4621 55.9818 80.8402 57.0881 81.5679 57.9223C82.2955 58.7859 83.2657 59.2123 84.4881 59.2415C85.7004 59.2707 86.7775 58.9989 87.6897 58.4363L87.7476 58.4071V58.3487L88.6112 54.9823L88.3977 55.118C87.4276 55.71 86.5353 56.001 85.7201 56.001C84.5949 56.001 84.0228 55.3317 84.0228 54.0122V44.6217H87.7186V41.3036H84.0228V35.7738L80.4621 37.6851V41.3036H77.4156ZM94.927 41.2745H91.2793V58.9699H94.927V41.2745ZM68.4032 44.059L68.3254 44.0007C66.6567 41.9732 64.5709 40.9834 62.0678 40.9834C59.4486 40.9834 57.2947 41.7887 55.5677 43.3797C53.7342 45.0581 52.8125 47.3185 52.8125 50.1512C52.8125 52.984 53.7342 55.2254 55.5677 56.9232C57.2655 58.514 59.4483 59.3001 62.0678 59.3001C64.5709 59.3001 66.676 58.3008 68.3254 56.3023L68.4032 56.2439L66.356 53.77L66.2784 53.8474C64.9492 55.1666 63.5232 55.8459 61.9903 55.8459C60.3895 55.8459 59.07 55.3025 58.0224 54.2259C56.9647 53.1683 56.4605 51.8002 56.4605 50.151C56.4605 48.5018 56.9647 47.124 58.0224 46.0474C59.07 44.9995 60.3895 44.4563 61.9903 44.4563C63.523 44.4563 64.9492 45.1354 66.2784 46.4547L66.356 46.5325L68.4032 44.059Z" fill="#36377C"/>
<path fill-rule="evenodd" clip-rule="evenodd" d="M72.2631 38.3641C73.6893 36.909 75.2804 35.803 77.0946 35.0171C78.841 34.2605 80.7034 33.8917 82.6244 33.8917C84.5359 33.8917 86.3981 34.2603 88.1837 35.0171C89.9588 35.803 91.5496 36.909 92.9761 38.3641L93.0344 38.4127H97.1866L97.0315 38.1703C95.3824 35.8516 93.2477 34.0181 90.6867 32.6792C88.1253 31.35 85.4574 30.7001 82.6247 30.7001C79.8211 30.7001 77.1143 31.35 74.5529 32.6792C71.9915 34.0179 69.8573 35.8513 68.2176 38.1701L68.0527 38.4125H72.2341L72.2631 38.3641Z" fill="#CA3132"/>
</svg>
