<svg width="150" height="100" viewBox="0 0 150 100" fill="none" xmlns="http://www.w3.org/2000/svg">
<path fill-rule="evenodd" clip-rule="evenodd" d="M18.3002 42.1749L24.452 36.0231C25.0492 35.4258 25.8257 35.1272 26.6021 35.1272H41.3544V43.0708H28.3939C26.7215 43.0708 25.3479 44.4445 25.3479 46.1169V59.0178H17.4043V44.3251C17.4043 43.4889 17.7029 42.7125 18.3002 42.1749ZM30.6632 47.0725H36.0983C36.7553 47.0725 37.2928 47.6698 37.3526 48.3268V53.7619C37.3526 54.4786 36.815 55.0161 36.0983 55.0161H30.6632C29.9465 55.0161 29.409 54.4786 29.409 53.7619V48.3268C29.409 47.61 30.0063 47.0725 30.6632 47.0725Z" fill="#161314"/>
<path fill-rule="evenodd" clip-rule="evenodd" d="M100.96 47.4304C100.542 47.9679 100.064 48.386 99.5864 48.6846C99.0489 48.9832 98.4516 49.1027 97.7946 49.1027C97.0779 49.1027 96.4807 48.9832 95.9431 48.7443C95.4056 48.5054 94.9875 48.1471 94.6292 47.6693C94.2708 47.1915 94.0319 46.6539 93.8527 45.9969C93.6736 45.3399 93.6138 44.6232 93.6138 43.8468C93.6138 43.1301 93.7333 42.4133 93.8527 41.8161C93.9722 41.2188 94.2708 40.6215 94.6292 40.1437C94.9875 39.6659 95.4056 39.3076 95.8834 39.0089C96.4209 38.7103 96.9585 38.5908 97.6155 38.5311H97.9738C98.0933 38.5311 98.2127 38.5311 98.3919 38.5908C98.8697 38.6506 99.2878 38.77 99.7059 38.9492C100.124 39.1284 100.542 39.4867 100.9 39.9048V35.1267H103.051V48.8041H100.9L100.96 47.4304ZM100.96 43.6079C100.96 42.9509 100.9 42.4731 100.781 42.055C100.661 41.6369 100.482 41.2785 100.243 41.0396C100.004 40.8007 99.7059 40.6215 99.4072 40.5021C99.1086 40.3826 98.7503 40.3229 98.3919 40.3229C97.5557 40.3229 96.9585 40.6215 96.5404 41.1591C96.1223 41.7563 95.8834 42.5925 95.8834 43.787C95.8834 44.444 95.9431 44.9816 96.0626 45.3997C96.182 45.8775 96.3612 46.2358 96.6001 46.4747C96.839 46.7734 97.0779 46.9525 97.3766 47.072C97.6752 47.1915 97.9738 47.2512 98.3322 47.2512C99.1086 47.2512 99.7656 47.0123 100.243 46.4747C100.721 45.9372 100.96 45.1608 100.96 44.026V43.6079ZM58.2563 37.0978V35.1269H49.4766V48.8042H51.8059V43.0107H57.8382V40.98H51.8059V37.0978H58.2563ZM60.9436 47.789C61.8395 48.6849 63.034 49.1627 64.5869 49.1627C65.3036 49.1627 65.9606 49.103 66.5579 48.8641C67.1551 48.6252 67.6927 48.3266 68.1107 47.8488C68.5288 47.371 68.8872 46.8334 69.1261 46.1764C69.365 45.5194 69.4844 44.8027 69.4844 43.9068C69.4844 43.1304 69.4247 42.4137 69.1858 41.7567C68.9469 41.0997 68.6483 40.5621 68.2302 40.0843C67.8121 39.6065 67.2746 39.2482 66.6773 39.0092C66.08 38.7106 65.3633 38.5912 64.5869 38.5912C63.8105 38.5912 63.0937 38.7106 62.4965 38.9495C61.8992 39.1884 61.3617 39.5468 60.9436 40.0246C60.5255 40.5024 60.2269 41.0399 59.988 41.6969C59.7491 42.3539 59.6296 43.0706 59.6296 43.8471C59.6296 45.5792 60.1074 46.8931 60.9436 47.789ZM66.6176 46.4153C66.1995 47.0723 65.4828 47.371 64.5869 47.371C63.6313 47.371 62.9743 47.0723 62.4965 46.4153C62.0784 45.8181 61.8992 44.9222 61.8992 43.8471C61.8992 42.772 62.1381 41.9358 62.5562 41.2789C62.9743 40.6219 63.6313 40.3232 64.5869 40.3232C65.5425 40.3232 66.1995 40.6219 66.6176 41.2191C67.0357 41.8164 67.2746 42.7123 67.2746 43.7874C67.2746 44.9222 67.0357 45.7583 66.6176 46.4153ZM73.9038 38.8298V45.1011C73.9038 45.9373 74.0233 46.5345 74.3219 46.8332C74.6205 47.1318 75.0386 47.311 75.5761 47.311C75.8748 47.311 76.1734 47.2513 76.5318 47.1318C76.8304 47.0124 77.129 46.8332 77.3679 46.654C77.6068 46.4748 77.786 46.1762 77.9652 45.8775C78.1444 45.5789 78.2041 45.2206 78.2041 44.8622V38.8896H80.4139V48.8639H78.2638V47.4304C77.786 48.0277 77.3082 48.5055 76.7707 48.7444C76.2331 48.9833 75.6359 49.1625 75.0386 49.1625C73.9038 49.1625 73.0676 48.8639 72.5301 48.2666C72.0523 47.6693 71.7537 46.7734 71.7537 45.5192V38.8298H73.9038ZM84.6545 40.2635V38.83H82.5641V48.8641H84.7142V42.8914C84.7142 42.5331 84.7739 42.2344 84.8934 41.9358C85.0128 41.6372 85.192 41.3983 85.4309 41.1594C85.6698 40.9205 85.9087 40.7413 86.2671 40.6218C86.6254 40.5024 86.9838 40.4426 87.3421 40.4426C87.9394 40.4426 88.3575 40.5621 88.6561 40.9205C88.9548 41.2191 89.0742 41.7566 89.0742 42.5928V48.8641H91.2841V42.2344C91.2841 39.7857 90.1493 38.5314 87.9394 38.5314C87.2824 38.5314 86.6852 38.6509 86.1476 38.9495C85.6101 39.1884 85.1323 39.6662 84.6545 40.2635ZM113.263 48.2668C113.98 47.7293 114.398 46.8931 114.577 45.8778H112.487C112.368 46.3556 112.129 46.7139 111.77 47.0126C111.412 47.3112 110.934 47.4306 110.217 47.4306C109.322 47.4306 108.665 47.132 108.246 46.5945C107.769 46.0569 107.53 45.2805 107.53 44.3846H114.697V43.429C114.697 42.7123 114.637 42.0553 114.458 41.458C114.279 40.8607 114.04 40.3829 113.622 39.9051C113.204 39.4273 112.726 39.1287 112.188 38.8898C111.651 38.6509 110.994 38.5314 110.217 38.5314C109.501 38.5314 108.844 38.6509 108.246 38.8898C107.649 39.1287 107.171 39.487 106.694 39.9051C106.216 40.3232 105.917 40.9205 105.678 41.5774C105.439 42.2344 105.32 43.0109 105.32 43.8471C105.32 45.5194 105.738 46.8334 106.574 47.7293C107.41 48.6252 108.605 49.103 110.217 49.103C111.531 49.103 112.547 48.8641 113.263 48.2668ZM112.009 40.9205C112.427 41.3983 112.606 41.9955 112.606 42.8317C112.606 42.8914 107.589 42.8914 107.589 42.8317C107.649 42.0553 107.888 41.3983 108.306 40.9205C108.724 40.4426 109.322 40.2037 110.158 40.2037C110.994 40.2037 111.651 40.4426 112.009 40.9205ZM119.057 38.8298V40.323C119.416 39.7854 119.834 39.3673 120.312 39.1284C120.79 38.8298 121.327 38.7103 121.865 38.7103H122.402C122.462 38.7103 122.537 38.7253 122.611 38.7402C122.686 38.7551 122.76 38.7701 122.82 38.7701L122.581 40.741C122.462 40.6813 122.283 40.6813 122.104 40.6813H121.566C121.148 40.6813 120.79 40.741 120.491 40.8605C120.192 40.9799 119.953 41.1591 119.714 41.398C119.476 41.6369 119.356 41.8758 119.237 42.1148C119.117 42.4134 119.057 42.6523 119.057 42.9509V48.8041H116.907V38.8298H119.057ZM126.164 46.5942C126.045 46.3553 125.985 46.1164 125.926 45.758C125.926 45.758 123.835 45.758 123.775 45.8178C123.835 46.4747 124.014 47.0123 124.253 47.4304C124.492 47.8485 124.851 48.2068 125.269 48.4457C125.687 48.6846 126.164 48.8638 126.702 48.9833C127.24 49.1027 127.777 49.1624 128.374 49.1624C129.808 49.1624 130.883 48.8638 131.54 48.3263C132.197 47.7887 132.555 47.0123 132.555 46.1164C132.555 45.6983 132.495 45.3399 132.376 44.9816C132.257 44.6232 132.137 44.3246 131.838 44.0857C131.54 43.8468 131.241 43.6079 130.763 43.4287C130.286 43.2495 129.748 43.1301 129.091 43.0106L127.837 42.7717C127.538 42.712 127.24 42.6523 127.001 42.5925C126.815 42.5462 126.666 42.464 126.553 42.4016C126.52 42.3835 126.49 42.367 126.463 42.3536C126.284 42.2342 126.224 42.1147 126.164 41.9953C126.105 41.8758 126.105 41.6966 126.105 41.4577C126.105 41.3383 126.105 41.1591 126.164 41.0396C126.204 40.9998 126.237 40.96 126.271 40.9202C126.337 40.8405 126.403 40.7609 126.523 40.6813C126.702 40.5618 126.941 40.4424 127.18 40.3826C127.419 40.3229 127.777 40.2632 128.195 40.2632C128.912 40.2632 129.449 40.3826 129.748 40.6216C130.106 40.8605 130.286 41.2785 130.465 41.7564L132.436 41.5174C132.376 41.1591 132.257 40.8007 132.077 40.4424C131.898 40.1437 131.659 39.8451 131.361 39.5465C131.062 39.2478 130.644 39.0687 130.106 38.8895C129.629 38.7103 128.972 38.6506 128.195 38.6506C127.598 38.6506 127.06 38.7103 126.523 38.8298C125.985 38.9492 125.567 39.1881 125.209 39.427C124.851 39.6659 124.552 40.0243 124.373 40.3826C124.194 40.741 124.074 41.1591 124.074 41.6369C124.074 42.2342 124.194 42.7717 124.373 43.0703C124.552 43.369 124.851 43.6676 125.269 43.9065C125.627 44.1454 126.164 44.3246 126.762 44.444C126.951 44.4819 127.152 44.5257 127.363 44.5717C127.819 44.671 128.322 44.7805 128.852 44.8621C129.449 44.9219 129.867 45.101 130.047 45.3399C130.226 45.5788 130.345 45.8178 130.345 46.1761C130.345 46.5942 130.166 46.9526 129.867 47.1317C129.569 47.3109 129.031 47.4304 128.315 47.4304C128.016 47.4304 127.717 47.4304 127.419 47.3706C127.18 47.3706 126.941 47.3109 126.702 47.1317L126.642 47.0872C126.433 46.9314 126.274 46.8128 126.164 46.5942ZM49.5363 53.0447H54.1949C55.2103 53.0447 55.9867 53.1641 56.6437 53.3433C57.3007 53.5225 57.7785 53.7614 58.1966 54.1197C58.5549 54.4184 58.8535 54.8364 58.973 55.2545C59.0924 55.6726 59.1522 56.1504 59.1522 56.688C59.1522 57.2852 59.0327 57.8228 58.7938 58.3006C58.5549 58.7784 58.0771 59.1965 57.4201 59.4951C57.8382 59.6743 58.1966 59.9132 58.4952 60.1521C58.7938 60.391 58.973 60.6299 59.1522 60.9285C59.3313 61.2272 59.4508 61.4661 59.5105 61.8244C59.5702 62.1231 59.63 62.4217 59.63 62.7203C59.63 63.2579 59.5702 63.7954 59.3911 64.333C59.2119 64.8108 58.9133 65.2886 58.5549 65.6469C58.1368 66.0053 57.659 66.3039 57.002 66.5428C56.345 66.722 55.5686 66.8415 54.613 66.8415H49.5363V53.0447ZM54.4935 58.7187C55.3894 58.7187 56.0464 58.5395 56.4048 58.2409C56.7631 57.9422 56.9423 57.4047 56.9423 56.8074C56.9423 56.1504 56.7631 55.6726 56.345 55.374C55.927 55.0754 55.2103 54.9559 54.1949 54.9559H51.8059V58.7187H54.4935ZM54.4935 64.9302C55.0311 64.9302 55.5089 64.8705 55.8672 64.751C56.2256 64.6316 56.5242 64.5121 56.7034 64.333C56.8826 64.1538 57.0618 63.9149 57.1812 63.6162C57.3007 63.3176 57.3007 63.019 57.3007 62.7203C57.3007 62.0036 57.1215 61.5258 56.7034 61.1077C56.2853 60.6896 55.6283 60.5702 54.6727 60.5702H51.6864V64.8705L54.4935 64.9302ZM66.7966 66.6026C67.3342 66.3039 67.812 65.9456 68.1703 65.4677V66.7817H70.3205V60.6299C70.3205 60.0326 70.2607 59.4951 70.1413 59.0173C70.0218 58.5395 69.7829 58.1214 69.4843 57.763C69.1857 57.4047 68.7676 57.106 68.23 56.9269C67.6925 56.7477 67.0355 56.6282 66.2591 56.6282C65.0646 56.6282 64.109 56.8074 63.3922 57.2852C62.6755 57.763 62.2575 58.4798 62.0783 59.4354L64.0492 59.6146C64.1687 59.1367 64.3479 58.8381 64.7062 58.5992C65.0048 58.3603 65.5424 58.2408 66.1994 58.2408C66.7966 58.2408 67.2744 58.3603 67.6328 58.6589C67.9911 58.9576 68.1703 59.4354 68.1703 60.2118V60.6299L66.6772 60.6896C66.2697 60.6896 65.8345 60.7452 65.4094 60.7995L65.4093 60.7995L65.4093 60.7995C65.2113 60.8248 65.0154 60.8498 64.8257 60.8688C64.2284 60.9285 63.6311 61.1077 63.1533 61.3466C62.6755 61.5855 62.2575 61.9439 61.9588 62.362C61.6602 62.7801 61.481 63.3176 61.481 64.0343C61.481 64.5121 61.5407 64.9302 61.7199 65.3483C61.8991 65.7664 62.138 66.065 62.4366 66.3039C62.7353 66.5428 63.0936 66.722 63.5117 66.8415C63.9298 66.9609 64.3479 67.0206 64.8257 67.0206C65.6021 67.0206 66.2591 66.9012 66.7966 66.6026ZM65.1243 62.3022C65.5424 62.2425 66.0799 62.1828 66.7369 62.1231L68.1703 62.0036V62.6009C68.1703 63.437 67.8717 64.094 67.3939 64.5718C66.9161 65.0497 66.1994 65.2886 65.2437 65.2886C64.7062 65.2886 64.3479 65.1691 64.0492 64.9302C63.7506 64.6913 63.6311 64.3329 63.6311 63.9149C63.6311 63.676 63.6909 63.437 63.7506 63.2579C63.8103 63.0787 63.9298 62.8995 64.1687 62.7203C64.4076 62.5412 64.7062 62.362 65.1243 62.3022ZM74.7405 56.8076V58.241C75.2183 57.6438 75.6961 57.166 76.2336 56.927C76.7711 56.6881 77.3684 56.509 78.0254 56.509C80.2352 56.509 81.37 57.7632 81.37 60.212V66.7819H79.1602V60.5106C79.1602 59.7342 79.0407 59.1369 78.7421 58.8383C78.4435 58.5397 78.0254 58.3605 77.4281 58.3605C77.0698 58.3605 76.7114 58.4202 76.3531 58.5397C75.9947 58.6591 75.7558 58.8383 75.5169 59.0772C75.278 59.3161 75.0988 59.555 74.9794 59.8536C74.8599 60.1523 74.8002 60.4509 74.8002 60.8093V66.7819H72.65V56.8076H74.7405ZM85.789 60.6299V53.0446H83.6986V66.7817H85.8487V62.8398L87.4613 61.4064L90.5671 66.722H92.9561L89.0142 60.1521L92.5978 56.7477H90.0295L85.789 60.6299Z" fill="#161314"/>
</svg>
