<svg width="150" height="100" viewBox="0 0 150 100" fill="none" xmlns="http://www.w3.org/2000/svg">
<path d="M28.3792 50.7441H34.4849V57.3631H32.193V54.9062C31.1662 56.6114 29.461 57.5465 26.8941 57.5465C23.0253 57.5465 20 54.2278 20 50.2307C20 45.9952 23.1903 42.8416 27.2791 42.8416C29.9744 42.8416 32.0279 44.015 33.4764 46.3069L31.1845 47.7187C30.3044 46.4169 28.8743 45.4818 27.3524 45.4818C24.7855 45.4818 22.897 47.462 22.897 50.2123C22.897 53.1277 25.1339 54.9612 27.3158 54.9612C28.9476 54.9612 30.1577 54.3561 30.7261 52.9626H28.3792V50.7441ZM43.5792 52.3392C43.5792 50.8357 42.4974 49.6439 41.0489 49.6439C39.6188 49.6439 38.5186 50.8541 38.5186 52.3209C38.5186 53.7877 39.6004 55.0162 41.0489 55.0162C42.5157 55.0345 43.5792 53.8061 43.5792 52.3392ZM46.2745 52.3392C46.2745 55.3646 44.0192 57.5648 41.0489 57.5648C38.1336 57.5648 35.8234 55.3095 35.8234 52.3026C35.8234 49.2772 38.0786 47.077 41.0489 47.077C43.9642 47.0953 46.2745 49.3506 46.2745 52.3392ZM50.4732 50.2123C50.4732 53.1643 52.7101 54.9245 54.6354 54.9245C56.3222 54.9245 57.3673 54.1361 58.1191 52.9626L60.2643 54.3561C59.0358 56.5013 57.0189 57.5648 54.4153 57.5648C50.4549 57.5648 47.5029 54.3928 47.5029 50.249C47.5029 45.9219 50.6383 42.8599 54.5437 42.8599C57.129 42.8599 59.1092 43.9967 60.5393 46.2703L58.2474 47.7004C57.3857 46.2886 56.1755 45.5002 54.617 45.5002C52.3984 45.5368 50.4732 47.462 50.4732 50.2123ZM68.5518 52.3392C68.5518 50.8357 67.4701 49.6439 66.0216 49.6439C64.5731 49.6439 63.4913 50.8541 63.4913 52.3209C63.4913 53.7877 64.5547 55.0162 66.0216 55.0162C67.4884 55.0345 68.5518 53.8061 68.5518 52.3392ZM71.2838 52.3392C71.2838 55.3646 69.0286 57.5648 66.0582 57.5648C63.1429 57.5648 60.8327 55.3095 60.8327 52.3026C60.8327 49.2772 63.0879 47.077 66.0582 47.077C68.9369 47.0953 71.2838 49.3506 71.2838 52.3392ZM87.8406 51.1841V57.3631H85.1636V51.8258C85.1636 50.7257 84.7969 49.6806 83.4584 49.6806C82.1383 49.6806 81.6066 50.5424 81.6066 51.8992V57.3814H78.9296V51.8258C78.9296 50.7257 78.5629 49.6806 77.2061 49.6806C75.886 49.6806 75.3726 50.5424 75.3726 51.8992V57.3814H72.6956V47.297H75.3726V48.5072C75.941 47.7004 77.0044 47.1137 78.2329 47.1137C79.443 47.1137 80.4881 47.6271 81.0198 48.5438C81.7716 47.4804 83 47.1137 84.0085 47.1137C86.4837 47.0953 87.8406 48.6538 87.8406 51.1841ZM97.4666 52.2842C97.4666 50.7807 96.4398 49.6623 94.8996 49.6623C93.2861 49.6623 92.4244 50.9091 92.4244 52.3392C92.4244 53.8977 93.4328 54.9978 94.918 54.9978C96.4765 54.9978 97.4666 53.8244 97.4666 52.2842ZM100.18 52.3026C100.18 55.4012 98.0716 57.5831 95.4497 57.5831C94.1662 57.5831 93.1211 57.1614 92.4611 56.4463V61.1585H89.7841V47.297H92.4611V48.3238C93.1211 47.517 94.1479 47.077 95.413 47.077C98.255 47.0953 100.18 49.3689 100.18 52.3026ZM109.073 52.3392C109.073 50.7807 108.046 49.6806 106.524 49.6806C104.966 49.6806 103.976 50.8541 103.976 52.4126C103.976 53.9161 105.002 55.0345 106.543 55.0345C108.174 55.0345 109.073 53.7877 109.073 52.3392ZM109.018 47.297H111.695V57.3814H108.999V56.373C108.303 57.1614 107.294 57.6015 106.011 57.6015C103.169 57.6015 101.262 55.3279 101.262 52.3942C101.262 49.2956 103.371 47.1137 105.992 47.1137C107.313 47.1137 108.413 47.5904 109.018 48.3788V47.297ZM119.029 47.0953C119.212 47.0953 119.469 47.1137 119.652 47.2053V49.9006C119.341 49.7906 118.956 49.754 118.736 49.754C117.25 49.754 116.444 50.469 116.444 52.7059V57.3998H113.767V47.3154H116.444V48.4338C117.104 47.352 118.277 47.0953 119.029 47.0953ZM122.824 51.2024H127.298C127.188 50.0657 126.29 49.2956 125.116 49.2956C123.943 49.3139 123.026 50.084 122.824 51.2024ZM129.92 53.0176H122.751C122.898 54.6678 124.163 55.3462 125.226 55.3462C126.18 55.3462 127.096 54.8695 127.701 54.0627L129.443 55.2912C128.472 56.8864 127.115 57.5648 125.061 57.5648C122.348 57.5648 119.982 55.7496 119.982 52.3576C119.982 49.3872 122.091 47.077 125.098 47.077C128.197 47.077 129.993 49.4056 129.993 52.1009C130.012 52.4309 129.993 52.7059 129.92 53.0176Z" fill="#6CC04A"/>
</svg>
