<svg width="150" height="100" viewBox="0 0 150 100" fill="none" xmlns="http://www.w3.org/2000/svg">
<path d="M39.1991 34.4961H40.0427C42.9763 34.5607 45.8605 35.7387 47.9315 37.8287C47.1677 38.6115 46.3849 39.3601 45.6363 40.1391C44.4735 39.0865 43.0713 38.2733 41.5399 37.9883C39.2751 37.5095 36.8394 37.9389 34.9394 39.2309C32.8684 40.5875 31.4662 42.8827 31.1622 45.3375C30.8278 47.7619 31.5118 50.3117 33.0926 52.1927C34.605 54.0243 36.9192 55.1719 39.3093 55.2517C41.5399 55.3809 43.8693 54.6931 45.4957 53.1313C46.7725 52.0331 47.3615 50.3573 47.5515 48.7309C44.9067 48.7309 42.2581 48.7461 39.6133 48.7309V45.4477H50.7549C51.3287 48.9703 50.5003 52.9375 47.8213 55.4569C46.0353 57.2429 43.5653 58.2955 41.0459 58.5007C38.6063 58.7401 36.087 58.2765 33.921 57.0985C31.3218 55.7115 29.2508 53.3669 28.2324 50.6119C27.2748 48.0773 27.2596 45.2083 28.1526 42.6585C28.9658 40.3291 30.5276 38.2733 32.5378 36.8407C34.4644 35.4195 36.809 34.6405 39.1991 34.4961Z" fill="#3780FF"/>
<path d="M103.116 35.3245H106.529V58.0865C105.396 58.0865 104.249 58.1017 103.116 58.0713C103.135 50.4979 103.116 42.9131 103.116 35.3245Z" fill="#38B137"/>
<path d="M58.3446 43.2133C60.4459 42.8181 62.7259 43.2627 64.4625 44.5205C66.0395 45.6377 67.1415 47.3895 67.4758 49.3009C67.9052 51.5163 67.3656 53.9407 65.9293 55.6925C64.3827 57.6571 61.8519 58.7097 59.3781 58.5501C57.1134 58.4209 54.917 57.2923 53.5756 55.4417C52.0632 53.4011 51.6946 50.5967 52.523 48.2065C53.3552 45.6377 55.696 43.6769 58.3446 43.2133ZM58.8233 46.2419C57.9608 46.4661 57.1666 46.9601 56.5928 47.6593C55.0462 49.5099 55.1412 52.5195 56.8474 54.2409C57.8202 55.2289 59.2869 55.6925 60.6397 55.4189C61.8975 55.1947 62.9995 54.3511 63.6037 53.2339C64.6563 51.3377 64.3523 48.7233 62.7411 47.2413C61.7075 46.2913 60.1913 45.8923 58.8233 46.2419Z" fill="#FA3913"/>
<path d="M75.2391 43.2134C77.6445 42.7498 80.2779 43.4224 82.0753 45.1096C85.0089 47.7392 85.3281 52.664 82.8239 55.6925C81.3115 57.6039 78.8567 58.6566 76.4323 58.5464C74.1219 58.4818 71.842 57.3341 70.4702 55.4379C68.9236 53.3518 68.5892 50.479 69.467 48.0432C70.3448 45.558 72.6399 43.6618 75.2391 43.2134ZM75.7179 46.242C74.8553 46.4662 74.0611 46.9602 73.4873 47.6442C71.9559 49.4606 72.0206 52.4246 73.6621 54.165C74.6349 55.2023 76.1473 55.7116 77.5495 55.4228C78.7921 55.1834 79.9093 54.355 80.5135 53.2378C81.5509 51.3264 81.2469 48.712 79.6205 47.23C78.5869 46.2762 77.0707 45.8924 75.7179 46.242Z" fill="#FCBD06"/>
<path d="M89.5697 44.1405C91.4013 42.9929 93.841 42.6737 95.817 43.6617C96.4402 43.9315 96.9494 44.3951 97.4434 44.8587C97.4586 44.4293 97.4434 43.9809 97.4586 43.5363C98.5264 43.5515 99.5942 43.5363 100.677 43.5515V57.6115C100.662 59.7319 100.119 61.9777 98.591 63.5243C96.919 65.2305 94.3502 65.7549 92.0397 65.4053C89.5697 65.0405 87.4189 63.2393 86.4613 60.9593C87.4189 60.4957 88.4221 60.1309 89.4101 59.7015C89.9687 61.0087 91.1011 62.1259 92.5185 62.3805C93.936 62.6351 95.5776 62.2855 96.5048 61.1037C97.4928 59.8915 97.4928 58.2347 97.4434 56.7527C96.71 57.4709 95.8663 58.1093 94.8441 58.3449C92.6287 58.9681 90.1891 58.2005 88.4829 56.7033C86.7615 55.2061 85.7431 52.8919 85.8381 50.5967C85.8875 47.9975 87.3543 45.4933 89.5697 44.1405ZM92.8681 46.1811C91.8953 46.3407 90.9871 46.8841 90.3639 47.6327C88.8667 49.4187 88.8667 52.2725 90.3791 54.0243C91.2417 55.0617 92.6249 55.6355 93.9663 55.4911C95.2241 55.3619 96.3907 54.5677 97.0101 53.4657C98.0628 51.5999 97.888 49.0653 96.4668 47.4389C95.5966 46.4357 94.1905 45.9417 92.8681 46.1811Z" fill="#3780FF"/>
<path d="M110.625 44.9537C112.536 43.1677 115.485 42.5635 117.94 43.5021C120.266 44.3799 121.751 46.5953 122.5 48.8753C119.042 50.3117 115.599 51.7291 112.137 53.1617C112.616 54.0699 113.35 54.8983 114.338 55.2327C115.725 55.7267 117.381 55.5519 118.544 54.6285C119.008 54.2789 119.373 53.8153 119.722 53.3707C120.6 53.9597 121.474 54.5335 122.352 55.1225C121.109 56.9883 119.019 58.2955 116.773 58.5007C114.288 58.8047 111.64 57.8471 110.032 55.9015C107.391 52.8425 107.646 47.7087 110.625 44.9537ZM112.331 47.9025C111.788 48.6853 111.567 49.6391 111.583 50.5815C113.893 49.6239 116.203 48.6701 118.518 47.6973C118.134 46.8043 117.21 46.2609 116.272 46.1203C114.756 45.8467 113.175 46.6599 112.331 47.9025Z" fill="#FA3913"/>
</svg>
