<svg preserveAspectRatio="none" width="100%" height="100%" overflow="visible" style="display: block;" viewBox="0 0 114.794 38.7647" fill="none" xmlns="http://www.w3.org/2000/svg">
<g id="logo">
<path id="Vector" d="M14.1388 0H15.1582C18.7029 0.08075 22.188 1.55325 24.6905 4.16575C23.7675 5.14425 22.8216 6.08 21.9171 7.05375C20.512 5.738 18.8177 4.7215 16.9673 4.36525C14.2307 3.76675 11.2874 4.3035 8.99159 5.9185C6.48914 7.61425 4.79482 10.4832 4.42748 13.5517C4.02342 16.5822 4.84992 19.7695 6.76004 22.1207C8.58752 24.4102 11.3838 25.8447 14.272 25.9445C16.9673 26.106 19.782 25.2462 21.7472 23.294C23.29 21.9212 24.0017 19.8265 24.2313 17.7935C21.0355 17.7935 17.8351 17.8125 14.6393 17.7935V13.6895H28.102C28.7954 18.0927 27.7944 23.0517 24.5573 26.201C22.3992 28.4335 19.4146 29.7492 16.3704 30.0057C13.4225 30.305 10.3783 29.7255 7.76102 28.253C4.62033 26.5192 2.11788 23.5885 0.887318 20.1447C-0.269778 16.9765 -0.288145 13.3902 0.790894 10.203C1.77351 7.29125 3.66068 4.7215 6.08966 2.93075C8.41763 1.15425 11.2507 0.1805 14.1388 0Z" fill="var(--fill-0, #3780FF)"/>
<path id="Vector_2" d="M91.3714 1.03544H95.4947V29.4879C94.1264 29.4879 92.7398 29.5069 91.3714 29.4689C91.3944 20.0022 91.3714 10.5212 91.3714 1.03544Z" fill="var(--fill-0, #38B137)"/>
<path id="Vector_3" d="M37.2725 10.8965C39.8117 10.4025 42.5667 10.9582 44.665 12.5305C46.5705 13.927 47.9021 16.1167 48.3062 18.506C48.825 21.2752 48.173 24.3057 46.4374 26.4955C44.5686 28.9512 41.5106 30.267 38.5215 30.0675C35.7849 29.906 33.1309 28.4952 31.5101 26.182C29.6826 23.6312 29.2372 20.1257 30.2382 17.138C31.2437 13.927 34.0722 11.476 37.2725 10.8965ZM37.8511 14.6822C36.8088 14.9625 35.8491 15.58 35.1558 16.454C33.287 18.7672 33.4018 22.5292 35.4634 24.681C36.6389 25.916 38.4113 26.4955 40.0459 26.1535C41.5657 25.8732 42.8973 24.8187 43.6273 23.4222C44.8992 21.052 44.5319 17.784 42.585 15.9315C41.3361 14.744 39.5041 14.2452 37.8511 14.6822Z" fill="var(--fill-0, #FA3913)"/>
<path id="Vector_4" d="M57.687 10.8965C60.5935 10.317 63.7755 11.1578 65.9473 13.2668C69.4921 16.5538 69.8778 22.7098 66.8519 26.4955C65.0244 28.8848 62.0582 30.2005 59.1288 30.0628C56.337 29.982 53.5821 28.5475 51.9245 26.1773C50.0557 23.5695 49.6516 19.9785 50.7123 16.9338C51.773 13.8273 54.5463 11.457 57.687 10.8965ZM58.2655 14.6823C57.2232 14.9625 56.2636 15.58 55.5702 16.435C53.7198 18.7055 53.7979 22.4105 55.7815 24.586C56.9569 25.8828 58.7844 26.5193 60.4787 26.1583C61.9802 25.859 63.3301 24.8235 64.0602 23.427C65.3137 21.0378 64.9464 17.7698 62.9811 15.9173C61.7322 14.725 59.9002 14.2453 58.2655 14.6823Z" fill="var(--fill-0, #FCBD06)"/>
<path id="Vector_5" d="M75.0034 12.0555C77.2166 10.621 80.1645 10.222 82.5522 11.457C83.3052 11.7942 83.9205 12.3737 84.5174 12.9532C84.5357 12.4165 84.5174 11.856 84.5357 11.3002C85.826 11.3192 87.1163 11.3002 88.4249 11.3192V28.8942C88.4065 31.5447 87.7499 34.352 85.9041 36.2852C83.8837 38.418 80.7798 39.0735 77.988 38.6365C75.0034 38.1805 72.4046 35.929 71.2475 33.079C72.4046 32.4995 73.6168 32.0435 74.8106 31.5067C75.4856 33.1407 76.8539 34.5372 78.5666 34.8555C80.2793 35.1737 82.2629 34.7367 83.3832 33.2595C84.5771 31.7442 84.5771 29.6732 84.5174 27.8207C83.6312 28.7185 82.6118 29.5165 81.3767 29.811C78.6997 30.59 75.7519 29.6305 73.6902 27.759C71.6102 25.8875 70.3796 22.9947 70.4944 20.1257C70.5541 16.8767 72.3265 13.7465 75.0034 12.0555ZM78.989 14.6062C77.8135 14.8057 76.7161 15.485 75.9631 16.4207C74.154 18.6532 74.154 22.2205 75.9815 24.4102C77.0238 25.707 78.6951 26.4242 80.316 26.2437C81.8358 26.0822 83.2455 25.0895 83.9939 23.712C85.2658 21.3797 85.0546 18.2115 83.3373 16.1785C82.2858 14.9245 80.5869 14.307 78.989 14.6062Z" fill="var(--fill-0, #3780FF)"/>
<path id="Vector_6" d="M100.445 13.072C102.755 10.8395 106.318 10.0843 109.284 11.2575C112.094 12.3547 113.89 15.124 114.794 17.974C110.616 19.7695 106.456 21.5412 102.273 23.332C102.851 24.4672 103.737 25.5027 104.931 25.9207C106.607 26.5382 108.609 26.3197 110.014 25.1655C110.574 24.7285 111.015 24.149 111.438 23.5932C112.498 24.3295 113.554 25.0467 114.615 25.783C113.114 28.1152 110.588 29.7492 107.874 30.0057C104.871 30.3857 101.671 29.1887 99.7288 26.7567C96.5375 22.933 96.8452 16.5157 100.445 13.072ZM102.507 16.758C101.85 17.7365 101.584 18.9287 101.602 20.1067C104.394 18.9097 107.186 17.7175 109.982 16.5015C109.518 15.3852 108.402 14.706 107.268 14.5302C105.436 14.1882 103.526 15.2047 102.507 16.758Z" fill="var(--fill-0, #FA3913)"/>
</g>
</svg>
