<svg preserveAspectRatio="none" width="100%" height="100%" overflow="visible" style="display: block;" viewBox="0 0 62.0915 40" fill="none" xmlns="http://www.w3.org/2000/svg">
<g id="Isolation_Mode" clip-path="url(#clip0_0_564)">
<path id="Vector" fill-rule="evenodd" clip-rule="evenodd" d="M8.82864 40.0008L11.3512 27.2893H15.4882L12.9657 40.0008H8.82864ZM21.2858 35.8638H23.9072L23.2007 31.172L21.2823 35.8638H21.2858ZM15.4847 40.0008L21.738 27.2893H25.8221L28.3446 40.0008H24.5608L24.31 38.4887H20.2754L19.6183 40.0008H15.4812H15.4847ZM32.1284 40.0008L33.591 30.4689H29.9592L30.5633 27.2398H41.6603L41.0562 30.4689H37.6257L36.2125 40.0008H32.1284ZM45.9987 35.8638H48.6202L47.9631 31.172L45.9952 35.8638H45.9987ZM40.2471 40.0008L46.451 27.2893H50.535L53.107 40.0008H49.2243L49.0724 38.4887H44.9883L44.3312 40.0008H40.2471ZM62.0878 12.9137H42.7202C42.0136 16.4961 39.5441 19.4709 34.5979 21.5377C35.1526 23.2511 37.071 24.8162 39.0353 24.8162H49.5776C51.1922 24.8162 52.4534 23.4561 52.9586 22.3432H42.2644C41.6073 22.2407 41.6073 21.739 42.215 21.6366H52.7573C54.1175 21.6366 55.3293 20.4778 56.0358 19.2165H43.8295C43.1724 19.1141 43.1724 18.6124 43.8295 18.5099H56.1383C57.3996 18.5099 58.5089 17.0473 58.9611 16.0899H45.4441C44.7869 15.9874 44.7869 15.3833 45.4441 15.3338H59.2155C60.3248 15.3338 61.3353 14.175 62.0913 12.9137H62.0878ZM0.0033432 12.9137H19.3709C20.0775 16.4961 22.5471 19.4709 27.4932 21.5377C26.9385 23.2511 25.0201 24.8162 23.0558 24.8162H12.5135C10.8989 24.8162 9.63768 23.4561 9.13247 22.3432H19.8267C20.4838 22.2407 20.4838 21.739 19.8762 21.6366H9.33385C7.97367 21.6366 6.76187 20.4778 6.05528 19.2165H18.2616C18.9187 19.1141 18.9187 18.6124 18.2616 18.5099H5.95635C4.69509 18.5099 3.58575 17.0473 3.13353 16.0899H16.6506C17.3077 15.9874 17.3077 15.3833 16.6506 15.3338H2.87916C1.76982 15.3338 0.759393 14.175 0.0033432 12.9137ZM24.7693 2.21952C25.4759 2.82365 26.2814 3.37833 27.1399 3.73162C27.8465 2.26898 28.9064 1.05718 30.0652 -0.00270199C28.0973 0.198676 26.2814 0.954726 24.7693 2.21599V2.21952ZM21.3388 9.33134H25.6772C25.7267 7.5154 26.1295 5.95031 26.8361 4.33929C25.8786 3.93653 25.0201 3.38186 24.2146 2.72473C22.4481 4.4912 21.4412 6.80882 21.3388 9.33134ZM30.7188 5.24725V9.33134H26.3803C26.4298 7.71678 26.7831 6.10223 27.4897 4.59013C28.5001 4.99288 29.6094 5.19426 30.7188 5.24725ZM37.3254 2.21952C36.6188 2.82365 35.8133 3.37833 34.9548 3.73162C34.1987 2.26898 33.2413 1.11018 32.0295 -0.00270199C33.9973 0.198676 35.8133 0.954726 37.3254 2.21599V2.21952ZM40.7559 9.33134H36.4174C36.3679 7.56487 35.9652 5.95031 35.3081 4.33929C36.216 3.93653 37.0745 3.38186 37.88 2.72473C39.696 4.59013 40.6534 6.86181 40.7559 9.33134ZM31.4254 5.24725V9.33134H35.7143C35.7143 7.66732 35.3116 6.10223 34.605 4.59013C33.5946 4.99288 32.4852 5.19426 31.4289 5.24725H31.4254ZM24.7657 17.1003C25.4723 16.5456 26.2779 15.9415 27.1364 15.6376C27.8924 17.1003 28.8498 18.3121 30.0616 19.372C28.0938 19.1211 26.2778 18.4145 24.7657 17.1038V17.1003ZM21.3353 10.0379H25.6737C25.7232 11.8044 26.1259 13.366 26.8325 15.03C25.8751 15.4327 25.0166 15.9874 24.2111 16.6445C22.4976 14.8781 21.4377 12.5604 21.3353 10.0379ZM30.7152 14.122V10.0379H26.3768C26.4262 11.6525 26.7795 13.3165 27.4861 14.7297C28.4965 14.3764 29.6059 14.1255 30.7152 14.1255V14.122ZM37.3218 17.0967C36.6647 16.5421 35.8097 15.9874 34.9512 15.6341C34.1952 17.0967 33.2378 18.3085 32.026 19.3684C33.9938 19.1176 35.8097 18.411 37.3218 17.1003V17.0967ZM40.7523 10.0344H36.4139C36.3644 11.8009 36.0111 13.4154 35.3045 15.0264C36.2125 15.4292 37.071 15.9839 37.8765 16.641C39.59 14.8745 40.6499 12.5039 40.7523 10.0344ZM31.4218 14.1185V10.0344H35.7108C35.7108 11.6489 35.3081 13.2635 34.6015 14.7261C33.644 14.3728 32.4817 14.122 31.4254 14.122L31.4218 14.1185ZM30.7152 0.400054C29.5564 1.30802 28.4965 2.61874 27.79 3.98246C28.7474 4.28629 29.7083 4.53713 30.7152 4.53713V0.403587V0.400054ZM31.4218 0.400054C32.5312 1.30802 33.591 2.61874 34.2976 3.98246C33.3402 4.33575 32.3792 4.53713 31.4218 4.53713V0.403587V0.400054ZM30.7152 18.9621C29.5564 18.0542 28.4965 16.7435 27.79 15.3797C28.7474 15.0264 29.7083 14.8251 30.7152 14.8251V18.9621ZM31.4218 19.0116C32.5312 18.0542 33.591 16.7435 34.2976 15.3797C33.3402 15.0759 32.3792 14.8251 31.4218 14.8251V19.0116Z" fill="var(--fill-0, #1E32FA)"/>
</g>
<defs>
<clipPath id="clip0_0_564">
<rect width="62.0915" height="40" fill="white"/>
</clipPath>
</defs>
</svg>
