<?xml version="1.0" encoding="utf-8"?>
<svg xmlns="http://www.w3.org/2000/svg" viewBox="0 0 150 100" xmlns:bx="https://boxy-svg.com" width="150px" height="100px"><defs><bx:export><bx:file format="svg"/></bx:export></defs><path fill="#1E32FA" d="M 75.443 47.447 C 76.806 46.336 78.064 44.836 78.876 43.227 C 77.764 42.871 76.59 42.62 75.443 42.62 C 75.443 42.62 75.443 47.447 75.443 47.447 Z M 74.595 47.411 C 73.189 46.342 71.937 44.843 71.126 43.233 C 72.23 42.841 73.409 42.626 74.595 42.626 L 74.595 47.411 Z M 75.443 25.86 C 76.806 26.965 78.064 28.426 78.876 30.042 C 77.764 30.43 76.59 30.687 75.443 30.687 C 75.443 30.687 75.443 25.86 75.443 25.86 Z M 74.595 25.86 C 73.189 26.965 71.937 28.472 71.126 30.042 C 72.23 30.398 73.409 30.687 74.595 30.687 L 74.595 25.86 Z M 75.443 41.768 L 75.443 37.045 L 80.572 37.045 C 80.572 38.94 80.091 40.797 79.281 42.515 C 78.103 42.092 76.695 41.796 75.443 41.768 Z M 86.626 37.045 L 81.461 37.045 C 81.387 39.119 80.94 40.981 80.098 42.835 C 81.203 43.338 82.192 43.94 83.156 44.727 C 85.262 42.657 86.509 39.906 86.626 37.045 Z M 82.53 45.267 C 81.719 44.585 80.681 43.94 79.687 43.553 C 78.765 45.23 77.622 46.623 76.179 47.877 C 78.507 47.59 80.681 46.734 82.53 45.267 Z M 74.595 41.768 L 74.595 37.045 L 69.437 37.045 C 69.466 38.94 69.909 40.833 70.725 42.515 C 71.937 42.092 73.268 41.796 74.595 41.768 Z M 63.374 37.045 L 68.544 37.045 C 68.655 39.119 69.097 40.938 69.953 42.835 C 68.804 43.338 67.809 43.94 66.85 44.727 C 64.738 42.657 63.528 39.973 63.374 37.045 Z M 67.469 45.267 C 68.325 44.622 69.314 43.909 70.314 43.553 C 71.235 45.23 72.379 46.623 73.82 47.877 C 71.493 47.59 69.283 46.734 67.469 45.267 Z M 75.443 31.505 L 75.443 36.227 L 80.572 36.227 C 80.572 34.33 80.091 32.511 79.281 30.755 C 78.072 31.184 76.733 31.467 75.443 31.505 Z M 86.626 36.22 L 81.461 36.22 C 81.387 34.182 80.908 32.29 80.098 30.465 C 81.203 29.963 82.235 29.318 83.156 28.568 C 85.367 30.71 86.509 33.401 86.626 36.22 Z M 82.53 28.004 C 81.681 28.723 80.681 29.361 79.687 29.752 C 78.765 28.033 77.622 26.677 76.179 25.393 C 78.507 25.682 80.681 26.541 82.53 28.004 Z M 74.595 31.505 L 74.595 36.227 L 69.437 36.227 C 69.466 34.366 69.909 32.475 70.725 30.755 C 71.937 31.184 73.268 31.467 74.595 31.505 Z M 63.374 36.22 L 68.544 36.22 C 68.655 34.145 69.097 32.326 69.953 30.465 C 68.804 29.963 67.809 29.356 66.85 28.568 C 64.701 30.649 63.528 33.327 63.374 36.22 Z M 67.469 28.004 C 68.325 28.723 69.283 29.361 70.314 29.752 C 71.199 28.07 72.414 26.645 73.82 25.393 C 71.493 25.682 69.314 26.541 67.469 28.004 Z M 37.844 40.403 L 61.047 40.403 C 61.9 44.549 64.848 47.982 70.72 50.377 C 70.051 52.341 67.766 54.16 65.401 54.16 L 52.829 54.16 C 50.901 54.16 49.396 52.582 48.769 51.335 L 61.569 51.335 C 62.35 51.199 62.385 50.592 61.606 50.518 L 49.022 50.518 C 47.4 50.518 45.921 49.155 45.072 47.692 L 59.72 47.692 C 60.457 47.583 60.457 46.975 59.72 46.871 L 44.962 46.871 C 43.488 46.871 42.124 45.192 41.565 44.051 L 57.768 44.051 C 58.578 43.94 58.578 43.227 57.768 43.191 L 41.271 43.191 C 39.981 43.191 38.728 41.834 37.844 40.403 Z M 112.156 40.403 L 88.947 40.403 C 88.101 44.549 85.147 47.982 79.281 50.377 C 79.944 52.341 82.228 54.16 84.594 54.16 L 97.178 54.16 C 99.1 54.16 100.611 52.582 101.237 51.335 L 88.432 51.335 C 87.659 51.199 87.615 50.592 88.394 50.518 L 100.979 50.518 C 102.606 50.518 104.074 49.155 104.921 47.692 L 90.28 47.692 C 89.538 47.583 89.538 46.975 90.28 46.871 L 105.044 46.871 C 106.52 46.871 107.875 45.192 108.428 44.051 L 92.226 44.051 C 91.418 43.94 91.418 43.227 92.226 43.191 L 108.723 43.191 C 110.018 43.191 111.278 41.834 112.156 40.403 Z M 86 71.787 L 93.443 57.06 L 98.313 57.06 L 101.378 71.787 L 96.767 71.787 L 96.545 70.036 L 91.669 70.036 L 90.894 71.787 C 90.894 71.787 86 71.787 86 71.787 Z M 92.897 66.966 L 96.029 66.966 L 95.218 61.567 L 92.897 66.966 Z M 76.327 71.787 L 78.021 60.707 L 73.705 60.707 L 74.446 56.986 L 87.694 56.986 L 86.953 60.707 L 82.861 60.707 L 81.203 71.787 L 76.327 71.787 Z M 56.397 71.787 L 63.853 57.06 L 68.724 57.06 L 71.788 71.787 L 67.213 71.787 L 66.948 70.036 L 62.085 70.036 L 61.31 71.787 C 61.31 71.787 56.397 71.787 56.397 71.787 Z M 63.307 66.966 L 66.439 66.966 L 65.622 61.567 L 63.307 66.966 Z M 48.432 71.787 L 51.454 57.06 L 56.397 57.06 L 53.375 71.787 C 53.375 71.787 48.432 71.787 48.432 71.787 Z" style=""/></svg>