<svg width="150" height="100" viewBox="0 0 150 100" fill="none" xmlns="http://www.w3.org/2000/svg">
<path fill-rule="evenodd" clip-rule="evenodd" d="M106.574 38.9031C109.405 39.5401 118.506 45.4855 110.316 52.2802L114.461 54.5098C122.955 44.1053 110.113 39.0093 106.574 38.9031C106.574 38.7969 106.473 38.7969 106.574 38.9031Z" fill="#1FA118"/>
<path fill-rule="evenodd" clip-rule="evenodd" d="M110.451 35.8823C116.219 38.0545 126.498 46.8465 118.841 56.3626L122.827 58.4313C129.958 51.2943 125.449 39.9163 110.451 35.8823Z" fill="#002C53"/>
<path fill-rule="evenodd" clip-rule="evenodd" d="M130.385 53.4844L132.999 43.4745L122.215 38.8235C127.335 41.7557 131.038 48.1256 130.385 53.4844C130.276 53.5855 130.276 53.4844 130.385 53.4844Z" fill="#1AB3CD"/>
<path fill-rule="evenodd" clip-rule="evenodd" d="M19 45.3333H22.9216V56.1176H19V45.3333Z" fill="#002C53"/>
<path fill-rule="evenodd" clip-rule="evenodd" d="M22.9216 42.3922C22.9216 43.4815 22.0501 44.353 20.9608 44.353C19.8715 44.353 19 43.4815 19 42.3922C19 41.3029 19.8715 40.4314 20.9608 40.4314C21.9412 40.4314 22.9216 41.3029 22.9216 42.3922Z" fill="#002C53"/>
<path fill-rule="evenodd" clip-rule="evenodd" d="M24.8828 45.533H28.2182V47.0308C29.0267 45.9324 29.9364 45.3333 31.2503 45.3333C33.2717 45.3333 34.6867 46.6314 34.6867 49.1277V56.1176H31.3514V49.627C31.3514 48.4287 30.9471 47.7298 30.0375 47.7298C29.2289 47.7298 28.6225 48.3289 28.2182 49.4273V56.1176H24.8828V45.533H24.8828Z" fill="#002C53"/>
<path fill-rule="evenodd" clip-rule="evenodd" d="M36.6465 45.5311H40.0626V47.1141C40.9943 45.8279 42.0295 45.3333 43.3753 45.3333C44.8245 45.3333 45.9633 46.1248 46.4809 47.5099C47.2055 46.0258 48.3442 45.3333 49.7935 45.3333C51.4498 45.3333 53.3132 46.4216 53.3132 49.0929V56.1176H49.897V50.3791C49.897 48.6972 49.7935 47.8067 48.6548 47.8067C47.9301 47.8067 47.2055 48.3014 46.6879 49.2908V56.1176H43.2717V49.8844C43.2717 48.5982 42.8577 47.8067 42.0295 47.8067C41.3049 47.8067 40.7873 48.3014 40.0626 49.3897V56.1176H36.6465V45.5311H36.6465Z" fill="#002C53"/>
<path fill-rule="evenodd" clip-rule="evenodd" d="M60.7885 53.203C60.1231 53.7859 59.8379 53.883 59.3627 53.883C58.6973 53.883 58.3171 53.3973 58.3171 52.8143C58.3171 51.9399 59.1726 51.357 60.8835 50.7741V53.203H60.7885ZM65.161 53.2029C64.7808 53.4944 64.4956 53.5915 64.2105 53.5915C63.9253 53.5915 63.9253 53.4944 63.9253 52.5228V48.3451C63.9253 46.0133 62.2143 45.3333 60.2182 45.3333C58.6023 45.3333 57.4616 45.7219 56.0358 46.6934V49.0252C57.3666 47.9565 58.4122 47.4707 59.4578 47.4707C60.3133 47.4707 60.6935 47.8593 60.6935 48.928V49.3166C57.5567 50.3854 55.2754 51.3569 55.2754 53.4944C55.2754 54.9517 56.416 56.1176 57.8419 56.1176C58.8874 56.1176 59.7429 55.7289 60.7885 54.6602C60.9786 55.6318 61.4539 56.1176 62.4044 56.1176C63.1649 56.1176 63.9253 55.8261 65.066 55.146V53.2029H65.161Z" fill="#002C53"/>
<path fill-rule="evenodd" clip-rule="evenodd" d="M67.0391 45.434H70.1167V49.4656C70.8117 46.6435 71.8045 45.3333 72.9959 45.3333C73.5916 45.3333 74.1872 45.5348 74.8822 45.938L74.1872 48.8608C73.6908 48.5585 73.1944 48.3569 72.7973 48.3569C71.1096 48.3569 70.3153 51.4813 70.3153 54.505V56.1176H67.0391V45.434Z" fill="#002C53"/>
<path fill-rule="evenodd" clip-rule="evenodd" d="M76.05 52.8143C77.2638 53.5915 78.2909 53.883 79.2246 53.883C79.8782 53.883 80.3451 53.5915 80.3451 53.0086C80.3451 51.6484 75.8633 51.9399 75.8633 48.6366C75.8633 46.6934 77.3572 45.3333 79.5047 45.3333C80.5318 45.3333 81.5589 45.6247 82.6793 46.3048V48.4422C82.0257 48.0536 81.4655 47.8593 80.9053 47.665C80.3451 47.4707 79.8782 47.4707 79.4114 47.4707C78.6644 47.4707 78.1975 47.7622 78.1975 48.2479C78.1975 49.6081 83.0528 49.3166 83.0528 52.8143C83.0528 54.7574 81.5589 56.1176 79.318 56.1176C78.2909 56.1176 77.2638 55.8261 75.9567 55.2432V52.8143H76.05Z" fill="#002C53"/>
<path fill-rule="evenodd" clip-rule="evenodd" d="M90.1987 53.203C89.5333 53.7859 89.2481 53.883 88.7728 53.883C88.1075 53.883 87.7272 53.3973 87.7272 52.8143C87.7272 51.9399 88.5827 51.357 90.2937 50.7741V53.203H90.1987ZM94.5712 53.2029C94.191 53.4944 93.9058 53.5915 93.6206 53.5915C93.3355 53.5915 93.3355 53.4944 93.3355 52.5228V48.3451C93.3355 46.0133 91.6245 45.3333 89.6284 45.3333C88.0124 45.3333 86.8718 45.7219 85.446 46.6934V49.0252C86.7767 47.9565 87.8223 47.4707 88.8679 47.4707C89.7234 47.4707 90.1036 47.8593 90.1036 48.928V49.3166C86.9668 50.3854 84.6855 51.3569 84.6855 53.4944C84.6855 54.9517 85.8262 56.1176 87.252 56.1176C88.2976 56.1176 89.1531 55.7289 90.1987 54.6602C90.3888 55.6318 90.8641 56.1176 91.8146 56.1176C92.575 56.1176 93.3355 55.8261 94.4761 55.146V53.2029H94.5712Z" fill="#002C53"/>
<path fill-rule="evenodd" clip-rule="evenodd" d="M101.81 55.2415C100.621 55.9229 99.9804 56.1176 99.0654 56.1176C97.6013 56.1176 95.8628 55.2415 95.8628 52.6132V47.6487H94.4902V47.2593L98.4249 42.3921H98.8824V45.6044H101.627V47.6487H98.8824V52.0291C98.8824 53.0026 99.1569 53.684 99.9804 53.684C100.438 53.684 100.987 53.4893 101.81 52.9052V55.2415Z" fill="#002C53"/>
</svg>
