<svg width="150" height="100" viewBox="0 0 150 100" fill="none" xmlns="http://www.w3.org/2000/svg">
<path fill-rule="evenodd" clip-rule="evenodd" d="M66.289 47.5108C66.1537 45.3463 66.0185 43.1683 65.8832 40.9903C65.7479 38.8122 65.6126 36.6342 65.4773 34.4697C65.4232 33.8203 65.802 33.171 66.3431 32.4675L66.3428 32.4676C64.8278 32.6299 63.3127 32.7922 61.7436 32.9545C61.2565 34.4968 60.756 36.039 60.2555 37.5812C59.7549 39.1234 59.2544 40.6656 58.7674 42.2078C57.9557 40.8551 57.1306 39.5159 56.3054 38.1767L56.3054 38.1766L56.3054 38.1766L56.3053 38.1765L56.3053 38.1765L56.3052 38.1764C55.48 36.8371 54.6548 35.4978 53.8431 34.145C52.6527 34.3615 51.4081 34.5779 50.2176 34.7403C50.0553 34.7673 49.8794 34.7944 49.7035 34.8214C49.5277 34.8485 49.3518 34.8755 49.1895 34.9026C49.5141 35.0649 49.8929 35.2814 50.2176 35.4978C50.5423 35.7143 50.7587 36.039 50.8669 36.3636C51.5163 40.6926 52.1656 45.0758 52.7609 49.4048C52.815 49.8377 52.5985 50.3247 52.2739 50.7035C52.8691 50.5952 53.4779 50.4735 54.0866 50.3517L54.0867 50.3517L54.0868 50.3517L54.0868 50.3517L54.0869 50.3517L54.087 50.3517C54.6956 50.2299 55.3043 50.1082 55.8994 50C55.8484 49.9563 55.7955 49.9126 55.7419 49.8684L55.7418 49.8683C55.3973 49.5839 55.0263 49.2778 54.9795 48.8095C54.763 47.5378 54.5466 46.2526 54.3301 44.9674L54.3301 44.9671C54.1136 43.6821 53.8972 42.397 53.6808 41.1255C55.3583 43.8312 57.0358 46.5368 58.7674 49.2424C59.254 47.7593 59.7506 46.2763 60.2485 44.789L60.2486 44.7887L60.2487 44.7884L60.2488 44.7883L60.2489 44.7879L60.2491 44.7874C60.9138 42.8021 61.581 40.8092 62.2306 38.7987C62.447 41.829 62.6635 44.8052 62.8799 47.7814C62.8799 48.2684 62.6094 48.7554 62.1765 49.2965C63.0964 49.2154 64.0028 49.1342 64.9092 49.053C65.8156 48.9719 66.722 48.8907 67.6418 48.8095C66.9384 48.5931 66.3431 48.1602 66.289 47.5108ZM49.9469 49.946C48.8917 47.9168 47.8365 45.874 46.7813 43.8313L46.7807 43.83C45.7257 41.7877 44.6707 39.7454 43.6158 37.7166C43.4534 37.1213 43.6699 36.6343 43.9404 36.0391L42.317 36.3637C41.5865 36.5261 40.8695 36.6749 40.1525 36.8237L40.1525 36.8237L40.1525 36.8237L40.1524 36.8237L40.1524 36.8237L40.1523 36.8237C39.4354 36.9725 38.7185 37.1213 37.988 37.2837C38.0426 37.3164 38.0972 37.348 38.1512 37.3794L38.1515 37.3795L38.1515 37.3795C38.633 37.6587 39.0703 37.9122 39.0703 38.6906C38.8809 41.0715 38.6915 43.439 38.5021 45.8064C38.3127 48.1738 38.1233 50.5412 37.9339 52.9222C37.8798 53.4633 37.5551 53.9503 37.2305 54.3291C37.8798 54.1938 38.5427 54.045 39.2055 53.8962L39.2056 53.8962L39.2056 53.8962C39.8685 53.7474 40.5313 53.5986 41.1807 53.4633C40.6937 53.1386 40.3149 52.814 40.3149 52.3811C40.3428 51.7385 40.3852 51.1103 40.4271 50.4891C40.4663 49.9072 40.5052 49.3313 40.5313 48.7555L42.2088 48.3767L44.8062 47.8356C45.0497 48.2956 45.2932 48.769 45.5367 49.2425C45.7802 49.716 46.0238 50.1895 46.2673 50.6495C46.5369 51.2785 46.2841 51.6837 46.0357 52.082L46.0356 52.082C45.9849 52.1633 45.9344 52.2444 45.8885 52.3269C46.592 52.1646 47.309 51.9887 48.026 51.8129C48.7429 51.637 49.4599 51.4611 50.1634 51.2988C50.3257 51.2447 50.5016 51.2041 50.6774 51.1635C50.8533 51.1229 51.0292 51.0824 51.1915 51.0282C50.7586 50.8659 50.3798 50.6495 50.1634 50.433C50.0931 50.3276 50.0457 50.1994 50.0062 50.0928L50.0062 50.0928C49.9849 50.0352 49.9659 49.9839 49.9469 49.946ZM42.317 46.0499L40.8019 46.3746C40.856 45.4005 40.9237 44.4265 40.9913 43.4525C41.0589 42.4785 41.1266 41.5044 41.1807 40.5304C41.3701 40.9092 41.5595 41.2745 41.7489 41.6397L41.7489 41.6398C41.9383 42.005 42.1277 42.3703 42.317 42.749C42.7238 43.4812 43.1 44.2439 43.4686 44.9912L43.4686 44.9913L43.4686 44.9913L43.4686 44.9913C43.5904 45.2382 43.7113 45.4834 43.8322 45.7252L42.317 46.0499ZM33.0906 45.7251L33.0907 45.7254C33.5371 47.3487 33.9835 48.9719 34.4164 50.5952C34.5787 51.1904 34.9034 51.5151 35.3363 51.6233C34.9034 52.1104 34.4705 52.5974 34.3623 53.3008C33.767 55.4112 32.1978 56.9805 29.2216 57.0346C26.4077 57.0346 25.5419 55.6277 25.0008 54.0584C24.9467 53.8961 24.8926 53.6796 24.8926 53.5173V53.1926C25.0549 51.2987 27.9229 50.2164 28.7346 52.435C28.951 52.9762 28.8428 53.6796 28.6263 54.4372C29.4921 55.1407 31.8731 55.0865 31.4402 53.0844C30.8991 50.5231 30.2137 48.0099 29.5282 45.4966L29.5282 45.4966L29.5282 45.4966C29.1855 44.24 28.8428 42.9834 28.5181 41.7207C28.3383 41.0916 27.7107 40.8356 27.1621 40.6119C27.0501 40.5663 26.9415 40.522 26.8406 40.4762L32.5224 38.8528C32.468 38.9253 32.4136 38.9959 32.3602 39.0651C31.9354 39.6157 31.5726 40.0859 31.7649 40.8549C32.1978 42.4783 32.6442 44.1017 33.0906 45.7251ZM70.1848 33.8745V47.1861C70.1307 47.8355 69.5355 48.4307 68.832 48.9177H79.4381C79.5193 48.3496 79.6004 47.7679 79.6816 47.1861C79.7628 46.6044 79.8439 46.0227 79.9251 45.4545C79.8474 45.5408 79.7712 45.6299 79.6951 45.7186L79.6951 45.7187L79.6949 45.7189C79.2943 46.1865 78.9015 46.645 78.3558 46.645C77.5442 46.645 76.7325 46.6315 75.9208 46.618L75.9206 46.618C75.109 46.6044 74.2973 46.5909 73.4857 46.5909V41.5043H73.4858C74.6221 41.5043 75.7585 41.5043 76.8948 41.5584C77.4359 41.5584 77.9229 42.0996 78.41 42.6948V37.7164C77.9229 38.4199 77.4359 39.1234 76.8948 39.1234H73.5939V34.6861H78.2476C78.897 34.6861 79.7628 35.2273 80.2498 36.039V32.4675H69.4273C69.4794 32.5405 69.5375 32.6154 69.5978 32.6931L69.5978 32.6932C69.8505 33.0191 70.1412 33.3939 70.1848 33.8745ZM120.486 40.6827C120.439 40.5776 120.392 40.4728 120.347 40.3679C121.916 40.909 123.431 41.4501 125.001 42.0995L124.945 42.1194C124.203 42.3837 123.423 42.6618 123.107 43.5064L118.236 57.1428C117.939 57.0616 117.641 56.9669 117.344 56.8722C117.046 56.7775 116.748 56.6828 116.451 56.6017C115.477 52.5973 114.503 48.5389 113.583 44.4804C112.846 46.5597 112.145 48.6736 111.45 50.7667C111.277 51.2883 111.104 51.8086 110.931 52.3268C110.634 53.1698 111.018 53.831 111.417 54.5187C111.454 54.5814 111.49 54.6444 111.526 54.7077C110.228 54.2748 108.875 53.8419 107.522 53.409L107.035 53.2467C107.197 53.1926 107.36 53.1385 107.522 53.0302C108.063 52.7597 108.604 52.3809 108.929 51.6233C110.174 47.6731 111.364 43.7229 112.555 39.7185C112.764 38.9344 112.266 38.2512 111.841 37.6691L111.797 37.6082L116.018 38.9069C116.451 40.5844 116.87 42.2755 117.29 43.9665L117.29 43.9666L117.29 43.9667C117.709 45.6576 118.128 47.3485 118.561 49.0259C118.94 47.9713 119.332 46.9167 119.724 45.8621L119.725 45.8603C120.117 44.8051 120.509 43.7499 120.888 42.6947C121.074 41.9954 120.779 41.3363 120.486 40.6827ZM107.685 45.1839C108.172 42.8029 108.118 40.5843 107.523 38.7986C106.927 37.0129 105.683 35.7142 103.789 35.2272C102.977 35.0107 102.219 34.9566 101.516 35.0107C98.4316 35.3354 96.2671 38.2575 95.3472 42.1536C94.4273 45.9956 95.1308 50.6493 98.9186 51.948C99.7844 52.2726 100.704 52.3267 101.516 52.2185C104.222 51.8397 106.603 49.4588 107.523 45.8332C107.631 45.6709 107.685 45.4545 107.685 45.1839ZM104.33 44.3181C103.789 46.6449 102.977 49.0259 101.57 49.7835C101.083 50.054 100.542 50.1081 99.8927 49.9458C97.5605 49.2721 98.3554 45.5706 98.9021 43.0246L98.9029 43.0208C98.9268 42.9098 98.9501 42.801 98.9727 42.6947C99.4056 40.5302 100.001 37.9869 101.57 37.3376C102.003 37.1752 102.49 37.1211 103.031 37.2293C105.304 37.7164 104.979 41.2878 104.33 44.3181ZM88.3134 32.738C89.558 32.738 90.8025 33.2792 92.0471 33.8203C92.48 34.1991 92.967 33.8203 93.3999 33.3333C93.3188 34.2532 93.2376 35.1596 93.1564 36.066C93.0753 36.9723 92.9941 37.8787 92.9129 38.7986C91.7225 36.7965 90.4779 34.7402 88.3134 35.0108C87.0147 35.1731 86.3112 35.7142 86.203 36.9047C86.3112 38.5822 88.151 39.5021 90.045 40.3679C91.7766 41.3419 92.967 42.9112 92.9129 45.2921C92.8047 47.9978 90.9108 49.7294 87.8264 50.1082C86.3653 50.3246 84.9043 49.8376 83.6597 49.0259C83.0644 48.6471 82.5233 48.9718 82.1445 49.3506V43.9934C83.335 46.1038 84.9043 47.7813 87.1229 48.106C88.638 48.3225 89.5038 47.132 89.3956 45.8874C89.2202 44.2647 87.9074 43.5307 86.6383 42.821C86.3415 42.655 86.047 42.4903 85.7701 42.316C83.822 41.0714 82.5233 39.448 82.7398 37.2294C83.0103 34.2532 85.229 32.738 88.3134 32.738Z" fill="black"/>
<path fill-rule="evenodd" clip-rule="evenodd" d="M46.05 65.9632V65.7467H46.1041L46.05 65.9632ZM46.05 64.5562L46.1041 64.6103L47.5111 65.9632C47.5652 65.9632 47.6734 65.9632 47.7816 65.9632C47.8899 65.9632 47.9981 65.9632 48.2145 65.9632C48.4851 65.9632 48.7015 65.9632 48.918 65.9632C49.0803 65.9632 49.2427 65.9632 49.3509 65.9632V65.7467C49.1886 65.7467 49.0803 65.6926 48.918 65.6385C48.7557 65.5844 48.6474 65.4761 48.5392 65.3679L47.6734 64.6103C47.6734 64.6103 47.6734 64.5562 47.6193 64.5562C47.2946 64.2316 47.0241 64.0692 46.9158 64.0151C47.4028 63.961 47.7275 63.8528 47.9981 63.6904C48.2686 63.5281 48.3769 63.3116 48.3769 63.0411C48.3769 62.7164 48.2145 62.4458 47.7816 62.2835C47.4028 62.1212 46.8617 62.0671 46.1041 62.0129V62.2835C46.3206 62.3376 46.4829 62.3917 46.6453 62.4458C46.8076 62.5541 46.9158 62.7705 46.9158 63.0411C46.9158 63.3116 46.8076 63.5281 46.5912 63.6363C46.4829 63.6904 46.3206 63.7987 46.1041 63.7987V64.5562H46.05ZM49.6215 62.0129C49.9461 62.0129 50.2167 62.0129 50.4331 62.0129C50.7037 62.0129 50.9202 62.0129 51.1366 62.0129C51.4072 62.0129 51.6236 62.0129 51.8942 62.0129C52.1647 62.0129 52.3812 62.0129 52.6518 62.0129V62.2294H52.5976C52.3271 62.2294 52.1106 62.2835 52.0024 62.3376C51.8942 62.3917 51.8401 62.5541 51.8401 62.7705V65.1515C51.8401 65.3679 51.8942 65.5303 52.0024 65.5844C52.1106 65.6385 52.3271 65.6926 52.6518 65.6926V65.909C52.3271 65.909 52.0565 65.909 51.786 65.909C51.5154 65.909 51.2989 65.909 51.0825 65.909C50.866 65.909 50.5955 65.909 50.3249 65.909C50.0544 65.909 49.7838 65.909 49.5132 65.909V65.6926C49.8379 65.6926 50.0544 65.6385 50.2167 65.5844C50.3249 65.5303 50.379 65.3679 50.379 65.1515V62.7705C50.379 62.5541 50.3249 62.3917 50.2167 62.3376C50.1085 62.2835 49.9461 62.2294 49.6215 62.2294H49.5132V62.0129H49.6215ZM56.6561 62.2294L56.7643 62.0129H57.1431C57.1431 62.1753 57.1431 62.3917 57.1431 62.5541C57.1431 62.7164 57.1431 62.9329 57.1431 63.0952H56.7643C56.6561 62.8246 56.4937 62.6082 56.2232 62.4458C55.9526 62.2835 55.6821 62.2294 55.3033 62.2294C55.0327 62.2294 54.8163 62.2835 54.6539 62.3917C54.4916 62.5 54.4375 62.6082 54.4375 62.7705C54.4375 62.987 54.7621 63.2034 55.4115 63.3658H55.4656C56.3314 63.6363 56.8725 63.8528 57.1431 64.0692C57.4137 64.2857 57.5219 64.5021 57.5219 64.8268C57.5219 65.2056 57.3595 65.4761 56.9808 65.7467C56.602 65.9632 56.115 66.0714 55.4656 66.0714C55.0868 66.0714 54.8163 66.0714 54.5998 65.9632C54.3292 65.909 54.1128 65.8008 53.8963 65.6926L53.7881 65.9632H53.4093C53.4093 65.8549 53.4093 65.8008 53.4093 65.6926C53.4093 65.5844 53.4093 65.5303 53.4093 65.422C53.4093 65.3138 53.4093 65.2056 53.4093 65.0432C53.4093 64.935 53.4093 64.8268 53.4093 64.7186H53.7881C53.8963 65.0432 54.1128 65.3138 54.3292 65.4761C54.5998 65.6385 54.9245 65.7467 55.3033 65.7467C55.6279 65.7467 55.8985 65.6926 56.0609 65.5844C56.2232 65.4761 56.3314 65.3138 56.3314 65.1515C56.3314 64.9891 56.2773 64.8809 56.115 64.7727C55.9526 64.6645 55.6279 64.5562 55.1409 64.3939C54.4916 64.2316 54.0587 64.0151 53.7881 63.8528C53.5717 63.6363 53.4093 63.4199 53.4093 63.1493C53.4093 62.8246 53.5717 62.5541 53.8963 62.3376C54.221 62.1212 54.6539 62.0129 55.195 62.0129C55.5197 62.0129 55.7362 62.0129 56.0067 62.0671C56.2773 62.0671 56.4937 62.1212 56.6561 62.2294ZM58.1712 62.0129C58.4959 62.0129 58.7665 62.0129 58.9829 62.0129C59.2535 62.0129 59.4699 62.0129 59.6323 62.0129C59.8487 62.0129 60.1193 62.0129 60.3899 62.0129C60.6604 62.0129 60.8769 62.0129 61.1474 62.0129V62.2294H61.0392C60.7686 62.2294 60.6063 62.2835 60.4981 62.3376C60.3899 62.3917 60.3357 62.5541 60.3357 62.7164V63.6904H62.9331V62.7705C62.9331 62.5541 62.879 62.3917 62.7708 62.3376C62.6626 62.2835 62.4461 62.2835 62.1215 62.2294V62.0129C62.392 62.0129 62.6085 62.0129 62.879 62.0129C63.1496 62.0129 63.5284 62.0129 64.0154 62.0129C64.3401 62.0129 64.5565 62.0129 64.7189 62.0129C64.8812 62.0129 64.9894 62.0129 65.1518 62.0129V62.2294C64.8271 62.2294 64.6647 62.2835 64.5565 62.3376C64.4483 62.3917 64.3942 62.5541 64.3942 62.7164V65.0974C64.3942 65.3138 64.4483 65.4761 64.5565 65.5303C64.6647 65.5844 64.8812 65.6385 65.2059 65.6385V65.8549C64.9353 65.8549 64.6647 65.8549 64.3942 65.8549C64.1236 65.8549 63.9072 65.8549 63.6907 65.8549C63.4743 65.8549 63.2037 65.8549 62.9873 65.8549C62.7708 65.8549 62.5002 65.8549 62.2297 65.8549V65.6385C62.5544 65.6385 62.7708 65.5844 62.879 65.5303C62.9873 65.4761 63.0414 65.3138 63.0414 65.0974V64.0151H60.444V65.0974C60.444 65.3138 60.4981 65.4761 60.6063 65.5303C60.7145 65.6385 60.931 65.6385 61.2557 65.6385V65.8549C60.931 65.8549 60.6604 65.8549 60.444 65.8549C60.1734 65.8549 59.957 65.8549 59.7405 65.8549C59.524 65.8549 59.2535 65.8549 58.9829 65.8549C58.7124 65.8549 58.4959 65.8549 58.2254 65.8549V65.6385C58.55 65.6385 58.7665 65.5844 58.8747 65.5303C58.9829 65.4761 59.037 65.3138 59.037 65.0974V62.7705C59.037 62.5541 58.9829 62.3917 58.8747 62.3376C58.7665 62.2835 58.55 62.2294 58.2795 62.2294H58.2254V62.0129H58.1712ZM68.7232 62.7164C68.6691 62.5541 68.5608 62.4458 68.4526 62.3917C68.3444 62.3376 68.1821 62.2835 67.9115 62.2835V62.0671C68.1821 62.0671 68.4526 62.0671 68.6691 62.0671C68.8855 62.0671 69.102 62.0671 69.3184 62.0671C69.4808 62.0671 69.7513 62.0671 70.076 62.0671C70.4548 62.0671 70.6712 62.0671 70.7795 62.0671V62.2835C70.5089 62.2835 70.3466 62.2835 70.2383 62.3376C70.1301 62.3917 70.076 62.4458 70.076 62.5541C70.076 62.5541 70.076 62.6082 70.076 62.6623C70.076 62.7164 70.1301 62.7705 70.1842 62.8787L71.05 64.6645L72.3487 62.0671H72.7816L74.1344 64.6645L74.8379 63.1493C74.892 63.0411 74.9461 62.9329 75.0002 62.8246C75.0544 62.7164 75.0544 62.6623 75.0544 62.6082C75.0544 62.5 75.0002 62.3917 74.892 62.3376C74.7838 62.2835 74.6215 62.2294 74.405 62.2294V62.0129C74.6215 62.0129 74.7838 62.0129 74.9461 62.0129C75.1085 62.0129 75.2167 62.0129 75.3249 62.0129C75.4873 62.0129 75.7037 62.0129 75.8119 62.0129C75.9743 62.0129 76.1366 62.0129 76.2448 62.0129V62.2294C75.9202 62.2294 75.7037 62.3917 75.4873 62.7705L73.9721 66.0173H73.5392L72.2405 63.4199L70.8877 66.0173H70.4548L68.7232 62.7164ZM76.7318 62.0129C77.0565 62.0129 77.3271 62.0129 77.5435 62.0129C77.8141 62.0129 78.0305 62.0129 78.1929 62.0129C78.4093 62.0129 78.6799 62.0129 78.8963 62.0129C79.1669 62.0129 79.3834 62.0129 79.6539 62.0129V62.2294C79.3834 62.2294 79.221 62.2835 79.1128 62.3376C79.0046 62.3917 78.9505 62.5541 78.9505 62.7164V63.6904H81.5479V62.7705C81.5479 62.5541 81.4937 62.3917 81.3855 62.3376C81.2773 62.2835 81.0608 62.2835 80.7362 62.2294V62.0129C81.0067 62.0129 81.2232 62.0129 81.4937 62.0129C81.7643 62.0129 82.1431 62.0129 82.6301 62.0129C82.9548 62.0129 83.1712 62.0129 83.3336 62.0129C83.4959 62.0129 83.6041 62.0129 83.7665 62.0129V62.2294C83.4418 62.2294 83.2795 62.2835 83.1712 62.3376C83.063 62.3917 83.0089 62.5541 83.0089 62.7164V65.0974C83.0089 65.3138 83.063 65.4761 83.1712 65.5303C83.2795 65.5844 83.4959 65.6385 83.8206 65.6385V65.8549C83.55 65.8549 83.2795 65.8549 83.0089 65.8549C82.7383 65.8549 82.5219 65.8549 82.3054 65.8549C82.089 65.8549 81.8184 65.8549 81.5479 65.8549C81.3314 65.8549 81.0608 65.8549 80.7903 65.8549V65.6385C81.115 65.6385 81.3314 65.5844 81.4396 65.5303C81.5479 65.4761 81.602 65.3138 81.602 65.0974V64.0151H79.0046V65.0974C79.0046 65.3138 79.0587 65.4761 79.1669 65.5303C79.2751 65.6385 79.4916 65.6385 79.8163 65.6385V65.8549C79.5457 65.8549 79.2751 65.8549 79.0046 65.8549C78.734 65.8549 78.5176 65.8549 78.3011 65.8549C78.0847 65.8549 77.8141 65.8549 77.5435 65.8549C77.273 65.8549 77.0565 65.8549 76.786 65.8549V65.6385C77.1106 65.6385 77.3271 65.5844 77.4353 65.5303C77.5435 65.4761 77.5976 65.3138 77.5976 65.0974V62.7705C77.5976 62.5541 77.5435 62.3917 77.4353 62.3376C77.3271 62.2835 77.1106 62.2294 76.8401 62.2294H76.786V62.0129H76.7318ZM84.4158 62.0129C84.6864 62.0129 84.957 62.0129 85.2275 62.0129C85.4981 62.0129 85.7145 62.0129 85.931 62.0129C86.2015 62.0129 86.418 62.0129 86.6886 62.0129C86.9591 62.0129 87.2297 62.0129 87.4461 62.0129V62.2294H87.3379C87.0673 62.2294 86.8509 62.2835 86.7427 62.3376C86.6344 62.3917 86.5803 62.5541 86.5803 62.7705V65.1515C86.5803 65.3679 86.6344 65.5303 86.7427 65.5844C86.8509 65.6385 87.0673 65.6926 87.392 65.6926V65.909C87.0673 65.909 86.7968 65.909 86.5262 65.909C86.2556 65.909 86.0392 65.909 85.8228 65.909C85.6063 65.909 85.3357 65.909 85.0652 65.909C84.7946 65.909 84.524 65.909 84.3076 65.909V65.6926C84.6323 65.6926 84.8487 65.6385 84.957 65.5844C85.0652 65.5303 85.1193 65.3679 85.1193 65.1515V62.7705C85.1193 62.5541 85.0652 62.3917 84.957 62.3376C84.8487 62.2835 84.6864 62.2294 84.3617 62.2294H84.2535V62.0129H84.4158ZM91.4505 62.2294L91.5587 62.0129H91.9916C91.9916 62.1753 91.9916 62.3917 91.9916 62.5541C91.9916 62.7164 91.9916 62.9329 91.9916 63.0952H91.6128C91.5046 62.8246 91.3422 62.6082 91.0717 62.4458C90.8011 62.2835 90.5305 62.2294 90.1518 62.2294C89.8812 62.2294 89.6647 62.2835 89.5024 62.3917C89.3401 62.5 89.286 62.6082 89.286 62.7705C89.286 62.987 89.6106 63.2034 90.26 63.3658C90.26 63.3658 90.26 63.3658 90.3141 63.3658C91.1799 63.6363 91.721 63.8528 91.9916 64.0692C92.2621 64.2857 92.3704 64.5021 92.3704 64.8268C92.3704 65.2056 92.208 65.4761 91.8292 65.7467C91.4505 65.9632 90.9634 66.0714 90.3141 66.0714C89.9894 66.0714 89.6647 66.0714 89.4483 65.9632C89.1777 65.909 88.9613 65.8008 88.7448 65.6926L88.6366 65.9632H88.2578C88.2578 65.8549 88.2578 65.8008 88.2578 65.6926C88.2578 65.5844 88.2578 65.5303 88.2578 65.422C88.2578 65.3138 88.2578 65.2056 88.2578 65.0432C88.2578 64.935 88.2578 64.8268 88.2578 64.7186H88.6366C88.7448 65.0432 88.9613 65.3138 89.1777 65.4761C89.4483 65.6385 89.773 65.7467 90.1518 65.7467C90.4764 65.7467 90.747 65.6926 90.9093 65.5844C91.0717 65.4761 91.1799 65.3138 91.1799 65.1515C91.1799 64.9891 91.1258 64.8809 90.9634 64.7727C90.8011 64.6645 90.4764 64.5562 89.9894 64.3939C89.3401 64.2316 88.9072 64.0151 88.6366 63.8528C88.4202 63.6363 88.2578 63.4199 88.2578 63.1493C88.2578 62.8246 88.4202 62.5541 88.7448 62.3376C89.0695 62.1212 89.5024 62.0129 90.0435 62.0129C90.3682 62.0129 90.5847 62.0129 90.8552 62.0671C91.0717 62.0671 91.2881 62.1212 91.4505 62.2294ZM92.9115 62.0129C93.1279 62.0129 93.3444 62.0129 93.5608 62.0129C93.7773 62.0129 94.102 62.0129 94.4266 62.0129C94.6972 62.0129 94.9137 62.0129 95.1842 62.0129C95.4007 62.0129 95.6712 62.0129 95.8877 62.0129V62.2294C95.6171 62.2294 95.4007 62.2835 95.3466 62.3376C95.2383 62.3917 95.1842 62.5541 95.1842 62.8246V64.0692L95.9959 63.474C96.4288 63.1493 96.6994 62.9329 96.8617 62.7705C97.0241 62.6082 97.0782 62.5 97.0782 62.4458C97.0782 62.3917 97.024 62.3376 96.9158 62.2835C96.8076 62.2835 96.6453 62.2294 96.4288 62.2294V62.0129C96.5911 62.0129 96.7535 62.0129 96.9699 62.0129C97.1323 62.0129 97.4028 62.0129 97.7275 62.0129C97.8898 62.0129 98.1063 62.0129 98.2686 62.0129C98.431 62.0129 98.5392 62.0129 98.7015 62.0129V62.2294C98.4851 62.2294 98.3228 62.2835 98.1604 62.3376C97.9981 62.3917 97.8357 62.5 97.6193 62.6623L96.537 63.5281L98.7557 65.422C98.8639 65.5303 98.9721 65.5844 99.1344 65.6385C99.2427 65.6926 99.405 65.6926 99.5132 65.7467V65.9632C99.2427 65.9632 99.0262 65.9632 98.7557 65.9632C98.5392 65.9632 98.2686 65.9632 98.0522 65.9632C97.7816 65.9632 97.5111 65.9632 97.2405 65.9632C96.9699 65.9632 96.7535 65.9632 96.537 65.9632V65.7467H96.6453C96.8076 65.7467 96.9158 65.7467 97.0241 65.6926C97.1323 65.6926 97.1323 65.6385 97.1323 65.5844C97.1323 65.5844 97.1323 65.5303 97.0782 65.4761C97.0782 65.422 97.024 65.3679 96.9699 65.3679L95.6712 64.1774L95.1842 64.5562V65.2056C95.1842 65.422 95.2383 65.5844 95.3466 65.6385C95.4548 65.6926 95.6712 65.7467 95.9959 65.7467V65.9632C95.8336 65.9632 95.6171 65.9632 95.4007 65.9632C95.1842 65.9632 94.8595 65.9632 94.5349 65.9632C94.1561 65.9632 93.8855 65.9632 93.615 65.9632C93.3985 65.9632 93.1821 65.9632 93.0197 65.9632V65.7467C93.3444 65.7467 93.5608 65.6926 93.6691 65.6385C93.7773 65.5844 93.8314 65.422 93.8314 65.2597V62.7705C93.8314 62.5541 93.7773 62.4458 93.6691 62.3917C93.5608 62.3376 93.3444 62.2835 93.0197 62.2835V62.0129H92.9115ZM99.6214 62.0129C99.6214 62.0129 99.6756 62.0129 99.7297 62.0129C100.595 62.0129 101.191 62.0129 101.57 62.0129C101.84 62.0129 102.219 62.0129 102.706 62.0129C103.193 62.0129 103.788 62.0129 104.383 62.0129V62.987H104.005C103.896 62.7164 103.734 62.5 103.518 62.4458C103.301 62.3376 102.868 62.2835 102.219 62.2835C102.002 62.2835 101.84 62.2835 101.786 62.3376C101.732 62.3376 101.732 62.3917 101.732 62.5V63.7987H101.894C102.219 63.7987 102.489 63.7445 102.652 63.6363C102.814 63.5281 102.922 63.3658 102.976 63.0952H103.355C103.355 63.2034 103.355 63.3116 103.355 63.4199C103.355 63.5281 103.355 63.6904 103.355 63.8528C103.355 64.0151 103.355 64.1233 103.355 64.2857C103.355 64.3939 103.355 64.5562 103.355 64.6645H102.976C102.922 64.448 102.814 64.2857 102.652 64.1774C102.489 64.0692 102.219 64.0151 101.894 64.0151H101.84V65.0432C101.84 65.2597 101.894 65.3679 102.057 65.4761C102.219 65.5844 102.489 65.6385 102.814 65.6385C103.355 65.6385 103.734 65.5844 103.95 65.4761C104.167 65.3679 104.329 65.0974 104.437 64.7727H104.762V65.9632C104.275 65.9632 103.788 65.9632 103.301 65.9632C102.814 65.9632 102.057 65.9632 101.028 65.9632C100.595 65.9632 100.271 65.9632 100.108 65.9632C99.892 65.9632 99.7297 65.9632 99.5673 65.9632V65.6926C99.892 65.6926 100.108 65.6385 100.217 65.5844C100.325 65.4761 100.379 65.2597 100.379 64.935V62.7705C100.379 62.5541 100.325 62.3917 100.217 62.3376C100.108 62.2835 99.892 62.2294 99.6214 62.2294H99.5673V62.0129H99.6214ZM111.093 62.0671V62.2835C110.931 62.2835 110.823 62.3376 110.715 62.3917C110.606 62.4458 110.498 62.5 110.444 62.6082L108.875 64.3398V65.1515C108.875 65.3679 108.929 65.5303 109.037 65.5844C109.145 65.6385 109.416 65.6926 109.741 65.6926V65.909C109.524 65.909 109.308 65.909 109.037 65.909C108.766 65.909 108.442 65.909 108.063 65.909C107.63 65.909 107.305 65.909 107.143 65.909C106.981 65.909 106.818 65.909 106.656 65.909V65.6926C106.981 65.6926 107.197 65.6385 107.36 65.5844C107.468 65.5303 107.522 65.3679 107.522 65.2056V64.3939L106.169 62.7705C106.007 62.5541 105.844 62.3917 105.736 62.3917C105.628 62.3376 105.466 62.2835 105.303 62.2835V62.0671C105.52 62.0671 105.79 62.0671 106.007 62.0671C106.223 62.0671 106.494 62.0671 106.71 62.0671C107.143 62.0671 107.63 62.0671 108.171 62.0671C108.171 62.0671 108.171 62.0671 108.225 62.0671V62.2835C108.009 62.2835 107.847 62.2835 107.738 62.3376C107.63 62.3917 107.576 62.4458 107.576 62.5C107.576 62.5541 107.576 62.6082 107.63 62.6623C107.684 62.7164 107.792 62.8246 107.901 62.987L108.766 64.0151L109.632 63.0952C109.74 62.987 109.795 62.8787 109.903 62.7705C109.957 62.6623 109.957 62.6082 109.957 62.5541C109.957 62.4458 109.903 62.3917 109.849 62.3376C109.741 62.2835 109.578 62.2835 109.362 62.2835V62.0671C109.416 62.0671 109.524 62.0671 109.632 62.0671C109.74 62.0671 109.903 62.0671 110.173 62.0671C110.336 62.0671 110.606 62.0671 111.039 62.0671C110.931 62.0671 111.039 62.0671 111.093 62.0671ZM39.3401 62.0129C39.6647 62.0129 39.9353 62.0129 40.1518 62.0129C40.4223 62.0129 40.6388 62.0129 40.8552 62.0129C41.1258 62.0129 41.3422 62.0129 41.6128 62.0129C41.8834 62.0129 42.1539 62.0129 42.3704 62.0129V62.2294H42.3163C42.0457 62.2294 41.8292 62.2835 41.721 62.3376C41.6128 62.3917 41.5587 62.5541 41.5587 62.7705V65.1515C41.5587 65.3679 41.6128 65.5303 41.721 65.5844C41.8292 65.6385 42.0457 65.6926 42.3704 65.6926V65.909C42.0457 65.909 41.7751 65.909 41.5046 65.909C41.234 65.909 41.0176 65.909 40.8011 65.909C40.5847 65.909 40.3141 65.909 40.0435 65.909C39.773 65.909 39.5024 65.909 39.2318 65.909V65.6926C39.5565 65.6926 39.773 65.6385 39.8812 65.5844C39.9894 65.5303 40.0435 65.3679 40.0435 65.1515V62.7705C40.0435 62.5541 39.9894 62.3917 39.8812 62.3376C39.773 62.2835 39.6106 62.2294 39.286 62.2294H39.1777V62.0129H39.3401ZM46.05 62.0129V62.2835C45.9418 62.2835 45.7795 62.2835 45.6171 62.2835C45.4548 62.2835 45.3466 62.2835 45.2925 62.3376C45.2383 62.3376 45.2383 62.4458 45.2383 62.5V63.9069C45.2383 63.9069 45.2925 63.9069 45.3466 63.9069C45.4007 63.9069 45.4548 63.9069 45.5089 63.9069C45.6712 63.9069 45.8877 63.9069 46.05 63.8528V64.5021C45.8877 64.3398 45.7795 64.2316 45.6712 64.1774C45.563 64.1233 45.4548 64.1233 45.2925 64.1233C45.2925 64.1233 45.2925 64.1233 45.2383 64.1233C45.2383 64.1233 45.2383 64.1233 45.1842 64.1233V65.0974C45.1842 65.3138 45.2383 65.422 45.3466 65.5303C45.4548 65.5844 45.6712 65.6385 45.9959 65.6385V65.8549C45.563 65.8549 45.1842 65.8549 44.8596 65.8549C44.5349 65.8549 44.2643 65.8549 44.0479 65.8549C43.7773 65.8549 43.5609 65.8549 43.3985 65.8549C43.2362 65.8549 43.1279 65.8549 43.0197 65.8549V65.6385C43.3444 65.6385 43.5608 65.5844 43.7232 65.5303C43.8314 65.4761 43.8855 65.3138 43.8855 65.0974V62.7164C43.8855 62.5 43.8314 62.3917 43.7232 62.3376C43.615 62.2835 43.3985 62.2294 43.0197 62.2294V62.0129C43.1279 62.0129 43.2362 62.0129 43.3985 62.0129C43.5609 62.0129 43.7232 62.0129 43.9938 62.0129C44.2102 62.0129 44.5349 62.0129 45.0219 62.0129C45.4548 62.0129 45.7795 62.0129 45.9418 62.0129C45.9959 62.0129 45.9959 62.0129 46.05 62.0129Z" fill="black"/>
<path fill-rule="evenodd" clip-rule="evenodd" d="M111.147 60.3896H39.3398V60.7684H111.147V60.3896Z" fill="black"/>
<path fill-rule="evenodd" clip-rule="evenodd" d="M111.147 67.2078H39.3398V67.5324H111.147V67.2078Z" fill="black"/>
</svg>
