<svg width="150" height="100" viewBox="0 0 150 100" fill="none" xmlns="http://www.w3.org/2000/svg">
<path fill-rule="evenodd" clip-rule="evenodd" d="M37.6582 53.8638C37.6582 55.725 37.1223 58.7565 32.5533 58.7565C29.9924 58.7565 27.5 57.4419 27.5 54.2894V53.0376H30.5499V53.6831C30.5499 55.081 30.9172 56.0894 32.5082 56.0894C34.2911 56.0894 34.2911 54.7325 34.2911 53.7223V43.9808H37.6582V53.8638Z" fill="black"/>
<mask id="mask0_2782_1929" style="mask-type:luminance" maskUnits="userSpaceOnUse" x="38" y="43" width="15" height="16">
<path fill-rule="evenodd" clip-rule="evenodd" d="M38.5918 43.2435H52.3482V58.7564H38.5918V43.2435Z" fill="white"/>
</mask>
<g mask="url(#mask0_2782_1929)">
<path fill-rule="evenodd" clip-rule="evenodd" d="M49.0751 48.5734C48.8725 47.1019 47.4658 45.9818 45.8469 45.9818C42.9339 45.9818 41.8392 48.4685 41.8392 51.0619C41.8392 53.5313 42.9339 56.0196 45.8469 56.0196C47.8356 56.0196 48.956 54.653 49.2005 52.6994H52.3482C52.0169 56.3887 49.4706 58.7565 45.8469 58.7565C41.2765 58.7565 38.5918 55.3395 38.5918 51.0619C38.5918 46.6684 41.2765 43.2435 45.8469 43.2435C49.0992 43.2435 51.832 45.1534 52.2227 48.5734H49.0751Z" fill="black"/>
</g>
<path fill-rule="evenodd" clip-rule="evenodd" d="M53.3584 58.7565H59.6612C64.1251 58.7565 66.2871 55.5705 66.2871 51.2859C66.2871 46.3837 63.4475 43.9808 59.6612 43.9808H53.3584V58.7565ZM56.5701 46.7133H58.861C62.0554 46.7133 63.0799 48.6177 63.0799 51.5978C63.0799 54.8676 61.2997 56.0272 59.4385 56.0272H56.5701V46.7133Z" fill="black"/>
<path fill-rule="evenodd" clip-rule="evenodd" d="M77.3514 53.9172C77.5504 50.683 75.8772 47.6747 72.4094 47.6747C69.3171 47.6747 67.209 50.0745 67.209 53.2234C67.209 56.4797 69.1976 58.7564 72.4094 58.7564C74.7106 58.7564 76.3869 57.6947 77.1753 55.2142H74.7106C74.5374 55.8685 73.6282 56.5794 72.5042 56.5794C70.949 56.5794 70.081 55.7452 70.0044 53.9172H77.3514ZM70.0042 52.0859C70.044 51.2738 70.5569 49.8503 72.3297 49.8503C73.6861 49.8503 74.3002 50.6212 74.5512 52.0859H70.0042Z" fill="black"/>
<path fill-rule="evenodd" clip-rule="evenodd" d="M85.6201 51.6625C85.4497 50.4807 84.7077 49.8503 83.5305 49.8503C81.7167 49.8503 81.1203 51.7225 81.1203 53.2709C81.1203 54.7688 81.6952 56.5792 83.4719 56.5792C84.7853 56.5792 85.5428 55.7261 85.7225 54.443H88.4502C88.0955 57.2285 86.1995 58.7564 83.492 58.7564C80.3801 58.7564 78.292 56.5161 78.292 53.3672C78.292 50.0983 80.1988 47.6747 83.5508 47.6747C85.9842 47.6747 88.2195 48.9765 88.3959 51.6625H85.6201Z" fill="black"/>
<path fill-rule="evenodd" clip-rule="evenodd" d="M92.5611 51.1948C92.6536 50.0571 93.3634 49.6053 94.449 49.6053C95.458 49.6053 96.3024 49.7886 96.3024 51.0259C96.3024 52.2091 94.6746 52.146 92.9154 52.4145C91.1419 52.6593 89.373 53.2234 89.373 55.6047C89.373 57.761 90.9413 58.7564 92.9154 58.7564C94.1859 58.7564 95.5175 58.4088 96.4262 57.4548C96.4464 57.7959 96.5266 58.1465 96.6315 58.4689H99.5313C99.2666 58.0408 99.1727 57.088 99.1727 56.1337V50.6654C99.1727 48.1486 96.6708 47.6747 94.5932 47.6747C92.2525 47.6747 89.8555 48.4899 89.6957 51.1948H92.5611ZM96.3022 54.4052C96.3022 55.034 96.2253 56.8212 93.9849 56.8212C93.0607 56.8212 92.2351 56.5602 92.2351 55.4813C92.2351 54.4242 93.0388 54.1209 93.9257 53.9361C94.8123 53.7701 95.8228 53.7528 96.3022 53.3246V54.4052Z" fill="black"/>
<path fill-rule="evenodd" clip-rule="evenodd" d="M111.535 58.4614H108.713V56.9631H108.642C107.89 58.1679 106.59 58.7564 105.336 58.7564C102.175 58.7564 101.377 56.9809 101.377 54.3102V47.6747H104.358V53.7668C104.358 55.5426 104.874 56.4198 106.258 56.4198C107.874 56.4198 108.563 55.5215 108.563 53.3341V47.6747H111.535V58.4614Z" fill="black"/>
<mask id="mask1_2782_1929" style="mask-type:luminance" maskUnits="userSpaceOnUse" x="111" y="47" width="12" height="12">
<path fill-rule="evenodd" clip-rule="evenodd" d="M111.551 47.8701H122.501V58.6029H111.551V47.8701Z" fill="white"/>
</mask>
<g mask="url(#mask1_2782_1929)">
<path fill-rule="evenodd" clip-rule="evenodd" d="M115.346 52.9558L111.877 47.8701H115.175L117.035 50.6696L118.87 47.8701H122.071L118.604 52.8946L122.501 58.6029H119.199L116.993 55.2211L114.791 58.6029H111.551L115.346 52.9558Z" fill="black"/>
</g>
</svg>
