<svg preserveAspectRatio="none" width="100%" height="100%" overflow="visible" style="display: block;" viewBox="0 0 169.217 24" fill="none" xmlns="http://www.w3.org/2000/svg">
<g id="Logo_of_JPMorganChase_2024 1" clip-path="url(#clip0_0_628)">
<path id="Vector" d="M45.2616 17.6419C45.6863 17.8128 46.3158 17.9228 47.15 17.9735V18.3306H37.7348V17.9735C38.5673 17.9228 39.1985 17.8128 39.6233 17.6419C40.048 17.4727 40.3424 17.2002 40.5032 16.8246C40.6639 16.4506 40.7452 15.8973 40.7452 15.1662V3.78473H40.669L34.2134 18.6623H34.1373L27.2214 3.83718H27.1452V15.1662C27.1452 15.8973 27.2298 16.4506 27.4007 16.8246C27.57 17.1985 27.8644 17.471 28.2807 17.6419C28.6969 17.8128 29.323 17.9228 30.1556 17.9735V18.3306H22.9723V17.9735C23.8049 17.9228 24.431 17.8128 24.8473 17.6419C25.2635 17.4727 25.558 17.2002 25.7272 16.8246C25.8964 16.4506 25.9827 15.8973 25.9827 15.1662V3.75934C25.9827 3.02833 25.8981 2.47499 25.7272 2.10102C25.5563 1.72705 25.2635 1.45461 24.8473 1.2837C24.4293 1.11449 23.8049 1.0028 22.9723 0.952039V0.594992H29.4161L35.3015 13.4436L41.0091 0.594992H47.15V0.952039C46.3158 1.0028 45.6863 1.11449 45.2616 1.2837C44.8368 1.45461 44.539 1.73044 44.3681 2.11287C44.1972 2.4953 44.1126 3.04356 44.1126 3.75934V15.1662C44.1126 15.8973 44.1972 16.4506 44.3681 16.8246C44.539 17.2002 44.8368 17.471 45.2616 17.6419ZM58.0543 9.04229C58.5806 10.0119 58.8446 11.1084 58.8446 12.3336C58.8446 13.5587 58.5806 14.6552 58.0543 15.6248C57.5264 16.5944 56.792 17.3441 55.8478 17.8703C54.9035 18.3983 53.8273 18.6623 52.6191 18.6623C51.4109 18.6623 50.3398 18.3983 49.404 17.8703C48.4682 17.3441 47.7321 16.5944 47.1974 15.6248C46.661 14.6552 46.3936 13.5587 46.3936 12.3336C46.3936 11.1084 46.661 10.0119 47.1974 9.04229C47.7338 8.07268 48.4682 7.32474 49.404 6.79678C50.3398 6.26883 51.4109 6.00485 52.6191 6.00485C53.8273 6.00485 54.9035 6.26883 55.8478 6.79678C56.792 7.32474 57.5264 8.07268 58.0543 9.04229ZM55.5026 12.3336C55.5026 11.1253 55.3875 10.088 55.1574 9.21997C54.9272 8.35188 54.5956 7.69363 54.1624 7.24182C53.7292 6.79171 53.2131 6.56496 52.6191 6.56496C52.0235 6.56496 51.509 6.79001 51.0758 7.24182C50.6427 7.69363 50.311 8.35188 50.0809 9.21997C49.8507 10.088 49.7356 11.1253 49.7356 12.3336C49.7356 13.5418 49.8507 14.5791 50.0809 15.4471C50.311 16.3152 50.6427 16.9735 51.0758 17.4253C51.509 17.8771 52.0235 18.1021 52.6191 18.1021C53.2147 18.1021 53.7292 17.8771 54.1624 17.4253C54.5956 16.9752 54.9272 16.3152 55.1574 15.4471C55.3875 14.5791 55.5026 13.5418 55.5026 12.3336ZM67.4966 8.73601C67.9383 8.73601 68.3393 8.81215 68.6964 8.96614V6.15884C68.4747 6.05731 68.2124 6.00654 67.9061 6.00654C67.1227 6.00654 66.4306 6.35174 65.8265 7.04045C65.2224 7.72917 64.7519 8.5211 64.3154 10.0982H64.2578V6.10807H64.1563L59.1035 7.56333V7.895C59.6822 7.895 60.1289 7.95084 60.4437 8.06083C60.7584 8.17082 60.9835 8.35019 61.1205 8.59725C61.2559 8.8443 61.3253 9.17935 61.3253 9.60578V15.9345C61.3253 16.4624 61.2745 16.8533 61.173 17.1088C61.0715 17.3644 60.8836 17.5556 60.6112 17.6825C60.3388 17.8094 59.9056 17.9075 59.3099 17.9752V18.3323H66.4035V17.9752C65.8078 17.9245 65.3611 17.8348 65.0633 17.7079C64.7655 17.581 64.5573 17.3847 64.4389 17.1207C64.3204 16.8567 64.2595 16.4607 64.2595 15.9345V10.9189C64.7942 9.66162 65.972 8.73601 67.4966 8.73601ZM104.733 17.0936C104.631 16.8296 104.58 16.4354 104.58 15.9074V10.088C104.58 7.3552 103.068 6.00485 101.084 6.00485C99.1012 6.00485 97.827 7.40935 97.2822 8.15728H97.2314V6.10807H97.1299L92.077 7.56333V7.895C92.6388 7.895 93.0805 7.95084 93.4037 8.06083C93.7269 8.17082 93.957 8.34511 94.0924 8.58371C94.2278 8.82231 94.2972 9.15397 94.2972 9.5787V15.9057C94.2972 16.4337 94.2464 16.8296 94.1449 17.0919C94.0433 17.3559 93.8555 17.5505 93.5831 17.6791C93.3106 17.806 92.8774 17.9042 92.2818 17.9718V18.3289H98.9168V17.9718C98.4582 17.9042 98.1045 17.806 97.8575 17.6791C97.6104 17.5522 97.4446 17.3559 97.36 17.0919C97.2754 16.8279 97.2331 16.4337 97.2331 15.9057V9.08459C97.8203 8.37219 98.5107 7.68855 99.6326 7.68855C101.174 7.68855 101.648 8.85107 101.648 10.1642V15.9057C101.648 16.4337 101.601 16.8296 101.507 17.0919C101.414 17.3559 101.252 17.5505 101.022 17.6791C100.792 17.806 100.44 17.9042 99.9625 17.9718V18.3289H106.521V17.9718C105.96 17.9042 105.547 17.806 105.284 17.6791C105.017 17.5522 104.836 17.3576 104.733 17.0936ZM169.209 14.8092C168.646 16.0394 167.074 18.6623 163.876 18.6623C160.838 18.6623 158.314 16.1782 158.314 12.4368C158.314 11.2624 158.569 10.1828 159.078 9.19627C159.589 8.20974 160.282 7.43134 161.158 6.86108C162.035 6.29082 162.999 6.00654 164.055 6.00654C167.12 6.00654 168.648 8.16575 168.648 10.4163V10.924H161.045C161.045 10.9697 161.043 11.0137 161.043 11.0593C161.043 13.7668 162.248 16.3677 165.278 16.3677C167.583 16.3677 168.548 15.0918 168.927 14.6332L169.209 14.8092ZM161.097 10.0627H165.866C165.834 8.21313 165.282 6.5988 163.774 6.59203C162.36 6.58695 161.334 7.90684 161.097 10.0627ZM135.364 17.0936C135.263 16.8296 135.212 16.4354 135.212 15.9074V10.088C135.212 9.20304 135.063 8.45511 134.765 7.84254C134.468 7.22998 134.055 6.7714 133.528 6.46512C133 6.15884 132.396 6.00654 131.716 6.00654C130.933 6.00654 130.24 6.20622 129.636 6.60557C129.032 7.00492 128.459 7.58026 127.914 8.32819H127.863V-0.000650262H127.761L122.709 1.45461V1.78628C123.27 1.78628 123.712 1.84212 124.035 1.95211C124.359 2.0621 124.589 2.23639 124.724 2.47499C124.859 2.71358 124.929 3.04525 124.929 3.46998V15.9057C124.929 16.4337 124.878 16.8296 124.776 17.0919C124.675 17.3559 124.487 17.5505 124.215 17.6791C123.942 17.806 123.509 17.9042 122.913 17.9718V18.3289H129.548V17.9718C129.09 17.9042 128.736 17.806 128.489 17.6791C128.242 17.5522 128.076 17.3559 127.992 17.0919C127.907 16.8279 127.865 16.4337 127.865 15.9057V9.08459C128.452 8.37219 129.142 7.68855 130.264 7.68855C130.894 7.68855 131.386 7.89669 131.745 8.31296C132.102 8.72924 132.281 9.34688 132.281 10.1625V15.9057C132.281 16.4337 132.234 16.8296 132.141 17.0919C132.048 17.3559 131.885 17.5505 131.655 17.6791C131.425 17.806 131.073 17.9042 130.596 17.9718V18.3289H137.155V17.9718C136.593 17.9042 136.18 17.806 135.918 17.6791C135.649 17.5522 135.468 17.3576 135.364 17.0936ZM116.83 17.229C113.067 17.2544 110.082 14.2288 110.082 9.3198C110.082 4.13162 112.862 1.10603 116.042 1.10603C119.221 1.10603 120.585 3.97086 121.28 6.78494L121.79 6.77648V1.59845C120.595 0.93681 118.636 0.190565 115.788 0.190565C110.295 0.190565 106.149 4.20946 106.149 9.57532C106.149 14.6874 109.608 18.7299 115.559 18.7046C118.84 18.6792 121.128 16.7213 122.221 15.2204L121.866 14.8396C121.128 15.679 119.653 17.2036 116.83 17.229ZM154.716 11.237L152.956 10.3943C151.787 9.87145 151.118 9.17935 151.118 8.32819C151.118 7.36366 152.002 6.70371 153.237 6.70371C155.036 6.70371 155.968 7.69871 156.354 9.91037H156.885V6.69525C156.357 6.4905 154.963 6.00654 153.543 6.00654C150.736 6.00654 149.027 7.77147 149.027 9.80884C149.027 10.5923 149.235 11.2759 149.651 11.8631C150.068 12.4503 150.694 12.9563 151.526 13.381L153.364 14.2998C154.621 14.8735 155.125 15.4387 155.125 16.2898C155.125 17.2307 154.367 17.9668 152.931 17.9668C150.831 17.9668 149.832 15.9751 149.558 14.376H149.027V17.6673C149.827 18.1851 151.333 18.6623 152.728 18.6623C155.418 18.6623 157.295 17.0141 157.295 14.6823C157.293 13.002 156.396 11.9511 154.716 11.237ZM15.2273 10.5991V15.1662C15.2273 15.8803 15.3288 16.4286 15.5336 16.8127C15.7383 17.1951 16.0785 17.4727 16.554 17.6419C17.0295 17.8128 17.7537 17.9228 18.7233 17.9735V18.3306H8.84782V17.9735C9.68037 17.9228 10.3065 17.8128 10.7227 17.6419C11.139 17.4727 11.4335 17.2002 11.6027 16.8246C11.7719 16.4506 11.8582 15.8973 11.8582 15.1662V3.83718C11.8582 1.50369 10.804 1.02988 9.20318 1.02988C7.44671 1.02988 6.37218 1.50199 6.37218 3.76104V16.4371C6.37218 19.3019 4.5108 22.0263 0.835414 22.0263C0.55113 22.0263 0.27023 22.0094 -0.0072854 21.9772V21.6709C0.865873 21.6185 1.5732 21.3223 2.11131 20.7758C2.70695 20.1717 3.00477 19.1817 3.00477 17.8026V3.75934C3.00477 3.04525 2.92016 2.4953 2.74925 2.11287C2.57835 1.73044 2.28052 1.45461 1.85579 1.2837C1.43106 1.11449 0.810031 1.0028 -0.0072854 0.952039V0.594992H17.4305C21.3969 0.594992 23.8523 2.57821 23.8523 5.57165C23.8523 8.99829 20.4865 10.5991 17.4779 10.5991H15.2273ZM15.2273 9.91375H16.444C18.5135 9.91375 20.2547 8.70216 20.2547 5.59704C20.2547 1.80151 17.7486 1.28032 16.5066 1.28032H15.2273V9.91375ZM91.0482 17.3119C91.4696 17.3119 91.8401 17.1275 92.0754 16.9684V17.5742C91.6049 18.0142 90.7318 18.6538 89.4186 18.6538C88.312 18.6538 87.383 17.9515 87.1359 16.8804H87.0699C86.6384 17.696 85.3202 18.7266 83.8819 18.7266C82.1559 18.7266 80.8851 17.5759 80.8851 15.8262C80.8851 14.4589 81.8208 13.5485 83.3776 12.9969L87.0699 11.6668V9.95267C87.0699 8.39419 85.9429 7.67502 84.7212 7.67502C83.4741 7.67502 82.3234 8.20297 81.1253 9.42472L80.7666 9.08967C81.8208 7.38735 83.4995 5.99639 85.9209 5.99639C88.2223 5.99639 90.0684 7.50749 90.0448 9.95267L89.9974 16.0665C89.994 16.9278 90.3544 17.3119 91.0482 17.3119ZM87.0699 12.4655L85.5842 13.068C84.4335 13.5231 83.6907 14.0511 83.6907 15.2728C83.6907 16.3034 84.4098 17.0225 85.4167 17.0225C85.9446 17.0225 86.7112 16.6147 87.0716 16.1595V12.4655H87.0699ZM147.382 17.3119C147.805 17.3119 148.174 17.1258 148.411 16.9684V17.5742C147.941 18.0142 147.067 18.6555 145.753 18.6555C144.646 18.6555 143.717 17.9532 143.47 16.8821H143.404C142.972 17.6977 141.654 18.7282 140.216 18.7282C138.49 18.7282 137.219 17.5776 137.219 15.8279C137.219 14.4606 138.155 13.5502 139.712 12.9986L143.404 11.6685V9.95267C143.404 8.39419 142.277 7.67502 141.055 7.67502C139.808 7.67502 138.657 8.20297 137.459 9.42472L137.099 9.08967C138.153 7.38735 139.832 5.99639 142.253 5.99639C144.555 5.99639 146.401 7.50749 146.377 9.95267L146.33 16.0665C146.328 16.9278 146.687 17.3119 147.382 17.3119ZM143.402 12.4655L141.916 13.068C140.766 13.5231 140.023 14.0511 140.023 15.2728C140.023 16.3034 140.742 17.0225 141.749 17.0225C142.277 17.0225 143.043 16.6147 143.404 16.1595V12.4655H143.402ZM77.8544 6.84416C78.9458 7.69532 79.4281 8.92045 79.4281 9.96621C79.4281 12.7126 77.0811 14.1357 74.4091 14.1357C73.7052 14.1357 73.0249 14.0359 72.4039 13.8396C72.0587 14.1052 71.7626 14.4521 71.7626 14.8583C71.7626 15.7314 73.1857 15.9074 74.0352 15.9565L76.9322 16.1562C79.2538 16.3068 80.726 17.1292 80.726 19.2021C80.726 21.8232 77.6259 23.996 73.1112 23.996C70.4901 23.996 68.6168 23.0974 68.6168 21.4983C68.6168 20.1091 69.3817 19.3137 71.348 18.3695C70.062 17.9955 69.7641 17.229 69.7641 16.4794C69.7641 15.4539 70.6796 14.5334 71.92 13.6602C70.4342 13.0341 69.3902 11.7938 69.3902 9.96283C69.3902 7.21644 71.7372 5.79333 74.4091 5.79333C75.6376 5.79333 76.6157 6.07254 77.3687 6.51081C77.9305 5.38213 79.0389 4.06901 81.0255 4.06901V6.41266C79.9645 6.08438 78.67 6.25529 77.8544 6.84416ZM70.7134 20.4035C70.7134 21.852 72.3616 22.5001 74.509 22.5001C76.5565 22.5001 79.3266 21.5762 79.3266 20.1023C79.3266 19.2528 78.8528 19.0531 77.6039 18.9533L72.5867 18.581C72.2922 18.559 72.0266 18.5252 71.788 18.4795C71.0654 19.043 70.7134 19.6217 70.7134 20.4035ZM76.3314 9.9679C76.3314 7.62087 75.5581 6.49727 74.4091 6.49727C73.2601 6.49727 72.4868 7.62087 72.4868 9.9679C72.4868 12.3149 73.2601 13.4385 74.4091 13.4385C75.5581 13.4385 76.3314 12.3149 76.3314 9.9679Z" fill="var(--fill-0, #161314)"/>
</g>
<defs>
<clipPath id="clip0_0_628">
<rect width="169.217" height="24" fill="white"/>
</clipPath>
</defs>
</svg>
