<svg width="150" height="100" viewBox="0 0 150 100" fill="none" xmlns="http://www.w3.org/2000/svg">
<path d="M57.8793 57.5875L51.2258 50.1283L47.0571 53.28V57.5875H44.7607V43.4125H47.0571V50.7522L56.7514 43.4125H60.0609L52.9846 48.7762L60.8257 57.5875H57.8793Z" fill="#48104A"/>
<path d="M80.5581 57.5875L73.9062 50.1283L69.7369 53.28V57.5875H67.4404V43.4125H69.7369V50.7522L79.4309 43.4125H82.7393L75.6638 48.7762L83.5054 57.5875H80.5581Z" fill="#48104A"/>
<path d="M102.518 57.587L98.6849 52.1828H91.5212V57.587H89.1758V43.4125H100.348C103.323 43.4125 105.12 45.1352 105.12 47.876C105.12 50.3803 103.556 51.7137 101.442 52.0648L105.241 57.5875H102.518V57.587ZM102.716 47.8755C102.716 46.3081 101.754 45.5446 99.7826 45.5446H91.5212V50.0473H99.9937C101.754 50.0473 102.716 49.2648 102.716 47.8755Z" fill="#48104A"/>
</svg>
