<svg width="150" height="100" viewBox="0 0 150 100" fill="none" xmlns="http://www.w3.org/2000/svg">
<path d="M104.947 61.558V60.8254H104.756L104.535 61.3282L104.316 60.8254H104.124V61.558H104.26V61.0061L104.466 61.4823H104.607L104.813 61.0049V61.558H104.947H104.947ZM103.736 61.558V60.9509H103.98V60.8273H103.356V60.9509H103.601V61.558H103.735H103.736Z" fill="#F79410"/>
<path d="M83.2617 64.7002H66.751V35.028H83.2621L83.2617 64.7002Z" fill="#FF5F00"/>
<path d="M67.7972 49.8641C67.7972 43.845 70.6155 38.4833 75.004 35.0279C71.6821 32.4086 67.5734 30.9869 63.343 30.9932C52.922 30.9932 44.4746 39.4418 44.4746 49.8641C44.4746 60.2863 52.922 68.7349 63.343 68.7349C67.5735 68.7412 71.6824 67.3196 75.0043 64.7002C70.6161 61.2454 67.7972 55.8834 67.7972 49.8641Z" fill="#EB001B"/>
<path d="M105.536 49.8648C105.536 60.287 97.0888 68.7357 86.6677 68.7357C82.4368 68.7419 78.3275 67.3203 75.0049 64.7009C79.3947 61.2456 82.2129 55.8841 82.2129 49.8648C82.2129 43.8455 79.3947 38.484 75.0049 35.0287C78.3274 32.4094 82.4366 30.9878 86.6674 30.9939C97.0885 30.9939 105.536 39.4426 105.536 49.8648" fill="#F79E1B"/>
</svg>
