<svg preserveAspectRatio="none" width="100%" height="100%" overflow="visible" style="display: block;" viewBox="0 0 68.1704 39.7289" fill="none" xmlns="http://www.w3.org/2000/svg">
<g id="logo">
<path id="Vector" d="M67.5121 32.1735V31.4023H67.2991L67.0527 31.9315L66.8077 31.4023H66.594V32.1735H66.7453V31.5926L66.9757 32.0938H67.1325L67.3629 31.5913V32.1735H67.5128H67.5121ZM66.1608 32.1735V31.5344H66.4335V31.4043H65.7369V31.5344H66.0095V32.1735H66.1595H66.1608Z" fill="var(--fill-0, #F79410)"/>
<path id="Vector_2" d="M43.3035 35.4811H24.8704V4.24713H43.3038L43.3035 35.4811Z" fill="var(--fill-0, #FF5F00)"/>
<path id="Vector_3" d="M26.038 19.8641C26.038 13.5283 29.1844 7.88434 34.0839 4.24713C30.3752 1.48989 25.7882 -0.00655807 21.0652 2.1605e-05C9.43094 2.1605e-05 0 8.89334 0 19.8641C0 30.8349 9.43094 39.7282 21.0652 39.7282C25.7883 39.7348 30.3755 38.2384 34.0842 35.4811C29.1851 31.8445 26.038 26.2002 26.038 19.8641Z" fill="var(--fill-0, #EB001B)"/>
<path id="Vector_4" d="M68.1704 19.8648C68.1704 30.8356 58.7394 39.7289 47.1051 39.7289C42.3816 39.7354 37.7939 38.239 34.0844 35.4818C38.9853 31.8446 42.1317 26.2009 42.1317 19.8648C42.1317 13.5287 38.9853 7.88507 34.0844 4.24786C37.7938 1.49071 42.3814 -0.00571032 47.1048 0.000753273C58.7391 0.000753273 68.1701 8.89407 68.1701 19.8648" fill="var(--fill-0, #F79E1B)"/>
</g>
</svg>
