<svg width="150" height="100" viewBox="0 0 150 100" fill="none" xmlns="http://www.w3.org/2000/svg">
<g clip-path="url(#clip0_2782_1938)">
<path d="M124.999 48.9832V47.2245H122.815V44.4905L122.742 44.5131L120.691 45.1407L120.65 45.153V47.2246H117.413V46.0705C117.413 45.5332 117.533 45.122 117.769 44.8477C118.005 44.5768 118.341 44.439 118.77 44.439C119.078 44.439 119.398 44.5117 119.719 44.6549L119.8 44.6909V42.8388L119.762 42.8249C119.462 42.7171 119.054 42.6628 118.549 42.6628C117.912 42.6628 117.333 42.8015 116.828 43.0762C116.323 43.3513 115.926 43.7441 115.648 44.2434C115.37 44.7422 115.229 45.3182 115.229 45.9557V47.2245H113.709V48.9832H115.229V56.392H117.413V48.9832H120.65V53.6914C120.65 55.6304 121.565 56.6131 123.369 56.6131C123.665 56.6131 123.977 56.5783 124.296 56.5103C124.62 56.4405 124.841 56.3708 124.971 56.2963L124.999 56.2792V54.5043L124.911 54.5631C124.792 54.642 124.645 54.7065 124.472 54.7545C124.298 54.8033 124.153 54.8278 124.04 54.8278C123.618 54.8278 123.305 54.714 123.111 54.4892C122.915 54.2625 122.815 53.866 122.815 53.3113V48.9832H124.999ZM108.834 54.8281C108.041 54.8281 107.417 54.5654 106.976 54.0478C106.533 53.5277 106.309 52.7861 106.309 51.8439C106.309 50.8718 106.533 50.111 106.977 49.5817C107.417 49.0558 108.036 48.7889 108.816 48.7889C109.573 48.7889 110.175 49.0438 110.607 49.5469C111.041 50.0527 111.261 50.8074 111.261 51.7908C111.261 52.7863 111.054 53.551 110.646 54.0625C110.24 54.5702 109.631 54.8281 108.834 54.8281ZM108.931 47.0037C107.419 47.0037 106.218 47.4466 105.362 48.3202C104.507 49.1939 104.073 50.403 104.073 51.9142C104.073 53.3496 104.496 54.5041 105.332 55.3453C106.167 56.1867 107.303 56.6129 108.71 56.6129C110.175 56.6129 111.352 56.1637 112.208 55.278C113.063 54.3933 113.497 53.1956 113.497 51.7197C113.497 50.2619 113.09 49.0988 112.287 48.2633C111.484 47.4274 110.355 47.0037 108.931 47.0037ZM100.553 47.0037C99.525 47.0037 98.6744 47.2667 98.0246 47.7853C97.3709 48.307 97.0393 48.9912 97.0393 49.8191C97.0393 50.2495 97.1109 50.6318 97.2517 50.9561C97.3934 51.2814 97.6127 51.5678 97.9041 51.8082C98.1932 52.0467 98.6396 52.2964 99.231 52.5506C99.7282 52.7552 100.099 52.9282 100.335 53.0646C100.565 53.1983 100.728 53.3327 100.82 53.4636C100.91 53.5916 100.956 53.7669 100.956 53.9832C100.956 54.5991 100.494 54.8988 99.5453 54.8988C99.1933 54.8988 98.7917 54.8253 98.3519 54.6804C97.9151 54.5377 97.503 54.3287 97.1297 54.0607L97.0391 53.9957V56.0975L97.0724 56.113C97.3812 56.2555 97.7707 56.3758 98.2297 56.4704C98.6878 56.5651 99.1041 56.6133 99.4657 56.6133C100.582 56.6133 101.48 56.349 102.136 55.8273C102.796 55.302 103.13 54.6017 103.13 53.7451C103.13 53.1271 102.95 52.5972 102.595 52.1698C102.243 51.7459 101.631 51.3568 100.778 51.0128C100.098 50.74 99.6629 50.5135 99.4833 50.3397C99.3101 50.1717 99.2222 49.9343 99.2222 49.6335C99.2222 49.3669 99.3307 49.1533 99.5535 48.9804C99.778 48.8065 100.091 48.7181 100.483 48.7181C100.846 48.7181 101.218 48.7756 101.589 48.8882C101.958 49.0008 102.283 49.1516 102.554 49.336L102.644 49.397V47.4033L102.609 47.3886C102.359 47.2813 102.029 47.1895 101.629 47.115C101.23 47.041 100.868 47.0037 100.553 47.0037ZM91.3482 54.8281C90.5561 54.8281 89.9312 54.5654 89.491 54.0478C89.048 53.5277 88.8239 52.7863 88.8239 51.8439C88.8239 50.8718 89.0483 50.111 89.4915 49.5817C89.9316 49.0558 90.5503 48.7889 91.3307 48.7889C92.0874 48.7889 92.69 49.0438 93.1217 49.5469C93.5555 50.0527 93.7756 50.8074 93.7756 51.7908C93.7756 52.7863 93.5685 53.551 93.1603 54.0625C92.7549 54.5702 92.1455 54.8281 91.3482 54.8281ZM91.4456 47.0037C89.9335 47.0037 88.7327 47.4466 87.8771 48.3202C87.0216 49.1939 86.5875 50.403 86.5875 51.9142C86.5875 53.3502 87.0112 54.5041 87.8464 55.3453C88.6816 56.1867 89.8182 56.6129 91.2244 56.6129C92.6896 56.6129 93.8666 56.1637 94.7224 55.278C95.5778 54.3933 96.0115 53.1956 96.0115 51.7197C96.0115 50.2619 95.6046 49.0988 94.8018 48.2633C93.9986 47.4274 92.8693 47.0037 91.4456 47.0037ZM83.2737 48.8121V47.2245H81.1173V56.3918H83.2737V51.7024C83.2737 50.905 83.4545 50.2499 83.8113 49.7551C84.1635 49.2662 84.6329 49.0185 85.2059 49.0185C85.4002 49.0185 85.6182 49.0505 85.8543 49.1138C86.0881 49.1768 86.2573 49.2452 86.3572 49.3172L86.4478 49.3829V47.2088L86.4129 47.1938C86.2121 47.1085 85.928 47.0655 85.5685 47.0655C85.0266 47.0655 84.5416 47.2396 84.1263 47.5824C83.7617 47.8838 83.4982 48.2969 83.2967 48.8121H83.2737ZM77.2555 47.0037C76.2662 47.0037 75.3838 47.2158 74.6332 47.634C73.8811 48.0531 73.2994 48.6515 72.9037 49.4125C72.5097 50.1716 72.3096 51.0582 72.3096 52.0471C72.3096 52.9132 72.5036 53.7081 72.887 54.4087C73.2705 55.1104 73.8134 55.6594 74.5006 56.0401C75.1868 56.4204 75.98 56.6132 76.8581 56.6132C77.883 56.6132 78.7579 56.4083 79.4595 56.0042L79.4878 55.988V54.0123L79.3972 54.0785C79.0794 54.31 78.7243 54.4948 78.3422 54.6279C77.961 54.7609 77.6136 54.8281 77.3088 54.8281C76.4627 54.8281 75.7834 54.5633 75.2904 54.0414C74.7962 53.5187 74.5457 52.7848 74.5457 51.8612C74.5457 50.9319 74.807 50.1791 75.3219 49.6236C75.8353 49.0698 76.5158 48.7889 77.3444 48.7889C78.0532 48.7889 78.7439 49.0289 79.3974 49.5029L79.4878 49.5686V47.4869L79.4586 47.4705C79.2127 47.3328 78.8773 47.2192 78.461 47.133C78.0463 47.047 77.6408 47.0037 77.2555 47.0037ZM70.8245 47.2246H68.668V56.3918H70.8245V47.2246ZM69.7683 43.3193C69.4134 43.3193 69.1038 43.4401 68.8495 43.6795C68.5941 43.9196 68.4646 44.2219 68.4646 44.5787C68.4646 44.9298 68.5926 45.2266 68.8456 45.4603C69.0969 45.6934 69.4074 45.8115 69.7684 45.8115C70.1293 45.8115 70.441 45.6934 70.6953 45.4607C70.9513 45.2266 71.0811 44.9299 71.0811 44.5787C71.0811 44.2344 70.9548 43.9352 70.7059 43.6892C70.4572 43.4437 70.1416 43.3193 69.7683 43.3193ZM64.3879 46.5482V56.3918H66.5886V43.5999H63.5427L59.6712 53.1014L55.9141 43.5999H52.7441V56.3917H54.8122V46.5473H54.8833L58.8507 56.3918H60.4114L64.3169 46.5482H64.3879Z" fill="#706D6E"/>
<path d="M35.1445 49.47H25V39.3256H35.1445V49.47Z" fill="#F1511B"/>
<path d="M46.3454 49.47H36.2012V39.3256H46.3454V49.47Z" fill="#80CC28"/>
<path d="M35.1442 60.6745H25V50.5302H35.1442V60.6745Z" fill="#00ADEF"/>
<path d="M46.3454 60.6745H36.2012V50.5302H46.3454V60.6745Z" fill="#FBBC09"/>
</g>
<defs>
<clipPath id="clip0_2782_1938">
<rect width="100" height="21.36" fill="white" transform="translate(25 39.3199)"/>
</clipPath>
</defs>
</svg>
