<?xml version="1.0" encoding="utf-8"?>
<svg xmlns="http://www.w3.org/2000/svg" viewBox="0 0 150 100" xmlns:bx="https://boxy-svg.com" width="150px" height="100px"><defs><bx:export><bx:file format="svg" excluded="true"/><bx:file format="svg" path="Untitled 2.svg" excluded="true"/><bx:file format="svg" path="Untitled 3.svg" excluded="true"/><bx:file format="svg" path="Untitled 4.svg"/></bx:export><filter id="invert-filter-0" bx:preset="invert 1 1" color-interpolation-filters="sRGB" x="-50%" y="-50%" width="200%" height="200%"><feComponentTransfer><feFuncR type="table" tableValues="1 0"/><feFuncG type="table" tableValues="1 0"/><feFuncB type="table" tableValues="1 0"/></feComponentTransfer></filter></defs><linearGradient id="S_grad_2_" gradientUnits="userSpaceOnUse" x1="189.23703" y1="39.135704" x2="150.1455994" y2="39.135704" gradientTransform="matrix(0.341057, 0, 0, 0.341057, 40.88936, 41.815155)"><stop offset="0" style="stop-color:#FFFFFF;stop-opacity:0.15"/><stop offset="0.0681" style="stop-color:#FFFFFF;stop-opacity:0.2553155"/><stop offset="0.55" style="stop-color:#FFFFFF"/></linearGradient><linearGradient id="T_grad_2_" gradientUnits="userSpaceOnUse" x1="134.6675415" y1="11.6243105" x2="114.8184052" y2="0.164411" gradientTransform="matrix(0.341057, 0, 0, 0.341057, 40.88936, 41.815155)"><stop offset="0.1645" style="stop-color:#FFFFFF;stop-opacity:0.15"/><stop offset="0.268" style="stop-color:#FFFFFF;stop-opacity:0.2553155"/><stop offset="1" style="stop-color:#FFFFFF"/></linearGradient><linearGradient id="N_grad_2_" gradientUnits="userSpaceOnUse" x1="20.1557751" y1="7.2922215" x2="5.0423255" y2="46.8290176" gradientTransform="matrix(0.341057, 0, 0, 0.341057, 40.88936, 41.815155)"><stop offset="0" style="stop-color:#FFFFFF;stop-opacity:0.15"/><stop offset="0.0681" style="stop-color:#FFFFFF;stop-opacity:0.2553155"/><stop offset="0.55" style="stop-color:#FFFFFF"/></linearGradient><linearGradient id="SVGID_1_" gradientUnits="userSpaceOnUse" x1="96.3710556" y1="11.0198841" x2="72.1821442" y2="52.6306992" gradientTransform="matrix(0.341057, 0, 0, 0.341057, 40.88936, 41.815155)"><stop offset="0" style="stop-color:#FFFFFF;stop-opacity:0.15"/><stop offset="0.0681" style="stop-color:#FFFFFF;stop-opacity:0.2553155"/><stop offset="0.55" style="stop-color:#FFFFFF"/></linearGradient><path id="S_grad_1_" class="st0" d="M 104.9 53.321 C 104.661 53.027 104.344 52.763 103.952 52.536 C 104.367 52.78 104.549 53.08 104.549 53.449 C 104.549 54.528 103.602 55.101 101.84 55.101 L 92.034 55.101 L 91.329 57.79 L 102.39 57.79 C 104.108 57.569 105.43 56.225 105.43 54.771 C 105.43 54.241 105.248 53.749 104.9 53.321 Z" style="fill: url(&quot;#S_grad_2_&quot;); filter: url(&quot;#invert-filter-0&quot;);"/><path id="S_solid_1_" class="st1" d="M 101.927 42.366 C 98.226 42.366 96.045 44.062 96.045 46.949 C 96.045 48.8 96.97 49.857 99.328 50.739 L 103.117 52.149 C 103.38 52.245 103.623 52.354 103.845 52.474 C 103.881 52.494 103.917 52.515 103.952 52.536 C 104.344 52.763 104.661 53.027 104.9 53.321 C 105.248 53.749 105.43 54.241 105.43 54.771 C 105.43 56.225 104.108 57.569 102.39 57.79 C 105.871 57.635 107.789 55.916 107.789 52.898 C 107.789 51.223 106.752 50.144 104.262 49.196 L 101.288 48.072 C 99.702 47.477 99.283 47.125 99.283 46.42 C 99.283 45.538 100.076 45.054 101.574 45.054 L 107.105 45.054 C 107.987 45.054 108.493 44.702 108.692 43.953 L 109.11 42.366 L 101.927 42.366 Z" style="fill: rgb(255, 255, 255); filter: url(&quot;#invert-filter-0&quot;);"/><path id="T_grad_1_" class="st2" d="M 88.423 42.366 L 78.728 42.366 L 78.045 45.054 L 84.92 45.054 C 85.412 43.202 86.507 42.366 88.423 42.366 Z" style="fill: url(&quot;#T_grad_2_&quot;); filter: url(&quot;#invert-filter-0&quot;);"/><path id="T_solid_1_" class="st1" d="M 88.423 42.366 C 86.507 42.366 85.412 43.202 84.92 45.054 L 81.593 57.79 L 83.929 57.79 C 84.721 57.79 85.14 57.459 85.36 56.599 L 88.379 45.054 L 93.381 45.054 C 94.262 45.054 94.768 44.702 94.967 43.953 L 95.386 42.366 L 88.423 42.366 Z" style="fill: rgb(255, 255, 255); filter: url(&quot;#invert-filter-0&quot;);"/><path id="N_grad_1_" class="st3" d="M 44.327 57.79 L 40.89 57.79 L 45.759 45.054 C 46.266 44.459 46.619 44.239 47.103 44.239 C 47.699 44.239 48.117 44.724 48.755 46.156 L 44.327 57.79 Z" style="fill: url(&quot;#N_grad_2_&quot;); filter: url(&quot;#invert-filter-0&quot;);"/><path id="N_solid_1_" class="st1" d="M 48.755 46.156 C 48.117 44.724 47.699 44.239 47.103 44.239 C 46.619 44.239 46.266 44.459 45.759 45.054 L 46.266 43.732 C 46.751 42.476 47.588 41.815 48.646 41.815 C 49.748 41.815 50.431 42.344 51.003 43.6 L 55.653 53.779 L 59.53 43.644 C 59.883 42.719 60.301 42.366 61.007 42.366 L 63.43 42.366 L 58.12 56.291 C 57.657 57.503 56.798 58.186 55.718 58.186 C 54.66 58.186 53.934 57.635 53.361 56.357 L 48.755 46.156 Z" style="fill: rgb(255, 255, 255); filter: url(&quot;#invert-filter-0&quot;);"/><path class="st4" d="M 73.83 52.215 L 67.063 52.215 L 71.273 44.811 C 70.965 43.953 70.525 43.556 69.907 43.556 C 69.247 43.556 68.718 43.93 67.748 45.054 L 60.345 57.79 L 63.893 57.79 L 65.597 54.793 L 74.711 54.793 L 73.83 52.215 Z" style="fill: url(&quot;#SVGID_1_&quot;); filter: url(&quot;#invert-filter-0&quot;);"/><path id="A_solid_2_" class="st1" d="M 74.315 44.349 C 73.719 42.762 72.793 41.992 71.406 41.992 C 70.15 41.992 69.136 42.675 68.277 44.151 L 67.748 45.054 C 68.718 43.93 69.247 43.556 69.907 43.556 C 70.525 43.556 70.965 43.953 71.273 44.811 L 73.83 52.215 L 67.061 52.215 L 65.595 54.793 L 74.711 54.793 L 75.328 56.599 C 75.614 57.48 76.054 57.79 77.003 57.79 L 79.425 57.79 L 74.315 44.349 Z" style="fill: rgb(255, 255, 255); filter: url(&quot;#invert-filter-0&quot;);"/></svg>