<svg width="150" height="100" viewBox="0 0 150 100" fill="none" xmlns="http://www.w3.org/2000/svg">
<path d="M79.7137 44.0075C79.7137 45.6538 78.4543 46.5552 77.0591 46.5552H75.7174V48.9258H73.7871V41.4558H77.0797C78.4543 41.4558 79.7137 42.3818 79.7137 44.0075ZM75.7174 43.1103V44.9007H76.8657C76.985 44.9101 77.1049 44.8934 77.2171 44.8517C77.3293 44.8101 77.4311 44.7445 77.5153 44.6594C77.5996 44.5744 77.6643 44.472 77.7049 44.3594C77.7455 44.2469 77.7611 44.1268 77.7505 44.0075C77.7617 43.888 77.7466 43.7674 77.7063 43.6544C77.666 43.5413 77.6014 43.4384 77.517 43.3529C77.4327 43.2674 77.3307 43.2014 77.2182 43.1595C77.1057 43.1176 76.9854 43.1008 76.8657 43.1103H75.7174Z" fill="#2D2A26"/>
<path d="M88.7809 45.2217C88.748 46.2319 88.3236 47.1897 87.5974 47.8926C86.8712 48.5956 85.9001 48.9886 84.8895 48.9886C83.8788 48.9886 82.9077 48.5956 82.1815 47.8926C81.4553 47.1897 81.0309 46.2319 80.998 45.2217C81.0309 44.2116 81.4553 43.2538 82.1815 42.5508C82.9077 41.8479 83.8788 41.4548 84.8895 41.4548C85.9001 41.4548 86.8712 41.8479 87.5974 42.5508C88.3236 43.2538 88.748 44.2116 88.7809 45.2217ZM82.9571 45.2217C82.9571 46.4564 83.7515 47.3166 84.8874 47.3166C86.0233 47.3166 86.8177 46.4523 86.8177 45.2217C86.8177 43.9911 86.0274 43.098 84.8874 43.098C83.7473 43.098 82.9571 43.9541 82.9571 45.2217Z" fill="#2D2A26"/>
<path d="M92.618 47.226H95.5237V48.9258H90.6836V41.4558H92.6139L92.618 47.226Z" fill="#2D2A26"/>
<path d="M99.358 47.2301H102.264V48.9258H97.4277V41.4558H99.358V47.2301Z" fill="#2D2A26"/>
<path d="M109.269 43.2132H106.231V44.3327H108.841V45.9502H106.231V47.1849H109.351V48.9258H104.297V41.4558H109.269V43.2132Z" fill="#2D2A26"/>
<path d="M117.504 49.0576H117.463L113.245 45.3988V48.9259H111.314V41.3242H111.356L115.595 44.9831V41.4559H117.525L117.504 49.0576Z" fill="#2D2A26"/>
<path d="M79.5538 51.7822L78.5537 53.3791C78.0631 52.965 77.4382 52.744 76.7963 52.7576C76.2489 52.7576 75.9732 52.9429 75.9732 53.2968C75.9732 53.552 76.1543 53.7331 77.1585 53.9059C79.1834 54.3175 79.7432 55.0954 79.7432 56.2354C79.7432 57.7377 78.6443 58.7337 76.7922 58.7337C75.6961 58.7659 74.6251 58.4021 73.7754 57.7088L74.8126 56.1037C75.356 56.6554 76.096 56.9692 76.8704 56.9762C77.533 56.9762 77.8253 56.7828 77.8253 56.4165C77.8253 56.1531 77.6154 55.972 76.5905 55.7868C74.578 55.3752 74.0306 54.478 74.0306 53.3997C74.0306 52.0374 75.0965 51.0002 76.7963 51.0002C77.7752 50.9612 78.7411 51.2351 79.5538 51.7822Z" fill="#2D2A26"/>
<path d="M87.5506 52.8316H85.2746V58.5936H83.3443V52.8316H81.0684V51.1318H87.5506V52.8316Z" fill="#2D2A26"/>
<path d="M95.2766 53.6342C95.2877 54.0761 95.1743 54.5123 94.9495 54.8929C94.7246 55.2735 94.3973 55.5832 94.0049 55.7867L95.6512 58.6019H93.404L91.9717 56.1325H91.2721V58.6019H89.3418V51.136H92.6138C94.0049 51.136 95.2766 52.0497 95.2766 53.6342ZM91.2721 52.8111V54.4862H92.4286C92.5417 54.4947 92.6555 54.4797 92.7626 54.4422C92.8697 54.4046 92.9679 54.3453 93.051 54.268C93.1341 54.1907 93.2003 54.0971 93.2454 53.993C93.2906 53.8889 93.3138 53.7765 93.3134 53.663C93.3138 53.5495 93.2906 53.4372 93.2454 53.3331C93.2003 53.229 93.1341 53.1353 93.051 53.058C92.9679 52.9807 92.8697 52.9214 92.7626 52.8839C92.6555 52.8464 92.5417 52.8314 92.4286 52.8399L91.2721 52.8111Z" fill="#2D2A26"/>
<path d="M102.327 52.8934H99.2896V54.0088H101.903V55.6262H99.2896V56.8609H102.426V58.6184H97.3594V51.136H102.327V52.8934Z" fill="#2D2A26"/>
<path d="M109.269 52.8934H106.227V54.0129H108.841V55.6262H106.227V56.8609H109.347V58.6225H104.297V51.136H109.269V52.8934Z" fill="#2D2A26"/>
<path d="M117.506 52.8317H115.23V58.5937H113.299V52.8317H111.023V51.136H117.506V52.8317Z" fill="#2D2A26"/>
<path d="M58.6139 32.5205L53.1523 35.6608L62.8201 41.2787V52.4776L68.3023 49.3373V38.1385L58.6139 32.5205Z" fill="#2D2A26"/>
<path d="M57.3571 55.6179V54.2186L57.3777 44.4191L48.8994 39.5049L47.6893 38.8012L48.9035 38.1015L53.1509 35.6609L47.7017 32.5L32.5271 41.2212L32.4941 58.7212L47.6317 67.5L62.8063 58.7788L62.8187 52.4777L58.5713 54.9183L57.3571 55.6179Z" fill="#2D2A26"/>
</svg>
