<svg width="150" height="100" viewBox="0 0 150 100" fill="none" xmlns="http://www.w3.org/2000/svg">
<g clip-path="url(#clip0_2782_1936)">
<path d="M65.852 45.7012C65.0132 46.4613 63.0997 47.8244 59.8494 47.8244C55.6554 47.8244 52.3789 45.5439 52.3789 40.9305C52.3789 36.1075 55.7603 33.8008 59.9018 33.8008C64.6725 33.8008 65.6161 37.287 65.7734 39.1743C63.3881 40.1966 60.4785 40.983 57.7524 41.5596C58.0146 43.3945 58.932 45.7536 62.4969 45.7798C64.1745 45.7798 65.1705 45.2294 65.6423 45.0459L65.852 45.7012ZM57.4903 40.0655C58.932 39.9083 60.0067 39.751 61.3959 39.3578C61.3697 38.5452 61.1076 35.0852 59.1941 35.0852C57.6738 35.0852 57.4379 37.0773 57.4379 38.4928C57.4117 39.0432 57.4903 39.5151 57.4903 40.0655Z" fill="black"/>
<path d="M77.3585 46.173C77.044 46.4089 74.9732 47.8243 72.1947 47.8243C64.4883 47.8243 64.4883 42.2149 64.4883 41.0091C64.4883 39.0956 66.2183 33.7745 72.5879 33.7745C76.4935 33.7745 76.7032 34.9017 77.044 34.9541C76.8867 36.1336 76.4935 36.8676 75.4712 37.785H75.0518C74.6587 37.2346 73.3218 35.3997 71.8277 35.3997C70.3074 35.4259 69.521 37.3656 69.521 39.8296C69.521 43.9449 71.9064 45.7798 74.6587 45.7798C75.7858 45.7798 76.4673 45.6749 77.044 45.5439L77.3585 46.173Z" fill="black"/>
<path d="M99.4829 45.7012C98.6703 46.4351 96.7306 47.8244 93.4803 47.8244C89.2863 47.8244 86.0098 45.5439 86.0098 40.9305C86.0098 36.1075 89.3649 33.8008 93.5327 33.8008C98.3033 33.8008 99.247 37.287 99.4043 39.1743C97.0189 40.1966 94.1094 40.983 91.3833 41.5596C91.6454 43.3945 92.5104 45.7536 96.1277 45.7798C97.8053 45.7798 98.8014 45.2294 99.2732 45.0459L99.4829 45.7012ZM91.1736 40.0655C92.6153 39.9083 93.69 39.751 95.0792 39.3578C95.0268 38.5452 94.7647 35.0852 92.8512 35.0852C91.3309 35.0852 91.095 37.0773 91.095 38.4928C91.095 39.0432 91.1736 39.5151 91.1736 40.0655Z" fill="black"/>
<path d="M50.5964 38.388C50.5178 37.5754 49.7052 35.1376 47.7655 35.1376C47.6606 35.1376 46.2714 35.1376 46.2714 36.5793C46.2714 37.2871 46.2714 38.0734 50.2556 39.9607C52.0643 40.7733 52.7982 42.3985 52.7982 43.5518C52.7982 46.7235 49.9673 47.8506 46.717 47.8506C44.987 47.8506 43.7026 47.5361 42.2609 46.8808C42.0774 45.7798 41.7891 44.0498 41.7891 42.5033H43.4404C43.755 45.1245 45.4064 46.5662 46.7694 46.5662C48.2111 46.5662 48.447 45.7536 48.447 44.9673C48.447 44.3382 47.949 43.4469 46.3238 42.5819C44.4627 41.5859 41.9463 40.6947 41.9463 37.8637C41.9463 35.3998 43.8336 33.827 47.7393 33.827C49.7052 33.827 50.911 34.2988 51.6449 34.6396C51.907 35.8454 51.907 37.1822 51.907 38.388H50.5702" fill="black"/>
<path d="M99.168 34.2202V32.8571C99.168 29.6854 103.86 30.1835 103.86 30.1835V34.2464C105.144 34.3512 105.905 34.4037 107.11 34.4823V35.2425C106.167 35.3997 104.804 35.5046 103.86 35.557V40.3014C103.86 43.3683 103.912 45.8584 106.534 45.8584C107.084 45.8584 107.582 45.7012 107.897 45.5963L108.106 46.3303C107.294 46.8283 105.905 47.8244 102.733 47.8244C102.313 47.8244 99.168 47.8244 99.168 43.709V35.5308V34.2202Z" fill="black"/>
<path d="M78.2235 47.8244L78.2497 39.1219C78.2497 37.156 78.2497 36.1075 77.4372 36.1075H76.6246L76.3887 35.2425C79.0623 34.4561 80.2943 34.194 82.4175 33.8008C82.601 34.5872 82.6534 34.8493 82.7321 35.8453C83.466 35.1114 84.5407 33.8008 86.0872 33.8008C87.6862 33.8008 88.2891 34.9803 88.6036 35.6094C88.3677 36.6579 87.7124 37.5229 86.5591 38.2045C85.7465 38.2045 84.9863 37.3919 83.6233 37.0249C83.3874 36.9987 83.1514 36.92 82.9155 36.8676V43.9187L82.8631 45.1245C82.9155 48.3224 78.2235 47.8244 78.2235 47.8244Z" fill="black"/>
<path d="M70.7023 63.6828C70.0732 64.1546 68.7888 64.7051 66.8228 64.7051C64.0443 64.7051 61.1348 63.0537 61.1348 59.5413C61.1348 54.8493 64.4637 52.8309 67.3995 52.8309C68.5791 52.8309 69.68 53.0931 70.2304 53.5387C70.2304 54.0105 69.9683 54.7444 69.6013 55.3473H69.4441C69.1033 54.8493 68.1859 54.0105 66.5869 54.0105C64.8307 54.0105 63.3628 55.426 63.3628 58.152C63.3628 62.0315 65.355 63.8401 68.1335 63.8401C69.1033 63.8401 70.1256 63.2896 70.4926 63.1062L70.7023 63.6828Z" fill="black"/>
<path d="M80.6371 64.0759C80.3225 64.3118 79.8245 64.705 78.8022 64.705C77.544 64.705 77.1246 64.207 76.8887 63.6827C76.1023 64.1808 75.2111 64.705 73.2976 64.705C71.489 64.705 70.2832 63.6827 70.2832 62.3197C70.2832 59.148 74.5034 58.2044 76.679 57.5491V56.9986C76.679 55.3997 76.2596 53.9842 74.3985 53.9842C72.4326 53.9842 71.8035 55.5045 71.3841 56.4481H71.2006C70.9385 56.186 70.7288 55.8977 70.5715 55.4783C71.3055 54.5084 72.8782 52.8571 75.4732 52.8571C78.2517 52.8571 78.8546 54.2987 78.8546 56.8151V60.3014C78.8546 62.0314 78.8546 63.8662 80.1915 63.8662C80.4274 63.8662 80.5322 63.8138 80.6109 63.7876L80.6371 64.0759ZM76.2596 58.7024C74.8441 58.7024 72.4588 59.3315 72.4588 61.612C72.4588 63.0274 73.3238 63.84 74.7393 63.84C75.7878 63.84 76.4169 63.1061 76.5742 62.8177V58.6762H76.2596V58.7024Z" fill="black"/>
<path d="M100.714 63.3421C100.321 63.6828 98.6433 64.7051 96.4415 64.7051C93.3484 64.7051 90.832 62.6605 90.832 59.1743C90.832 55.059 93.6892 52.8309 96.5201 52.8309C99.8229 52.8309 100.504 55.2163 100.819 56.5007C98.0404 57.8637 95.1833 58.6239 93.1125 59.1219C93.2174 60.6422 94.3707 63.4993 97.6997 63.4993C99.1938 63.4993 100.137 62.8702 100.478 62.713L100.714 63.3421ZM93.0601 58.0734C94.8163 57.7588 96.8609 57.2608 98.5909 56.6579C98.2501 55.1376 97.6472 53.6697 95.7599 53.6697C93.6892 53.6959 93.0601 56.291 93.0601 58.0734Z" fill="black"/>
<path d="M106.508 56.5268C106.508 55.4259 105.721 53.6697 104.122 53.6697C103.179 53.6697 102.55 54.325 102.55 55.3997C102.55 58.1782 108.002 57.3918 108.002 61.2712C108.002 63.5779 106.088 64.6788 103.782 64.6788C102.183 64.6788 101.344 64.2594 100.689 63.9711C100.348 62.8702 100.217 61.6644 100.217 60.6683H100.872C101.37 62.2673 102.209 63.84 104.175 63.84C105.276 63.84 105.905 62.8964 105.905 62.0314C105.905 58.7024 100.453 59.882 100.453 55.8715C100.453 53.8794 102.261 52.7784 104.358 52.7784C105.643 52.7784 106.403 53.1716 106.953 53.4862C107.189 54.3512 107.268 55.1376 107.268 56.422H106.534V56.5268H106.508Z" fill="black"/>
<path d="M55.0793 63.2896C54.5289 63.7876 52.7726 65.7536 49.4699 65.806C45.3021 65.8322 41.8945 63.0275 41.8945 58.3093C41.8945 52.6998 45.774 49.764 49.5747 49.764C54.0046 49.764 54.9745 52.9882 55.4201 54.7444C51.6717 56.5792 47.8185 57.6015 44.9614 58.2568C45.0662 60.3014 46.6914 64.207 51.1475 64.207C53.1396 64.207 54.1357 62.8702 54.6075 62.6343L55.0793 63.2896ZM44.9352 56.8676C47.3205 56.4482 50.099 55.7404 52.4057 54.9803C51.9339 52.9357 51.1213 50.9436 48.6049 50.9436C45.774 50.9436 44.9352 54.456 44.9352 56.8676Z" fill="black"/>
<path d="M59.9277 56.5268C59.9277 55.4259 59.1413 53.6697 57.5424 53.6697C56.5987 53.6697 55.9696 54.325 55.9696 55.3997C55.9696 58.1782 61.4218 57.3918 61.4218 61.2712C61.4218 63.5779 59.5083 64.6788 57.2016 64.6788C55.6026 64.6788 54.7638 64.2594 54.1085 63.9711C53.7678 62.8702 53.6367 61.6644 53.6367 60.6683H54.292C54.7901 62.2673 55.6289 63.84 57.5948 63.84C58.6957 63.84 59.3248 62.8964 59.3248 62.0314C59.3248 58.7024 53.8726 59.882 53.8726 55.8715C53.8726 53.8794 55.6813 52.7784 57.7783 52.7784C59.0627 52.7784 59.8228 53.1716 60.3733 53.4862C60.6092 54.3512 60.6878 55.1376 60.6878 56.422H59.9539V56.5268H59.9277Z" fill="black"/>
<path d="M85.7481 52.8309C84.0967 52.8309 82.9958 53.5387 82.4453 53.8532C82.4453 53.6697 82.3405 53.1193 82.1308 52.8309C81.2658 52.8309 79.3523 53.46 78.6445 53.6959L78.7232 54.2726L79.2736 54.1153C79.2998 54.1153 79.5095 54.0629 79.6144 54.0629C80.2697 54.0629 80.2697 54.7182 80.2697 57.156V69.7641C80.2697 69.7641 82.4191 70 82.4191 68.5583V67.9292V67.3001V64.3906C82.8123 64.4692 83.389 64.6527 84.4112 64.6527C87.1111 64.6527 91.043 63.0537 91.043 58.0996C91.0692 54.7444 88.6314 52.8309 85.7481 52.8309ZM85.1452 63.8401C83.5462 63.8401 83.0744 63.3683 82.4453 62.9489V54.5085C82.8385 54.3512 83.4676 53.9581 84.4899 53.9581C86.6917 53.9581 88.7887 55.4784 88.7887 58.7025C88.7887 61.848 87.6091 63.8401 85.1452 63.8401Z" fill="black"/>
</g>
<defs>
<clipPath id="clip0_2782_1936">
<rect width="66.5793" height="40" fill="white" transform="translate(41.7109 30)"/>
</clipPath>
</defs>
</svg>
