<svg width="150" height="100" viewBox="0 0 150 100" fill="none" xmlns="http://www.w3.org/2000/svg">
<g clip-path="url(#clip0_2782_1946)">
<path d="M129.93 43.6024V56.2664H137.872V54.8457H131.395V50.6216H136.949V49.2013H131.395V45.0223H137.872V43.6024H129.93Z" fill="black"/>
<path d="M122.822 49.2469C121.267 48.8669 119.819 48.5412 119.819 46.9133C119.819 45.6832 120.796 44.887 122.081 44.887C123.22 44.887 124.27 45.4479 124.758 46.3523L126.114 45.6106C125.464 44.2718 124.017 43.4034 122.226 43.4034C119.874 43.4034 118.336 44.7966 118.336 47.0398C118.336 49.5904 120.344 50.097 122.135 50.5492C123.691 50.9292 125.12 51.2549 125.12 52.865C125.12 54.276 123.944 54.9999 122.496 54.9999C120.887 54.9999 119.259 54.0951 119.259 52.3767C119.259 52.268 119.259 51.9606 119.295 51.6893H117.757C117.721 51.9423 117.721 52.268 117.721 52.431C117.721 55.0539 120.073 56.4653 122.443 56.4653C124.649 56.4653 126.621 55.2713 126.621 52.7202C126.621 50.1513 124.649 49.6809 122.822 49.2469Z" fill="black"/>
<path d="M112.851 51.5804C112.851 53.8058 111.82 54.9997 109.523 54.9997C107.225 54.9997 106.194 53.8058 106.194 51.5804V43.6024H104.729V51.5804C104.729 54.9271 106.61 56.4651 109.523 56.4651C112.435 56.4651 114.317 54.9271 114.317 51.5804V43.6024H112.851V51.5804Z" fill="black"/>
<path d="M28.6051 55.1919C25.7941 55.1919 23.5062 52.9045 23.5062 50.0927C23.5062 47.2817 25.7941 44.9943 28.6051 44.9943C31.4169 44.9943 33.7036 47.2817 33.7036 50.0927C33.7036 52.9045 31.4169 55.1919 28.6051 55.1919ZM28.6051 43.4158C24.9176 43.4158 21.9277 46.4052 21.9277 50.0927C21.9277 53.7806 24.9176 56.7704 28.6051 56.7704C32.2934 56.7704 35.282 53.7806 35.282 50.0927C35.282 46.4052 32.2934 43.4158 28.6051 43.4158Z" fill="black"/>
<path d="M83.1963 49.1743H76.3579V43.6022H74.8926V56.2661H76.3579V50.6035H83.1963V56.2661H84.6616V43.6022H83.1963V49.1743Z" fill="black"/>
<path d="M58.2726 55.192C55.4617 55.192 53.1742 52.9045 53.1742 50.0927C53.1742 47.2817 55.4617 44.9943 58.2726 44.9943C61.0844 44.9943 63.3714 47.2817 63.3714 50.0927C63.3714 52.9045 61.0844 55.192 58.2726 55.192ZM58.2726 43.4158C54.5852 43.4158 51.5957 46.4052 51.5957 50.0927C51.5957 53.7806 54.5852 56.7705 58.2726 56.7705C61.9609 56.7705 64.9499 53.7806 64.9499 50.0927C64.9499 46.4052 61.9609 43.4158 58.2726 43.4158Z" fill="black"/>
<path d="M46.8388 49.1744H40.0005V43.6023H38.5352V56.2662H40.0005V50.6037H46.8388V56.2662H48.3041V43.6023H46.8388V49.1744Z" fill="black"/>
<path d="M94.63 55.192C91.819 55.192 89.5316 52.9045 89.5316 50.0927C89.5316 47.2817 91.819 44.9943 94.63 44.9943C97.4418 44.9943 99.7288 47.2817 99.7288 50.0927C99.7288 52.9045 97.4418 55.192 94.63 55.192ZM94.63 43.4158C90.9426 43.4158 87.9531 46.4052 87.9531 50.0927C87.9531 53.7806 90.9426 56.7705 94.63 56.7705C98.3183 56.7705 101.307 53.7806 101.307 50.0927C101.307 46.4052 98.3183 43.4158 94.63 43.4158Z" fill="black"/>
<path d="M15.5347 49.3157C13.9737 48.934 12.5217 48.6075 12.5217 46.9739C12.5217 45.7401 13.5012 44.9416 14.7901 44.9416C15.9338 44.9416 16.9859 45.5041 17.4762 46.4114L18.8373 45.6675C18.1835 44.3243 16.7324 43.4531 14.9357 43.4531C12.5757 43.4531 11.0333 44.8507 11.0333 47.1012C11.0333 49.6604 13.0482 50.169 14.8449 50.622C16.4055 51.0036 17.8392 51.3305 17.8392 52.9451C17.8392 54.3614 16.659 55.0874 15.2078 55.0874C13.592 55.0874 11.9592 54.1792 11.9592 52.4552C11.9592 52.3465 11.9592 52.0383 11.9953 51.7661H10.4521C10.416 52.0196 10.416 52.3465 10.416 52.5099C10.416 55.1408 12.7752 56.5571 15.1531 56.5571C17.3675 56.5571 19.3455 55.3595 19.3455 52.8003C19.3455 50.2229 17.3675 49.7512 15.5347 49.3157Z" fill="black"/>
</g>
<defs>
<clipPath id="clip0_2782_1946">
<rect width="129.8" height="15.4" fill="white" transform="translate(10.0996 42.3)"/>
</clipPath>
</defs>
</svg>
