<svg preserveAspectRatio="none" width="100%" height="100%" overflow="visible" style="display: block;" viewBox="0 0 130.5 39.1404" fill="none" xmlns="http://www.w3.org/2000/svg">
<path id="Spotify" d="M19.5701 0C8.76207 0 0 8.76182 0 19.5699C0 30.3791 8.76207 39.1404 19.5701 39.1404C30.3786 39.1404 39.1402 30.3791 39.1402 19.5699C39.1402 8.76252 30.3791 0.000934054 19.5699 0.000934054L19.5701 0V0ZM28.5448 28.2254C28.1934 28.8019 27.4423 28.9825 26.8676 28.6313C22.2721 25.8225 16.4877 25.1881 9.67555 26.7442C9.01912 26.8947 8.36478 26.4832 8.21523 25.827C8.06496 25.1705 8.47461 24.5162 9.13269 24.3666C16.5875 22.6623 22.982 23.3959 28.1403 26.5479C28.7152 26.9008 28.8975 27.651 28.5446 28.2258L28.5448 28.2254V28.2254ZM30.9402 22.8974C30.4976 23.6156 29.5586 23.8408 28.8414 23.3999C23.5821 20.167 15.5625 19.2305 9.34045 21.1193C8.5335 21.363 7.68123 20.9082 7.43632 20.1027C7.19328 19.2958 7.64829 18.4451 8.45382 18.1997C15.5611 16.0432 24.3966 17.0878 30.4375 20.8C31.155 21.2417 31.3816 22.1812 30.9399 22.8977L30.9402 22.8974ZM31.1458 17.3486C24.8375 13.6023 14.4321 13.2578 8.4101 15.0855C7.44309 15.3788 6.42045 14.8329 6.1274 13.8659C5.83435 12.8984 6.37979 11.8765 7.34751 11.5825C14.2604 9.48394 25.7522 9.88939 33.014 14.2003C33.8838 14.7165 34.1691 15.8399 33.6536 16.7085C33.1394 17.5783 32.013 17.8651 31.1461 17.3486H31.1458V17.3486ZM53.2438 18.0665C49.8648 17.2608 49.2633 16.6952 49.2633 15.5069C49.2633 14.3842 50.3203 13.6287 51.8921 13.6287C53.4158 13.6287 54.9266 14.2024 56.5106 15.3835C56.5585 15.4193 56.6186 15.4335 56.6777 15.4242C56.7368 15.4153 56.7891 15.3828 56.8237 15.334L58.4736 13.0083C58.5414 12.9124 58.5229 12.7804 58.4315 12.7073C56.5463 11.1946 54.4235 10.4591 51.9421 10.4591C48.2937 10.4591 45.7453 12.6486 45.7453 15.7813C45.7453 19.1406 47.9437 20.3301 51.7426 21.2482C54.9759 21.993 55.5216 22.617 55.5216 23.7324C55.5216 24.9684 54.4181 25.7368 52.6423 25.7368C50.6699 25.7368 49.0612 25.0724 47.2615 23.5139C47.2169 23.4753 47.1557 23.4578 47.0991 23.4611C47.0395 23.466 46.9851 23.4936 46.9472 23.5391L45.0973 25.7408C45.0197 25.8321 45.0295 25.9686 45.1193 26.0476C47.2132 27.9169 49.7884 28.9043 52.5675 28.9043C56.4989 28.9043 59.0394 26.7562 59.0394 23.4314C59.0464 20.6248 57.3662 19.0707 53.2508 18.0696L53.2438 18.0665V18.0665ZM67.9337 14.7341C66.2296 14.7341 64.8319 15.4052 63.6793 16.7805V15.2325C63.6793 15.1103 63.5803 15.0108 63.4583 15.0108H60.4326C60.3104 15.0108 60.2116 15.1103 60.2116 15.2325V32.4328C60.2116 32.555 60.3104 32.6545 60.4326 32.6545H63.4583C63.5803 32.6545 63.6793 32.555 63.6793 32.4328V27.0034C64.8321 28.2971 66.2301 28.9293 67.9337 28.9293C71.1 28.9293 74.3054 26.4918 74.3054 21.8325C74.31 17.172 71.1038 14.7338 67.9372 14.7338L67.9337 14.7341ZM70.7871 21.8325C70.7871 24.2052 69.3256 25.8609 67.2329 25.8609C65.164 25.8609 63.6034 24.1299 63.6034 21.8325C63.6034 19.5353 65.164 17.8041 67.2329 17.8041C69.2917 17.8039 70.7873 19.4977 70.7873 21.8322L70.7871 21.8325V21.8325ZM82.5208 14.7341C78.4431 14.7341 75.2485 17.874 75.2485 21.8832C75.2485 25.8487 78.4211 28.9557 82.4708 28.9557C86.563 28.9557 89.7674 25.8263 89.7674 21.8325C89.7674 17.8525 86.5845 14.7345 82.5206 14.7345L82.5208 14.7341V14.7341ZM82.5208 25.8845C80.3519 25.8845 78.7168 24.1418 78.7168 21.8313C78.7168 19.511 80.2954 17.8272 82.4708 17.8272C84.6537 17.8272 86.2998 19.5699 86.2998 21.882C86.2998 24.2019 84.7107 25.8845 82.521 25.8845H82.5208V25.8845ZM98.475 15.0108H95.1456V11.6068C95.1456 11.4848 95.047 11.3853 94.9247 11.3853H91.8996C91.7771 11.3853 91.6778 11.4848 91.6778 11.6068V15.0108H90.2231C90.1013 15.0108 90.0027 15.1103 90.0027 15.2325V17.8328C90.0027 17.9548 90.1013 18.0546 90.2231 18.0546H91.6778V24.7828C91.6778 27.5019 93.0311 28.8804 95.7001 28.8804C96.7854 28.8804 97.6858 28.6563 98.5344 28.1751C98.6033 28.1366 98.646 28.0623 98.646 27.9833V25.5071C98.646 25.4306 98.6063 25.3584 98.5409 25.3185C98.475 25.2771 98.393 25.275 98.3254 25.3084C97.7426 25.6017 97.1792 25.737 96.5494 25.737C95.5786 25.737 95.1456 25.2963 95.1456 24.3085V18.0558H98.475C98.5972 18.0558 98.6956 17.9562 98.6956 17.834V15.234C98.7003 15.1117 98.6021 15.0122 98.4783 15.0122L98.475 15.0108V15.0108ZM110.076 15.0241V14.606C110.076 13.3761 110.547 12.8276 111.605 12.8276C112.236 12.8276 112.742 12.9529 113.31 13.1422C113.379 13.1641 113.452 13.1531 113.509 13.1113C113.568 13.0695 113.601 13.0024 113.601 12.9314V10.3818C113.601 10.2843 113.538 10.1981 113.444 10.1693C112.845 9.99102 112.078 9.80805 110.929 9.80805C108.135 9.80805 106.658 11.3817 106.658 14.3573V14.9977H105.204C105.082 14.9977 104.982 15.0972 104.982 15.2192V17.8328C104.982 17.9548 105.082 18.0546 105.204 18.0546H106.658V28.4326C106.658 28.5548 106.756 28.6544 106.878 28.6544H109.904C110.026 28.6544 110.126 28.5548 110.126 28.4326V18.0553H112.95L117.278 28.4308C116.786 29.521 116.303 29.7378 115.644 29.7378C115.111 29.7378 114.55 29.5787 113.976 29.2646C113.922 29.2349 113.858 29.23 113.799 29.248C113.742 29.2683 113.693 29.3113 113.669 29.3674L112.643 31.6172C112.594 31.7235 112.636 31.8483 112.738 31.9035C113.809 32.4832 114.775 32.7307 115.97 32.7307C118.204 32.7307 119.439 31.6901 120.527 28.8904L125.776 15.3269C125.803 15.2587 125.795 15.1816 125.753 15.1211C125.711 15.061 125.644 15.0248 125.571 15.0248H122.421C122.327 15.0248 122.242 15.0848 122.211 15.1734L118.985 24.3898L115.451 15.1673C115.418 15.0816 115.336 15.0248 115.244 15.0248H110.075L110.076 15.0241V15.0241ZM103.35 15.0108H100.324C100.202 15.0108 100.102 15.1103 100.102 15.2325V28.4326C100.102 28.5549 100.202 28.6544 100.324 28.6544H103.35C103.472 28.6544 103.572 28.5549 103.572 28.4326V15.2335C103.572 15.2043 103.566 15.1754 103.555 15.1485C103.544 15.1215 103.527 15.097 103.507 15.0764C103.486 15.0558 103.462 15.0395 103.435 15.0284C103.408 15.0173 103.379 15.0116 103.35 15.0117L103.35 15.0108ZM101.854 9.00043C100.656 9.00043 99.6829 9.97071 99.6829 11.1693C99.6829 12.3686 100.656 13.3401 101.854 13.3401C103.052 13.3401 104.024 12.3686 104.024 11.1693C104.024 9.97095 103.052 9.00043 101.855 9.00043H101.854V9.00043ZM128.36 19.2548C127.162 19.2548 126.23 18.2932 126.23 17.1254C126.23 15.9577 127.174 14.9851 128.371 14.9851C129.568 14.9851 130.5 15.9465 130.5 17.1133C130.5 18.2811 129.556 19.2548 128.359 19.2548H128.36V19.2548ZM128.371 15.1968C127.281 15.1968 126.455 16.0638 126.455 17.1254C126.455 18.1866 127.275 19.042 128.36 19.042C129.451 19.042 130.277 18.1757 130.277 17.1133C130.277 16.0521 129.457 15.1968 128.372 15.1968H128.371V15.1968ZM128.843 17.3322L129.446 18.1754H128.938L128.396 17.4019H127.929V18.1754H127.504V15.9404H128.501C129.02 15.9404 129.362 16.2061 129.362 16.6534C129.364 17.0198 129.151 17.2437 128.845 17.3323H128.843V17.3322ZM128.483 16.3239H127.929V17.0308H128.483C128.76 17.0308 128.925 16.8955 128.925 16.677C128.925 16.447 128.759 16.3239 128.484 16.3239H128.483V16.3239Z" fill="var(--fill-0, #2EBD59)"/>
</svg>
