<svg width="150" height="100" viewBox="0 0 150 100" fill="none" xmlns="http://www.w3.org/2000/svg">
<path d="M38.4559 34.7396C29.8095 34.7396 22.7998 41.7491 22.7998 50.3955C22.7998 59.0429 29.8095 66.052 38.4559 66.052C47.1027 66.052 54.112 59.0429 54.112 50.3955C54.112 41.7496 47.1031 34.7404 38.4557 34.7404L38.4559 34.7396ZM45.6357 57.3199C45.3545 57.7811 44.7536 57.9256 44.2939 57.6447C40.6174 55.3977 35.99 54.8901 30.5402 56.135C30.0151 56.2554 29.4916 55.9262 29.372 55.4012C29.2518 54.8761 29.5795 54.3526 30.106 54.2329C36.0698 52.8695 41.1854 53.4563 45.3121 55.978C45.772 56.2603 45.9178 56.8604 45.6355 57.3203L45.6357 57.3199ZM47.552 53.0576C47.1979 53.6321 46.4467 53.8123 45.8729 53.4595C41.6655 50.8732 35.2498 50.1241 30.2722 51.635C29.6266 51.83 28.9448 51.4662 28.7489 50.8218C28.5544 50.1762 28.9184 49.4957 29.5629 49.2994C35.2487 47.5742 42.317 48.4099 47.1498 51.3797C47.7238 51.733 47.9051 52.4846 47.5518 53.0577L47.552 53.0576ZM47.7165 48.6185C42.6698 45.6215 34.3455 45.3459 29.5279 46.8081C28.7543 47.0427 27.9362 46.606 27.7017 45.8323C27.4673 45.0584 27.9036 44.2408 28.6778 44.0056C34.2081 42.3268 43.4016 42.6511 49.211 46.0999C49.9068 46.5129 50.1351 47.4115 49.7227 48.1064C49.3114 48.8023 48.4102 49.0317 47.7167 48.6185H47.7165ZM65.3948 49.1928C62.6917 48.5482 62.2104 48.0958 62.2104 47.1451C62.2104 46.247 63.056 45.6426 64.3135 45.6426C65.5324 45.6426 66.7411 46.1016 68.0083 47.0464C68.0466 47.075 68.0946 47.0864 68.1419 47.079C68.1892 47.0719 68.2311 47.0459 68.2588 47.0068L69.5787 45.1462C69.6329 45.0696 69.6181 44.9639 69.545 44.9054C68.0369 43.6953 66.3386 43.1069 64.3535 43.1069C61.4348 43.1069 59.3961 44.8585 59.3961 47.3646C59.3961 50.0521 61.1547 51.0037 64.1939 51.7382C66.7806 52.334 67.2171 52.8332 67.2171 53.7255C67.2171 54.7143 66.3343 55.329 64.9136 55.329C63.3358 55.329 62.0488 54.7975 60.609 53.5507C60.5733 53.5199 60.5243 53.5059 60.4791 53.5085C60.4314 53.5124 60.3878 53.5345 60.3576 53.5709L58.8776 55.3322C58.8156 55.4053 58.8234 55.5145 58.8952 55.5777C60.5703 57.0731 62.6306 57.863 64.8538 57.863C67.9989 57.863 70.0313 56.1446 70.0313 53.4848C70.0369 51.2394 68.6927 49.9962 65.4005 49.1953L65.3948 49.1928ZM77.1468 46.5269C75.7835 46.5269 74.6653 47.0638 73.7433 48.164V46.9256C73.7433 46.8279 73.664 46.7482 73.5664 46.7482H71.1459C71.0481 46.7482 70.9691 46.8279 70.9691 46.9256V60.6858C70.9691 60.7836 71.0481 60.8632 71.1459 60.8632H73.5664C73.664 60.8632 73.7433 60.7836 73.7433 60.6858V56.3423C74.6655 57.3773 75.7839 57.883 77.1468 57.883C79.6798 57.883 82.2441 55.9331 82.2441 52.2056C82.2478 48.4772 79.6828 46.5267 77.1496 46.5267L77.1468 46.5269ZM79.4295 52.2056C79.4295 54.1038 78.2603 55.4283 76.5861 55.4283C74.931 55.4283 73.6825 54.0436 73.6825 52.2056C73.6825 50.3679 74.931 48.9829 76.5861 48.9829C78.2332 48.9827 79.4297 50.3378 79.4297 52.2054L79.4295 52.2056ZM88.8165 46.5269C85.5543 46.5269 82.9986 49.0388 82.9986 52.2462C82.9986 55.4186 85.5367 57.9041 88.7764 57.9041C92.0502 57.9041 94.6137 55.4006 94.6137 52.2056C94.6137 49.0216 92.0674 46.5273 88.8163 46.5273L88.8165 46.5269ZM88.8165 55.4472C87.0813 55.4472 85.7732 54.0531 85.7732 52.2047C85.7732 50.3484 87.0361 49.0014 88.7764 49.0014C90.5228 49.0014 91.8397 50.3955 91.8397 52.2452C91.8397 54.1011 90.5684 55.4472 88.8166 55.4472H88.8165ZM101.58 46.7482H98.9163V44.0251C98.9163 43.9275 98.8374 43.8478 98.7396 43.8478H96.3195C96.2215 43.8478 96.1421 43.9275 96.1421 44.0251V46.7482H94.9783C94.8809 46.7482 94.802 46.8279 94.802 46.9257V49.0059C94.802 49.1035 94.8809 49.1833 94.9783 49.1833H96.1421V54.5659C96.1421 56.7411 97.2247 57.844 99.3599 57.844C100.228 57.844 100.948 57.6647 101.627 57.2797C101.682 57.2489 101.717 57.1894 101.717 57.1262V55.1453C101.717 55.0841 101.685 55.0264 101.633 54.9944C101.58 54.9613 101.514 54.9596 101.46 54.9864C100.994 55.221 100.543 55.3292 100.039 55.3292C99.2627 55.3292 98.9163 54.9766 98.9163 54.1864V49.1843H101.58C101.678 49.1843 101.756 49.1046 101.756 49.0068V46.9268C101.76 46.829 101.681 46.7494 101.582 46.7494L101.58 46.7482ZM110.86 46.7589V46.4244C110.86 45.4405 111.237 45.0017 112.084 45.0017C112.588 45.0017 112.994 45.1019 113.447 45.2533C113.503 45.2709 113.562 45.2621 113.607 45.2287C113.654 45.1952 113.68 45.1415 113.68 45.0847V43.045C113.68 42.9671 113.63 42.8981 113.555 42.8751C113.075 42.7324 112.462 42.5861 111.543 42.5861C109.308 42.5861 108.126 43.845 108.126 46.2255V46.7378H106.963C106.865 46.7378 106.785 46.8174 106.785 46.915V49.0059C106.785 49.1035 106.865 49.1833 106.963 49.1833H108.126V57.4857C108.126 57.5835 108.205 57.6631 108.302 57.6631H110.723C110.821 57.6631 110.9 57.5835 110.9 57.4857V49.1839H113.16L116.622 57.4843C116.229 58.3564 115.843 58.5299 115.315 58.5299C114.889 58.5299 114.439 58.4026 113.98 58.1513C113.937 58.1276 113.886 58.1236 113.839 58.138C113.793 58.1543 113.754 58.1887 113.735 58.2336L112.914 60.0334C112.875 60.1184 112.909 60.2183 112.991 60.2624C113.847 60.7262 114.62 60.9242 115.576 60.9242C117.363 60.9242 118.351 60.0917 119.222 57.852L123.421 47.0012C123.442 46.9466 123.435 46.8849 123.402 46.8365C123.369 46.7884 123.315 46.7594 123.256 46.7594H120.737C120.661 46.7594 120.594 46.8075 120.569 46.8784L117.988 54.2514L115.16 46.8735C115.135 46.8049 115.068 46.7594 114.995 46.7594H110.86L110.86 46.7589ZM105.48 46.7482H103.059C102.961 46.7482 102.882 46.8279 102.882 46.9257V57.4857C102.882 57.5835 102.961 57.6632 103.059 57.6632H105.48C105.577 57.6632 105.657 57.5835 105.657 57.4857V46.9264C105.657 46.9031 105.653 46.88 105.644 46.8584C105.635 46.8368 105.622 46.8172 105.605 46.8008C105.589 46.7843 105.569 46.7712 105.547 46.7623C105.526 46.7534 105.503 46.7489 105.479 46.749L105.48 46.7482ZM104.283 41.94C103.324 41.94 102.546 42.7162 102.546 43.6751C102.546 44.6345 103.324 45.4117 104.283 45.4117C105.242 45.4117 106.019 44.6345 106.019 43.6751C106.019 42.7164 105.241 41.94 104.284 41.94H104.283ZM125.487 50.1435C124.53 50.1435 123.784 49.3742 123.784 48.44C123.784 47.5058 124.539 46.7277 125.496 46.7277C126.454 46.7277 127.2 47.4968 127.2 48.4303C127.2 49.3645 126.445 50.1435 125.487 50.1435H125.487ZM125.497 46.897C124.624 46.897 123.964 47.5906 123.964 48.44C123.964 49.2889 124.62 49.9732 125.488 49.9732C126.36 49.9732 127.021 49.2802 127.021 48.4303C127.021 47.5813 126.365 46.897 125.498 46.897H125.497ZM125.874 48.6054L126.356 49.28H125.95L125.516 48.6611H125.143V49.28H124.803V47.4919H125.601C126.016 47.4919 126.289 47.7045 126.289 48.0623C126.291 48.3555 126.121 48.5346 125.876 48.6054H125.874V48.6054ZM125.587 47.7987H125.143V48.3643H125.587C125.808 48.3643 125.94 48.256 125.94 48.0812C125.94 47.8973 125.807 47.7987 125.587 47.7987H125.587V47.7987Z" fill="#2EBD59"/>
</svg>
