<?xml version="1.0" encoding="utf-8"?>
<svg xmlns="http://www.w3.org/2000/svg" viewBox="0 0 150 100" xmlns:bx="https://boxy-svg.com" width="150px" height="100px"><defs><bx:export><bx:file format="svg" excluded="true"/><bx:file format="svg" path="Untitled 2.svg" excluded="true"/><bx:file format="svg" path="Untitled 3.svg" excluded="true"/><bx:file format="svg" path="Untitled 4.svg"/></bx:export></defs><polygon class="cls-1" points="127.349 41.737 123.22 45.864 123.22 45.875 127.349 50.002 123.22 54.128 123.22 54.136 127.349 58.263 135.61 50.002 127.349 41.737" style="fill: rgb(236, 28, 36);"/><polygon class="cls-1" points="119.088 41.737 123.211 45.864 123.211 45.875 119.088 50.002 123.211 54.128 123.211 54.136 119.088 58.263 110.823 50.002 119.088 41.737" style="fill: rgb(236, 28, 36);"/><path class="cls-1" d="M 16.238 54.112 L 16.238 47.822 L 14.39 47.822 L 14.39 45.872 L 20.331 45.872 L 20.331 47.822 L 18.483 47.822 L 18.483 54.112 L 16.238 54.112 Z M 21.428 54.112 L 21.428 45.872 L 26.479 45.872 L 26.479 47.675 L 23.619 47.675 L 23.619 49.109 L 26.318 49.109 L 26.318 50.876 L 23.619 50.876 L 23.619 52.265 L 26.479 52.265 L 26.479 54.112 L 21.428 54.112 Z M 33.941 46.189 L 33.941 48.649 C 33.63 48.306 33.326 48.058 33.021 47.897 C 32.716 47.735 32.385 47.657 32.038 47.657 C 31.391 47.657 30.871 47.881 30.471 48.317 C 30.071 48.76 29.871 49.33 29.871 50.043 C 29.871 50.707 30.077 51.253 30.483 51.692 C 30.892 52.127 31.409 52.343 32.041 52.343 C 32.388 52.343 32.719 52.265 33.024 52.101 C 33.328 51.942 33.633 51.689 33.943 51.343 L 33.943 53.805 C 33.585 53.975 33.23 54.107 32.877 54.194 C 32.526 54.28 32.17 54.318 31.806 54.318 C 31.355 54.318 30.94 54.268 30.56 54.157 C 30.179 54.053 29.829 53.886 29.51 53.668 C 28.892 53.256 28.423 52.739 28.103 52.116 C 27.778 51.483 27.62 50.781 27.62 49.992 C 27.62 49.362 27.721 48.792 27.928 48.273 C 28.13 47.756 28.441 47.287 28.856 46.867 C 29.241 46.466 29.683 46.168 30.175 45.968 C 30.662 45.767 31.209 45.672 31.809 45.672 C 32.173 45.672 32.528 45.714 32.88 45.798 C 33.233 45.884 33.589 46.015 33.946 46.186 M 35.213 54.11 L 35.213 45.872 L 37.458 45.872 L 37.458 49.076 L 40.456 49.076 L 40.456 45.872 L 42.707 45.872 L 42.707 54.112 L 40.456 54.112 L 40.456 50.757 L 37.458 50.757 L 37.458 54.112 L 35.213 54.112 L 35.213 54.11 Z M 50.43 46.186 L 50.43 48.646 C 50.126 48.303 49.822 48.055 49.511 47.894 C 49.207 47.733 48.878 47.654 48.532 47.654 C 47.884 47.654 47.361 47.878 46.964 48.314 C 46.561 48.757 46.365 49.327 46.365 50.04 C 46.365 50.703 46.567 51.249 46.976 51.689 C 47.382 52.124 47.902 52.339 48.532 52.339 C 48.878 52.339 49.21 52.262 49.511 52.098 C 49.822 51.939 50.126 51.686 50.43 51.339 L 50.43 53.803 C 50.076 53.972 49.723 54.104 49.368 54.191 C 49.018 54.277 48.657 54.316 48.299 54.316 C 47.848 54.316 47.434 54.265 47.054 54.154 C 46.672 54.05 46.323 53.883 46 53.665 C 45.384 53.253 44.916 52.737 44.594 52.112 C 44.271 51.48 44.11 50.778 44.11 49.99 C 44.11 49.359 44.214 48.789 44.418 48.269 C 44.621 47.754 44.931 47.284 45.343 46.864 C 45.737 46.463 46.173 46.165 46.666 45.965 C 47.155 45.765 47.699 45.669 48.299 45.669 C 48.657 45.669 49.018 45.711 49.368 45.794 C 49.72 45.881 50.076 46.012 50.43 46.183 M 60.165 50.005 C 60.165 50.596 60.057 51.154 59.836 51.671 C 59.621 52.187 59.302 52.65 58.883 53.062 C 58.463 53.468 57.985 53.779 57.441 53.999 C 56.901 54.22 56.342 54.334 55.758 54.334 C 55.172 54.334 54.605 54.223 54.064 53.999 C 53.524 53.779 53.052 53.468 52.641 53.062 C 52.213 52.65 51.894 52.187 51.673 51.665 C 51.454 51.145 51.348 50.589 51.348 50.005 C 51.348 49.419 51.454 48.861 51.673 48.342 C 51.891 47.819 52.213 47.356 52.641 46.944 C 53.052 46.541 53.524 46.231 54.064 46.007 C 54.602 45.791 55.166 45.678 55.758 45.678 C 56.349 45.678 56.907 45.791 57.447 46.007 C 57.991 46.231 58.468 46.541 58.88 46.944 C 59.292 47.353 59.609 47.819 59.83 48.338 C 60.051 48.858 60.158 49.416 60.158 50.008 M 55.755 52.429 C 56.378 52.429 56.892 52.196 57.298 51.742 C 57.707 51.282 57.91 50.703 57.91 50.008 C 57.91 49.312 57.701 48.739 57.289 48.273 C 56.877 47.813 56.363 47.583 55.755 47.583 C 55.145 47.583 54.617 47.816 54.211 48.273 C 53.802 48.733 53.599 49.312 53.599 50.008 C 53.599 50.703 53.799 51.291 54.199 51.745 C 54.599 52.199 55.119 52.429 55.755 52.429 M 71.02 54.11 L 68.922 54.11 L 68.438 50.544 C 68.405 50.298 68.375 50.016 68.345 49.709 C 68.312 49.401 68.288 49.067 68.265 48.699 C 68.214 49.052 68.109 49.488 67.954 50.011 C 67.918 50.121 67.897 50.195 67.882 50.249 L 66.763 54.112 L 65.264 54.112 L 64.142 50.249 C 64.126 50.195 64.103 50.118 64.076 50.011 C 63.918 49.488 63.813 49.055 63.765 48.709 C 63.741 49.022 63.714 49.33 63.688 49.634 C 63.654 49.945 63.615 50.249 63.58 50.551 L 63.097 54.116 L 61.004 54.116 L 62.279 45.875 L 64.499 45.875 L 65.744 50.127 C 65.753 50.154 65.768 50.204 65.786 50.274 C 65.906 50.649 65.977 50.975 66.011 51.246 C 66.022 51.1 66.052 50.936 66.093 50.76 C 66.135 50.586 66.19 50.366 66.264 50.118 L 67.521 45.878 L 69.748 45.878 L 71.014 54.119 L 71.02 54.11 Z" style="fill: rgb(236, 28, 36);"/><path class="cls-2" d="M 74.305 49.177 L 74.752 49.177 C 75.314 49.177 75.693 49.115 75.899 48.989 C 76.102 48.87 76.209 48.657 76.209 48.356 C 76.209 48.055 76.111 47.828 75.917 47.699 C 75.729 47.577 75.35 47.511 74.791 47.511 L 74.305 47.511 L 74.305 49.174 L 74.305 49.177 Z M 72.221 54.128 L 72.221 45.878 L 74.48 45.878 C 75.409 45.878 76.06 45.908 76.43 45.968 C 76.8 46.025 77.117 46.135 77.386 46.279 C 77.687 46.448 77.921 46.675 78.082 46.959 C 78.24 47.243 78.32 47.569 78.32 47.944 C 78.32 48.416 78.201 48.786 77.965 49.064 C 77.723 49.338 77.341 49.548 76.821 49.688 C 77.407 49.736 77.863 49.942 78.195 50.309 C 78.529 50.673 78.694 51.163 78.694 51.775 C 78.694 52.214 78.601 52.602 78.416 52.937 C 78.231 53.271 77.965 53.531 77.618 53.713 C 77.338 53.862 76.989 53.969 76.58 54.032 C 76.168 54.098 75.49 54.131 74.549 54.131 L 72.224 54.131 L 72.221 54.128 Z M 74.305 52.444 L 75.095 52.444 C 75.628 52.444 76.006 52.375 76.227 52.241 C 76.448 52.106 76.562 51.882 76.562 51.575 C 76.562 51.229 76.46 50.99 76.258 50.852 C 76.055 50.715 75.678 50.644 75.132 50.644 L 74.308 50.644 L 74.308 52.444 L 74.305 52.444 Z M 82.229 51.04 L 84.465 51.04 L 83.624 48.324 C 83.599 48.24 83.563 48.105 83.519 47.923 C 83.474 47.738 83.414 47.503 83.339 47.213 C 83.295 47.416 83.247 47.61 83.196 47.792 C 83.152 47.974 83.104 48.15 83.052 48.324 L 82.226 51.04 L 82.229 51.04 Z M 79.079 54.128 L 81.924 45.878 L 84.743 45.878 L 87.594 54.128 L 85.355 54.128 L 84.937 52.65 L 81.742 52.65 L 81.312 54.128 L 79.076 54.128 L 79.079 54.128 Z M 88.382 54.128 L 88.382 45.878 L 90.55 45.878 L 93.667 50.124 C 93.727 50.208 93.825 50.38 93.962 50.644 C 94.1 50.906 94.249 51.214 94.413 51.578 C 94.369 51.238 94.339 50.93 94.315 50.662 C 94.294 50.399 94.282 50.163 94.282 49.957 L 94.282 45.884 L 96.444 45.884 L 96.444 54.133 L 94.282 54.133 L 91.165 49.873 C 91.103 49.786 91.004 49.617 90.863 49.354 C 90.729 49.09 90.58 48.786 90.418 48.431 C 90.46 48.778 90.496 49.082 90.517 49.351 C 90.538 49.62 90.547 49.852 90.547 50.061 L 90.547 54.133 L 88.38 54.133 L 88.382 54.128 Z M 98.214 54.128 L 98.214 45.878 L 100.439 45.878 L 100.439 49.622 L 103.051 45.878 L 105.669 45.878 L 102.621 49.903 L 105.935 54.128 L 103.125 54.128 L 100.436 50.422 L 100.436 54.128 L 98.211 54.128 L 98.214 54.128 Z" style="fill: rgb(6, 25, 34);"/></svg>