<svg width="150" height="100" viewBox="0 0 150 100" fill="none" xmlns="http://www.w3.org/2000/svg">
<path fill-rule="evenodd" clip-rule="evenodd" d="M53.5123 46.7394H40.0829C39.6986 46.7394 39.3952 46.4324 39.3952 46.0434V43.3615C39.3952 42.9725 39.6986 42.6655 40.0829 42.6655H53.5123C53.8966 42.6655 54.2 42.9725 54.2 43.3615V46.0434C54.2 46.4324 53.8764 46.7394 53.5123 46.7394ZM71.816 60.6402V57.9583C71.816 57.5693 71.5126 57.2622 71.1283 57.2622H58.0427C57.6585 57.2622 57.3551 57.5693 57.3551 57.9583V60.6402C57.3551 61.0291 57.6585 61.3362 58.0427 61.3362H71.1283C71.5126 61.3362 71.816 61.0291 71.816 60.6402ZM44.7953 57.2622L49.5684 51.9189C49.8111 51.6528 49.8111 51.2229 49.5482 50.9567L47.6673 49.0528C47.3841 48.7662 46.9392 48.7867 46.6762 49.0733L39.557 57.0575C39.4357 57.1803 39.375 57.3441 39.375 57.5284V60.6402C39.375 61.0291 39.6784 61.3362 40.0627 61.3362H53.4921C53.8764 61.3362 54.1797 61.0291 54.1797 60.6402V57.9583C54.1797 57.5693 53.8764 57.2622 53.4921 57.2622H44.7953ZM71.816 46.0434V43.3615C71.816 42.9725 71.5126 42.6655 71.1283 42.6655H58.0427C57.6585 42.6655 57.3551 42.9725 57.3551 43.3615V53.3315C57.3551 53.7205 57.6585 54.0276 58.0427 54.0276H68.4991C68.8834 54.0276 69.1867 53.7205 69.1867 53.3315V50.6701C69.1867 50.2812 68.8834 49.9741 68.4991 49.9741H61.3799V46.7394H71.1283C71.5126 46.7394 71.816 46.4324 71.816 46.0434ZM86.2336 56.3L88.1145 58.204C88.3977 58.4906 88.3774 58.9614 88.0741 59.2276C84.292 62.4827 78.5683 62.237 75.1098 58.4496C71.7929 54.8465 71.7929 49.1757 75.1098 45.5521C78.5683 41.7647 84.292 41.4985 88.0741 44.7741C88.3774 45.0402 88.3977 45.5111 88.1145 45.7977L86.2336 47.7016C85.9909 47.9473 85.5864 47.9678 85.3234 47.7631C83.1391 46.0024 79.8829 46.2072 77.9615 48.4182C76.1817 50.4449 76.1817 53.5567 77.9615 55.5835C79.8829 57.7945 83.1391 58.0197 85.3234 56.2386C85.6066 56.0339 85.9909 56.0544 86.2336 56.3ZM110.625 52.0008C110.625 57.2418 106.418 61.5 101.241 61.5C96.063 61.5 91.8561 57.2418 91.8561 52.0008C91.8561 46.7599 96.063 42.5017 101.241 42.5017C106.418 42.5017 110.625 46.7599 110.625 52.0008ZM106.6 52.0008C106.6 49.0119 104.193 46.5757 101.241 46.5757C98.2877 46.5757 95.8809 49.0119 95.8809 52.0008C95.8809 54.9898 98.2877 57.426 101.241 57.426C104.214 57.426 106.6 54.9898 106.6 52.0008ZM89.8539 53.3315V50.6701C89.8539 50.2812 89.5505 49.9741 89.1662 49.9741H81.5414C81.1571 49.9741 80.8537 50.2812 80.8537 50.6701V53.3315C80.8537 53.7205 81.1571 54.0276 81.5414 54.0276H89.1662C89.5505 54.0276 89.8539 53.7205 89.8539 53.3315Z" fill="#371987"/>
</svg>
