<svg width="32" height="32" viewBox="0 0 32 32" fill="none" xmlns="http://www.w3.org/2000/svg">
<path d="M14.6899 3.75198C14.7471 3.44612 14.9094 3.16987 15.1487 2.97107C15.3881 2.77227 15.6894 2.66345 16.0006 2.66345C16.3117 2.66345 16.6131 2.77227 16.8525 2.97107C17.0918 3.16987 17.2541 3.44612 17.3113 3.75198L18.7126 11.1626C18.8121 11.6895 19.0682 12.1741 19.4473 12.5533C19.8264 12.9324 20.3111 13.1885 20.8379 13.288L28.2486 14.6893C28.5545 14.7464 28.8307 14.9087 29.0295 15.1481C29.2283 15.3875 29.3371 15.6888 29.3371 16C29.3371 16.3111 29.2283 16.6125 29.0295 16.8518C28.8307 17.0912 28.5545 17.2535 28.2486 17.3106L20.8379 18.712C20.3111 18.8115 19.8264 19.0675 19.4473 19.4467C19.0682 19.8258 18.8121 20.3104 18.7126 20.8373L17.3113 28.248C17.2541 28.5538 17.0918 28.8301 16.8525 29.0289C16.6131 29.2277 16.3117 29.3365 16.0006 29.3365C15.6894 29.3365 15.3881 29.2277 15.1487 29.0289C14.9094 28.8301 14.7471 28.5538 14.6899 28.248L13.2886 20.8373C13.1891 20.3104 12.933 19.8258 12.5539 19.4467C12.1747 19.0675 11.6901 18.8115 11.1633 18.712L3.75259 17.3106C3.44673 17.2535 3.17048 17.0912 2.97168 16.8518C2.77288 16.6125 2.66406 16.3111 2.66406 16C2.66406 15.6888 2.77288 15.3875 2.97168 15.1481C3.17048 14.9087 3.44673 14.7464 3.75259 14.6893L11.1633 13.288C11.6901 13.1885 12.1747 12.9324 12.5539 12.5533C12.933 12.1741 13.1891 11.6895 13.2886 11.1626L14.6899 3.75198Z" stroke="#007D79" stroke-width="2.5" stroke-linecap="round" stroke-linejoin="round"/>
<path d="M26.666 2.66663V7.99996" stroke="#007D79" stroke-width="2.5" stroke-linecap="round" stroke-linejoin="round"/>
<path d="M29.3333 5.33337H24" stroke="#007D79" stroke-width="2.5" stroke-linecap="round" stroke-linejoin="round"/>
<path d="M5.33268 29.3333C6.80544 29.3333 7.99935 28.1394 7.99935 26.6667C7.99935 25.1939 6.80544 24 5.33268 24C3.85992 24 2.66602 25.1939 2.66602 26.6667C2.66602 28.1394 3.85992 29.3333 5.33268 29.3333Z" stroke="#007D79" stroke-width="2.5" stroke-linecap="round" stroke-linejoin="round"/>
</svg>
