<svg width="32" height="32" viewBox="0 0 32 32" fill="none" xmlns="http://www.w3.org/2000/svg">
<path d="M19.9993 7.83996L18.666 13.3333H26.4393C26.8533 13.3333 27.2616 13.4297 27.6319 13.6148C28.0022 13.8 28.3243 14.0688 28.5727 14.4C28.8211 14.7311 28.9889 15.1156 29.063 15.5229C29.1371 15.9302 29.1153 16.3492 28.9993 16.7466L25.8927 27.4133C25.7311 27.9672 25.3943 28.4538 24.9327 28.8C24.4711 29.1462 23.9097 29.3333 23.3327 29.3333H5.33268C4.62544 29.3333 3.94716 29.0523 3.44706 28.5522C2.94697 28.0521 2.66602 27.3739 2.66602 26.6666V16C2.66602 15.2927 2.94697 14.6144 3.44706 14.1143C3.94716 13.6142 4.62544 13.3333 5.33268 13.3333H9.01268C9.50879 13.333 9.995 13.1944 10.4166 12.9329C10.8382 12.6715 11.1786 12.2976 11.3993 11.8533L15.9993 2.66663C16.6281 2.67441 17.247 2.82418 17.8098 3.10475C18.3725 3.38532 18.8646 3.78944 19.2492 4.2869C19.6339 4.78436 19.9011 5.36231 20.031 5.97756C20.1609 6.59282 20.1501 7.22947 19.9993 7.83996Z" stroke="#007D79" stroke-width="2.5" stroke-linecap="round" stroke-linejoin="round"/>
<path d="M9.33398 13.3334V29.3334" stroke="#007D79" stroke-width="2.5" stroke-linecap="round" stroke-linejoin="round"/>
</svg>
