<svg width="32" height="32" viewBox="0 0 32 32" fill="none" xmlns="http://www.w3.org/2000/svg">
<path d="M13.3327 29.3333V9.33333C13.3327 8.97971 13.1922 8.64057 12.9422 8.39052C12.6921 8.14048 12.353 8 11.9993 8H5.33268C4.62544 8 3.94716 8.28095 3.44706 8.78105C2.94697 9.28115 2.66602 9.95942 2.66602 10.6667V26.6667C2.66602 27.3739 2.94697 28.0522 3.44706 28.5523C3.94716 29.0524 4.62544 29.3333 5.33268 29.3333H21.3327C22.0399 29.3333 22.7182 29.0524 23.2183 28.5523C23.7184 28.0522 23.9993 27.3739 23.9993 26.6667V20C23.9993 19.6464 23.8589 19.3072 23.6088 19.0572C23.3588 18.8071 23.0196 18.6667 22.666 18.6667H2.66602" stroke="#007D79" stroke-width="2.5" stroke-linecap="round" stroke-linejoin="round"/>
<path d="M27.9993 2.66675H19.9993C19.263 2.66675 18.666 3.2637 18.666 4.00008V12.0001C18.666 12.7365 19.263 13.3334 19.9993 13.3334H27.9993C28.7357 13.3334 29.3327 12.7365 29.3327 12.0001V4.00008C29.3327 3.2637 28.7357 2.66675 27.9993 2.66675Z" stroke="#007D79" stroke-width="2.5" stroke-linecap="round" stroke-linejoin="round"/>
</svg>
