<svg width="32" height="32" viewBox="0 0 32 32" fill="none" xmlns="http://www.w3.org/2000/svg">
<path d="M16.0004 6.66682C16.002 6.13352 15.8969 5.6053 15.6914 5.11321C15.4858 4.62113 15.1839 4.17512 14.8035 3.80141C14.423 3.4277 13.9717 3.13385 13.476 2.93712C12.9803 2.7404 12.4503 2.64478 11.9171 2.6559C11.3839 2.66701 10.8583 2.78463 10.3713 3.00184C9.88422 3.21904 9.44551 3.53145 9.08096 3.92069C8.71641 4.30992 8.43337 4.76813 8.24849 5.26835C8.06362 5.76858 7.98063 6.30072 8.00442 6.83348C7.22069 7.035 6.49309 7.41222 5.87673 7.93656C5.26037 8.46091 4.77141 9.11865 4.44688 9.85995C4.12236 10.6012 3.97077 11.4067 4.00361 12.2152C4.03645 13.0238 4.25285 13.8143 4.63642 14.5268C3.962 15.0747 3.43166 15.7791 3.09154 16.5787C2.75143 17.3783 2.61183 18.2489 2.68491 19.1148C2.75798 19.9807 3.04151 20.8156 3.51083 21.5468C3.98015 22.2781 4.62104 22.8837 5.37776 23.3108C5.28431 24.0338 5.34008 24.7683 5.54161 25.4688C5.74314 26.1694 6.08615 26.8213 6.54947 27.3841C7.01279 27.9469 7.58657 28.4088 8.23538 28.7412C8.8842 29.0735 9.59426 29.2694 10.3217 29.3166C11.0492 29.3638 11.7786 29.2614 12.4649 29.0156C13.1513 28.7699 13.7799 28.3861 14.3121 27.8878C14.8443 27.3896 15.2687 26.7876 15.559 26.1189C15.8494 25.4502 15.9996 24.7291 16.0004 24.0001V6.66682Z" stroke="#007D79" stroke-width="2.5" stroke-linecap="round" stroke-linejoin="round"/>
<path d="M12 17.3333C13.1194 16.9395 14.0969 16.2227 14.8089 15.2733C15.5209 14.324 15.9354 13.1849 16 12" stroke="#007D79" stroke-width="2.5" stroke-linecap="round" stroke-linejoin="round"/>
<path d="M8.00586 6.83325C8.03223 7.47823 8.2143 8.10725 8.53653 8.66659" stroke="#007D79" stroke-width="2.5" stroke-linecap="round" stroke-linejoin="round"/>
<path d="M4.63477 14.528C4.87868 14.3293 5.1397 14.1527 5.41477 14" stroke="#007D79" stroke-width="2.5" stroke-linecap="round" stroke-linejoin="round"/>
<path d="M7.99962 23.9998C7.08073 24.0002 6.17731 23.7632 5.37695 23.3118" stroke="#007D79" stroke-width="2.5" stroke-linecap="round" stroke-linejoin="round"/>
<path d="M16 17.3333H21.3333" stroke="#007D79" stroke-width="2.5" stroke-linecap="round" stroke-linejoin="round"/>
<path d="M16 24H24C24.7072 24 25.3855 24.281 25.8856 24.781C26.3857 25.2811 26.6667 25.9594 26.6667 26.6667V28" stroke="#007D79" stroke-width="2.5" stroke-linecap="round" stroke-linejoin="round"/>
<path d="M16 10.6667H26.6667" stroke="#007D79" stroke-width="2.5" stroke-linecap="round" stroke-linejoin="round"/>
<path d="M21.334 10.6667V6.66667C21.334 5.95942 21.6149 5.28115 22.115 4.78105C22.6151 4.28095 23.2934 4 24.0007 4" stroke="#007D79" stroke-width="2.5" stroke-linecap="round" stroke-linejoin="round"/>
<path d="M21.3327 18.0001C21.7009 18.0001 21.9993 17.7016 21.9993 17.3334C21.9993 16.9652 21.7009 16.6667 21.3327 16.6667C20.9645 16.6667 20.666 16.9652 20.666 17.3334C20.666 17.7016 20.9645 18.0001 21.3327 18.0001Z" stroke="#007D79" stroke-width="2.5" stroke-linecap="round" stroke-linejoin="round"/>
<path d="M24.0007 4.66659C24.3688 4.66659 24.6673 4.36811 24.6673 3.99992C24.6673 3.63173 24.3688 3.33325 24.0007 3.33325C23.6325 3.33325 23.334 3.63173 23.334 3.99992C23.334 4.36811 23.6325 4.66659 24.0007 4.66659Z" stroke="#007D79" stroke-width="2.5" stroke-linecap="round" stroke-linejoin="round"/>
<path d="M26.6667 28.6666C27.0349 28.6666 27.3333 28.3681 27.3333 27.9999C27.3333 27.6317 27.0349 27.3333 26.6667 27.3333C26.2985 27.3333 26 27.6317 26 27.9999C26 28.3681 26.2985 28.6666 26.6667 28.6666Z" stroke="#007D79" stroke-width="2.5" stroke-linecap="round" stroke-linejoin="round"/>
<path d="M26.6667 11.3333C27.0349 11.3333 27.3333 11.0349 27.3333 10.6667C27.3333 10.2985 27.0349 10 26.6667 10C26.2985 10 26 10.2985 26 10.6667C26 11.0349 26.2985 11.3333 26.6667 11.3333Z" stroke="#007D79" stroke-width="2.5" stroke-linecap="round" stroke-linejoin="round"/>
</svg>
