<svg width="32" height="32" viewBox="0 0 32 32" fill="none" xmlns="http://www.w3.org/2000/svg">
<path d="M14.6899 3.75186C14.7471 3.44599 14.9094 3.16974 15.1487 2.97095C15.3881 2.77215 15.6894 2.66333 16.0006 2.66333C16.3117 2.66333 16.6131 2.77215 16.8525 2.97095C17.0918 3.16974 17.2541 3.44599 17.3113 3.75186L18.7126 11.1625C18.8121 11.6894 19.0682 12.174 19.4473 12.5532C19.8264 12.9323 20.3111 13.1883 20.8379 13.2879L28.2486 14.6892C28.5545 14.7463 28.8307 14.9086 29.0295 15.148C29.2283 15.3874 29.3371 15.6887 29.3371 15.9999C29.3371 16.311 29.2283 16.6124 29.0295 16.8517C28.8307 17.0911 28.5545 17.2534 28.2486 17.3105L20.8379 18.7119C20.3111 18.8114 19.8264 19.0674 19.4473 19.4466C19.0682 19.8257 18.8121 20.3103 18.7126 20.8372L17.3113 28.2479C17.2541 28.5537 17.0918 28.83 16.8525 29.0288C16.6131 29.2276 16.3117 29.3364 16.0006 29.3364C15.6894 29.3364 15.3881 29.2276 15.1487 29.0288C14.9094 28.83 14.7471 28.5537 14.6899 28.2479L13.2886 20.8372C13.1891 20.3103 12.933 19.8257 12.5539 19.4466C12.1747 19.0674 11.6901 18.8114 11.1633 18.7119L3.75259 17.3105C3.44673 17.2534 3.17048 17.0911 2.97168 16.8517C2.77288 16.6124 2.66406 16.311 2.66406 15.9999C2.66406 15.6887 2.77288 15.3874 2.97168 15.148C3.17048 14.9086 3.44673 14.7463 3.75259 14.6892L11.1633 13.2879C11.6901 13.1883 12.1747 12.9323 12.5539 12.5532C12.933 12.174 13.1891 11.6894 13.2886 11.1625L14.6899 3.75186Z" stroke="#007D79" stroke-width="2.5" stroke-linecap="round" stroke-linejoin="round"/>
</svg>
